<?xml version="1.0" encoding="utf-8"?>
<!-- Generator: Adobe Illustrator 20.0.0, SVG Export Plug-In . SVG Version: 6.00 Build 0)  -->
<svg version="1.1"
	 id="svg2" xmlns:cc="http://creativecommons.org/ns#" xmlns:dc="http://purl.org/dc/elements/1.1/" xmlns:rdf="http://www.w3.org/1999/02/22-rdf-syntax-ns#" xmlns:svg="http://www.w3.org/2000/svg"
	 xmlns="http://www.w3.org/2000/svg" xmlns:xlink="http://www.w3.org/1999/xlink" x="0px" y="0px" viewBox="0 0 534.8 598"
	 style="enable-background:new 0 0 534.8 598;" xml:space="preserve">
<style type="text/css">
	.st0{fill:none;stroke:#000000;stroke-width:5;stroke-linejoin:round;stroke-miterlimit:10;}
	.st1{font-family:'Helvetica';}
	.st2{font-size:12.5px;}
	.st3{fill:none;stroke:#0000FF;stroke-width:5;stroke-linejoin:round;stroke-miterlimit:10;}
	.st4{font-family:'ArialMT';}
	.st5{font-size:18px;}
	.st6{font-size:22px;}
	.st7{fill:none;}
	.st8{fill:none;stroke:#000000;stroke-miterlimit:10;}
</style>
<g id="g10" transform="matrix(1.25,0,0,-1.25,-14.5835,651.45875)">
	<g id="g12" transform="scale(0.1,0.1)">
		<g id="g14">
			<g>
				<g id="g16">
					<path id="path28" class="st0" d="M700,1198.3h3518.3"/>
					<path id="path32" class="st0" d="M700,1198.3v3700.8"/>
					<path id="path36" class="st0" d="M700,1198.3h3518.3"/>
					<path id="path38" class="st0" d="M700,1198.3v3700.8"/>
					<path id="path40" class="st0" d="M700,1198.3v37.5"/>
					<path id="path42" class="st0" d="M700,4899.2v-36.7"/>
					<g id="g44" transform="scale(10,10)">
						<text transform="matrix(0.8 0 0 -0.8 67.25 107.7498)" class="st1 st2">0</text>
					</g>
					<path id="path50" class="st0" d="M1285.8,1198.3v37.5"/>
					<g id="g54" transform="scale(10,10)">
						<text transform="matrix(0.8 0 0 -0.8 125.8328 107.7498)" class="st1 st2">5</text>
					</g>
					<path id="path60" class="st0" d="M1872.5,1198.3v37.5"/>
					<g id="g64" transform="scale(10,10)">
						<text transform="matrix(0.8 0 0 -0.8 181.75 107.7498)" class="st1 st2">1</text>
						<text transform="matrix(0.8 0 0 -0.8 187.3098 107.7498)" class="st1 st2">0</text>
					</g>
					<path id="path70" class="st0" d="M2459.2,1198.3v37.5"/>
					<g id="g74" transform="scale(10,10)">
						<text transform="matrix(0.8 0 0 -0.8 240.4168 107.7498)" class="st1 st2">1</text>
						<text transform="matrix(0.8 0 0 -0.8 245.9769 107.7498)" class="st1 st2">5</text>
					</g>
					<path id="path80" class="st0" d="M3045,1198.3v37.5"/>
					<g id="g84" transform="scale(10,10)">
						<text transform="matrix(0.8 0 0 -0.8 299 107.7498)" class="st1 st2">2</text>
						<text transform="matrix(0.8 0 0 -0.8 304.5598 107.7498)" class="st1 st2">0</text>
					</g>
					<path id="path90" class="st0" d="M3631.7,1198.3v37.5"/>
					<g id="g94" transform="scale(10,10)">
						<text transform="matrix(0.8 0 0 -0.8 357.6668 107.7498)" class="st1 st2">2</text>
						<text transform="matrix(0.8 0 0 -0.8 363.227 107.7498)" class="st1 st2">5</text>
					</g>
					<path id="path100" class="st0" d="M4218.3,1198.3v37.5"/>
					<g id="g104" transform="scale(10,10)">
						<text transform="matrix(0.8 0 0 -0.8 416.3328 107.7498)" class="st1 st2">3</text>
						<text transform="matrix(0.8 0 0 -0.8 421.893 107.7498)" class="st1 st2">0</text>
					</g>
					<path id="path110" class="st0" d="M700,1198.3h36.7"/>
					<path id="path112" class="st0" d="M4218.3,1198.3h-37.5"/>
					<g id="g114" transform="scale(10,10)">
						<text transform="matrix(0.8 0 0 -0.8 41.8332 116.167)" class="st1 st2">−</text>
						<text transform="matrix(0.8 0 0 -0.8 47.6731 116.167)" class="st1 st2">0</text>
						<text transform="matrix(0.8 0 0 -0.8 53.2332 116.167)" class="st1 st2">.</text>
						<text transform="matrix(0.8 0 0 -0.8 56.0129 116.167)" class="st1 st2">0</text>
						<text transform="matrix(0.8 0 0 -0.8 61.573 116.167)" class="st1 st2">5</text>
					</g>
					<path id="path120" class="st0" d="M700,1727.5h36.7"/>
					<path id="path122" class="st0" d="M4218.3,1727.5h-37.5"/>
					<g id="g124" transform="scale(10,10)">
						<text transform="matrix(0.8 0 0 -0.8 61.5832 169.0834)" class="st1 st2">0</text>
					</g>
					<path id="path130" class="st0" d="M700,2255.8h36.7"/>
					<g id="g134" transform="scale(10,10)">
						<text transform="matrix(0.8 0 0 -0.8 47.6668 221.917)" class="st1 st2">0</text>
						<text transform="matrix(0.8 0 0 -0.8 53.2266 221.917)" class="st1 st2">.</text>
						<text transform="matrix(0.8 0 0 -0.8 56.0066 221.917)" class="st1 st2">0</text>
						<text transform="matrix(0.8 0 0 -0.8 61.5668 221.917)" class="st1 st2">5</text>
					</g>
					<path id="path140" class="st0" d="M700,2785h36.7"/>
					<g id="g144" transform="scale(10,10)">
						<text transform="matrix(0.8 0 0 -0.8 53.25 274.8334)" class="st1 st2">0</text>
						<text transform="matrix(0.8 0 0 -0.8 58.8098 274.8334)" class="st1 st2">.</text>
						<text transform="matrix(0.8 0 0 -0.8 61.5898 274.8334)" class="st1 st2">1</text>
					</g>
					<path id="path150" class="st0" d="M700,3313.3h36.7"/>
					<g id="g154" transform="scale(10,10)">
						<text transform="matrix(0.8 0 0 -0.8 47.6668 327.667)" class="st1 st2">0</text>
						<text transform="matrix(0.8 0 0 -0.8 53.2266 327.667)" class="st1 st2">.</text>
						<text transform="matrix(0.8 0 0 -0.8 56.0066 327.667)" class="st1 st2">1</text>
						<text transform="matrix(0.8 0 0 -0.8 61.5668 327.667)" class="st1 st2">5</text>
					</g>
					<path id="path160" class="st0" d="M700,3842.5h36.7"/>
					<g id="g164" transform="scale(10,10)">
						<text transform="matrix(0.8 0 0 -0.8 53.25 380.5834)" class="st1 st2">0</text>
						<text transform="matrix(0.8 0 0 -0.8 58.8098 380.5834)" class="st1 st2">.</text>
						<text transform="matrix(0.8 0 0 -0.8 61.5898 380.5834)" class="st1 st2">2</text>
					</g>
					<path id="path170" class="st0" d="M700,4370.8h36.7"/>
					<g id="g174" transform="scale(10,10)">
						<text transform="matrix(0.8 0 0 -0.8 47.6668 433.417)" class="st1 st2">0</text>
						<text transform="matrix(0.8 0 0 -0.8 53.2266 433.417)" class="st1 st2">.</text>
						<text transform="matrix(0.8 0 0 -0.8 56.0066 433.417)" class="st1 st2">2</text>
						<text transform="matrix(0.8 0 0 -0.8 61.5668 433.417)" class="st1 st2">5</text>
					</g>
					<path id="path180" class="st0" d="M700,4899.2h36.7"/>
					<g id="g184" transform="scale(10,10)">
						<text transform="matrix(0.8 0 0 -0.8 53.25 486.2502)" class="st1 st2">0</text>
						<text transform="matrix(0.8 0 0 -0.8 58.8098 486.2502)" class="st1 st2">.</text>
						<text transform="matrix(0.8 0 0 -0.8 61.5898 486.2502)" class="st1 st2">3</text>
					</g>
					<path id="path190" class="st0" d="M700,1198.3h3518.3"/>
					<path id="path194" class="st0" d="M700,1198.3v3700.8"/>
				</g>
			</g>
		</g>
		<g id="g198">
			<g>
				<g id="g200">
					<path id="path206" class="st3" d="M3868.3,1718.3h7.5l0.8,0.8h25l0.8,0.8h28.3l0.8,0.8h31.7l1.7,0.8h35l0.8,0.8h40.8l1.7,0.8
						h48.3l0.8,0.8h60.8l1.7,0.8h64.2"/>
					<path id="path208" class="st3" d="M3517.5,1696.7h1.7l0.8,0.8h8.3l0.8,0.8h7.5l0.8,0.8h8.3l1.7,0.8h7.5l1.7,0.8h8.3l0.8,0.8
						h8.3l0.8,0.8h10l0.8,0.8h9.2l1.7,0.8h9.2l0.8,0.8h10l0.8,0.8h10.8l0.8,0.8h10.8l0.8,0.8h10.8l0.8,0.8h11.7l1.7,0.8h11.7
						l0.8,0.8h13.3l0.8,0.8h12.5l1.7,0.8h14.2l0.8,0.8h14.2l0.8,0.8h15.8l0.8,0.8h16.7l0.8,0.8h17.5l1.7,0.8h17.5l0.8,0.8h20
						l1.7,0.8h20.8l0.8,0.8h16.7"/>
					<path id="path210" class="st3" d="M3167.5,1645h0.8l0.8,0.8h4.2l0.8,0.8h3.3l1.7,0.8h1.7l1.7,0.8h3.3l0.8,0.8h4.2l0.8,0.8h2.5
						l0.8,0.8h4.2l0.8,0.8h3.3l1.7,0.8h1.7l1.7,0.8h3.3l0.8,0.8h4.2l0.8,0.8h3.3l1.7,0.8h3.3l0.8,0.8h4.2l0.8,0.8h3.3l1.7,0.8h1.7
						l1.7,0.8h3.3l0.8,0.8h4.2l0.8,0.8h5l0.8,0.8h3.3l1.7,0.8h3.3l0.8,0.8h4.2l0.8,0.8h3.3l1.7,0.8h3.3l0.8,0.8h5l0.8,0.8h3.3
						l1.7,0.8h3.3l1.7,0.8h4.2l1.7,0.8h3.3l0.8,0.8h5l0.8,0.8h3.3l1.7,0.8h4.2l1.7,0.8h3.3l1.7,0.8h4.2l1.7,0.8h4.2l1.7,0.8h3.3
						l0.8,0.8h5l0.8,0.8h5l0.8,0.8h5l0.8,0.8h5l0.8,0.8h5l0.8,0.8h5l0.8,0.8h5.8l1.7,0.8h5l0.8,0.8h5l0.8,0.8h5.8l0.8,0.8h5l0.8,0.8
						h5.8l1.7,0.8h5l0.8,0.8h5.8l0.8,0.8h5.8l1.7,0.8h5.8l0.8,0.8h5.8l1.7,0.8h5.8l0.8,0.8h7.5l0.8,0.8h5.8l0.8,0.8h7.5l0.8,0.8h5.8
						l1.7,0.8h6.7l1.7,0.8h6.7l0.8,0.8h7.5l0.8,0.8h5.8"/>
					<path id="path212" class="st3" d="M2816.7,1565l0.8,0.8h2.5l0.8,0.8h2.5l1.7,0.8h1.7l1.7,0.8h3.3l0.8,0.8h2.5l1.7,0.8h1.7
						l1.7,0.8h2.5l0.8,0.8h2.5l0.8,0.8h2.5l1.7,0.8h1.7l1.7,0.8h3.3l0.8,0.8h2.5l1.7,0.8h1.7l1.7,0.8h2.5l0.8,0.8h2.5l0.8,0.8h2.5
						l1.7,0.8h1.7l1.7,0.8h2.5l0.8,0.8h2.5l0.8,0.8h2.5l0.8,0.8h2.5l1.7,0.8h1.7l1.7,0.8h2.5l0.8,0.8h2.5l0.8,0.8h2.5l1.7,0.8h1.7
						l1.7,0.8h2.5l0.8,0.8h2.5l0.8,0.8h2.5l0.8,0.8h2.5l1.7,0.8h1.7l1.7,0.8h2.5l0.8,0.8h2.5l0.8,0.8h2.5l1.7,0.8h1.7l1.7,0.8h2.5
						l0.8,0.8h2.5l0.8,0.8h2.5l0.8,0.8h2.5l1.7,0.8h1.7l1.7,0.8h2.5l0.8,0.8h2.5l0.8,0.8h2.5l1.7,0.8h1.7l1.7,0.8h2.5l0.8,0.8h2.5
						l0.8,0.8h2.5l0.8,0.8h2.5l1.7,0.8h1.7l1.7,0.8h2.5l0.8,0.8h2.5l0.8,0.8h2.5l1.7,0.8h1.7l1.7,0.8h2.5l0.8,0.8h2.5l0.8,0.8h2.5
						l0.8,0.8h2.5l1.7,0.8h1.7l1.7,0.8h2.5l0.8,0.8h2.5l0.8,0.8h4.2l0.8,0.8h2.5l0.8,0.8h2.5l0.8,0.8h2.5l1.7,0.8h1.7l1.7,0.8h2.5
						l0.8,0.8h2.5l0.8,0.8h2.5l0.8,0.8h4.2l0.8,0.8h2.5l0.8,0.8h2.5l1.7,0.8h1.7l1.7,0.8h2.5l0.8,0.8h2.5l0.8,0.8h3.3l1.7,0.8h2.5
						l0.8,0.8h2.5l0.8,0.8h2.5l0.8,0.8h4.2l0.8,0.8h2.5l0.8,0.8h2.5l1.7,0.8h1.7l1.7,0.8h3.3l0.8,0.8h2.5l1.7,0.8h1.7l1.7,0.8h3.3
						l0.8,0.8h2.5l1.7,0.8h3.3l0.8,0.8h2.5l1.7,0.8h1.7l1.7,0.8h3.3l0.8,0.8h2.5l1.7,0.8h3.3l0.8,0.8h2.5l0.8,0.8h4.2l0.8,0.8h1.7"
						/>
					<path id="path214" class="st3" d="M2465.8,1535l0.8-0.8h5l0.8-0.8h7.5l0.8-0.8h7.5l0.8-0.8h9.2l1.7-0.8h12.5l1.7-0.8h25.8
						l0.8-0.8h14.2l0.8,0.8h27.5l0.8,0.8h14.2l0.8,0.8h10.8l0.8,0.8h10l0.8,0.8h7.5l0.8,0.8h6.7l1.7,0.8h6.7l1.7,0.8h5.8l0.8,0.8h5
						l0.8,0.8h5.8l1.7,0.8h4.2l1.7,0.8h4.2l1.7,0.8h4.2l1.7,0.8h4.2l1.7,0.8h4.2l1.7,0.8h3.3l0.8,0.8h5l0.8,0.8h4.2l0.8,0.8h3.3
						l1.7,0.8h3.3l0.8,0.8h4.2l0.8,0.8h3.3l1.7,0.8h3.3l0.8,0.8h3.3l1.7,0.8h3.3l0.8,0.8h4.2l0.8,0.8h3.3l1.7,0.8h2.5l0.8,0.8h3.3
						l1.7,0.8h3.3l0.8,0.8h2.5l0.8,0.8h4.2l0.8,0.8h2.5l0.8,0.8h4.2l0.8,0.8h2.5l0.8,0.8h3.3l1.7,0.8h2.5l0.8,0.8h2.5l0.8,0.8h3.3
						l1.7,0.8h2.5l0.8,0.8h2.5l0.8,0.8h2.5l1.7,0.8h3.3"/>
					<path id="path216" class="st3" d="M2115,1728.3l1.7-1.7l0.8-0.8l0.8-1.7l1.7-0.8l0.8-1.7l1.7-0.8l0.8-1.7l0.8-0.8l1.7-1.7
						l0.8-0.8l1.7-1.7l0.8-0.8l0.8-1.7l1.7-0.8l0.8-1.7l1.7-0.8l0.8-1.7l0.8-0.8l1.7-1.7l0.8-0.8l1.7-0.8l0.8-1.7l1.7-0.8l0.8-1.7
						l0.8-0.8l1.7-0.8l0.8-1.7l1.7-0.8l0.8-0.8l0.8-1.7l1.7-0.8l0.8-1.7l1.7-0.8l0.8-0.8l0.8-1.7l1.7-0.8l0.8-0.8l1.7-1.7l0.8-0.8
						l0.8-0.8l1.7-0.8l0.8-1.7l1.7-0.8l0.8-0.8l0.8-1.7l1.7-0.8l0.8-0.8l1.7-0.8l0.8-1.7l1.7-0.8l0.8-0.8l0.8-0.8l1.7-1.7l0.8-0.8
						l1.7-0.8l0.8-0.8l0.8-0.8l1.7-1.7l0.8-0.8l1.7-0.8l0.8-0.8l0.8-0.8l1.7-1.7l0.8-0.8l1.7-0.8l0.8-0.8l0.8-0.8l1.7-0.8l0.8-0.8
						l1.7-1.7l0.8-0.8l0.8-0.8l1.7-0.8l0.8-0.8l1.7-0.8l0.8-0.8l1.7-0.8l0.8-0.8l0.8-0.8l1.7-1.7l0.8-0.8l1.7-0.8l0.8-0.8l0.8-0.8
						l1.7-0.8l0.8-0.8l1.7-0.8l0.8-0.8l0.8-0.8l1.7-0.8l0.8-0.8l1.7-0.8l0.8-0.8l0.8-0.8l1.7-0.8l0.8-0.8l1.7-0.8l0.8-0.8l0.8-0.8
						l1.7-0.8l0.8-0.8l1.7-0.8l0.8-0.8l1.7-0.8l0.8-0.8l0.8-0.8l1.7-0.8l0.8-0.8l1.7-0.8h0.8l0.8-0.8l1.7-0.8l0.8-0.8l1.7-0.8
						l0.8-0.8l0.8-0.8l1.7-0.8l0.8-0.8l1.7-0.8h0.8l0.8-0.8l1.7-0.8l0.8-0.8l1.7-0.8l0.8-0.8l0.8-0.8h1.7l0.8-0.8l1.7-0.8l0.8-0.8
						l1.7-0.8h0.8l0.8-0.8l1.7-0.8l0.8-0.8l1.7-0.8l0.8-0.8h0.8l1.7-0.8l0.8-0.8l1.7-0.8h0.8l0.8-0.8l1.7-0.8l0.8-0.8h1.7l0.8-0.8
						l0.8-0.8l1.7-0.8h0.8l1.7-0.8l0.8-0.8l0.8-0.8h1.7l0.8-0.8l1.7-0.8h0.8l1.7-0.8l0.8-0.8h0.8l1.7-0.8l0.8-0.8l1.7-0.8h0.8
						l0.8-0.8l1.7-0.8h0.8l1.7-0.8h0.8l0.8-0.8l1.7-0.8h0.8l1.7-0.8l0.8-0.8h0.8l1.7-0.8l0.8-0.8h1.7l0.8-0.8h0.8l1.7-0.8l0.8-0.8
						h1.7l0.8-0.8h1.7l0.8-0.8h0.8l1.7-0.8l0.8-0.8h1.7l0.8-0.8h0.8l1.7-0.8h0.8l1.7-0.8h0.8l0.8-0.8h1.7l0.8-0.8l1.7-0.8h0.8
						l0.8-0.8h1.7l0.8-0.8h1.7l0.8-0.8h0.8l1.7-0.8h0.8l1.7-0.8h2.5l0.8-0.8h0.8l1.7-0.8h0.8l1.7-0.8h0.8l0.8-0.8h1.7l0.8-0.8h2.5
						l0.8-0.8h1.7l0.8-0.8h1.7l0.8-0.8h2.5l0.8-0.8h1.7l0.8-0.8h2.5l0.8-0.8h1.7l0.8-0.8h2.5l0.8-0.8h2.5l1.7-0.8h1.7l1.7-0.8h0.8
						l1.7-0.8h1.7l1.7-0.8h3.3l0.8-0.8h2.5l1.7-0.8h1.7l1.7-0.8h2.5l0.8-0.8h3.3l1.7-0.8h3.3l0.8-0.8h4.2l0.8-0.8h3.3l1.7-0.8h3.3
						l0.8-0.8h5l0.8-0.8h4.2l0.8-0.8h5.8"/>
					<path id="path218" class="st3" d="M1764.2,2430.8l1.7-3.3l0.8-3.3l1.7-4.2l0.8-3.3l0.8-3.3l1.7-4.2l0.8-3.3l1.7-3.3l0.8-3.3
						l0.8-4.2l1.7-3.3l0.8-3.3l1.7-3.3l0.8-4.2l0.8-3.3l1.7-3.3l0.8-3.3l1.7-3.3l0.8-3.3l1.7-4.2l0.8-3.3l0.8-3.3l1.7-3.3l0.8-3.3
						l1.7-3.3l0.8-3.3l0.8-3.3l1.7-3.3l0.8-3.3l1.7-3.3l0.8-3.3l0.8-3.3l1.7-3.3l0.8-3.3l1.7-3.3l0.8-3.3l0.8-3.3l1.7-3.3l0.8-3.3
						l1.7-3.3l0.8-3.3l0.8-3.3l1.7-3.3l0.8-2.5l1.7-3.3l0.8-3.3l1.7-3.3l0.8-3.3l0.8-3.3l1.7-2.5l0.8-3.3l1.7-3.3l0.8-3.3l0.8-2.5
						l1.7-3.3l0.8-3.3l1.7-3.3l0.8-2.5l0.8-3.3l1.7-3.3l0.8-2.5l1.7-3.3l0.8-3.3l0.8-2.5l1.7-3.3l0.8-3.3l1.7-2.5l0.8-3.3l0.8-2.5
						l1.7-3.3l0.8-3.3l1.7-2.5l0.8-3.3l1.7-2.5l0.8-3.3l0.8-2.5l1.7-3.3l0.8-2.5l1.7-3.3l0.8-2.5l0.8-3.3l1.7-2.5l0.8-2.5l1.7-3.3
						l0.8-2.5l0.8-3.3l1.7-2.5l0.8-2.5l1.7-3.3l0.8-2.5l0.8-3.3l1.7-2.5l0.8-2.5l1.7-2.5l0.8-3.3l0.8-2.5l1.7-2.5l0.8-3.3l1.7-2.5
						l0.8-2.5l0.8-2.5l1.7-3.3l0.8-2.5l1.7-2.5l0.8-2.5l1.7-2.5l0.8-3.3l0.8-2.5l1.7-2.5l0.8-2.5l1.7-2.5l0.8-2.5l0.8-2.5l1.7-3.3
						l0.8-2.5l1.7-2.5l0.8-2.5l0.8-2.5l1.7-2.5l0.8-2.5l1.7-2.5l0.8-2.5l0.8-2.5l1.7-2.5l0.8-2.5l1.7-2.5l0.8-2.5l0.8-2.5l1.7-2.5
						l0.8-2.5l1.7-2.5l0.8-2.5l1.7-2.5l0.8-2.5l0.8-1.7l1.7-2.5l0.8-2.5l1.7-2.5l0.8-2.5l0.8-2.5l1.7-2.5l0.8-1.7l1.7-2.5l0.8-2.5
						l0.8-2.5l1.7-2.5l0.8-1.7l1.7-2.5l0.8-2.5l0.8-2.5l1.7-1.7l0.8-2.5l1.7-2.5l0.8-2.5l0.8-1.7l1.7-2.5l0.8-2.5l1.7-1.7l0.8-2.5
						l1.7-2.5l0.8-1.7l0.8-2.5l1.7-2.5l0.8-1.7l1.7-2.5l0.8-1.7l0.8-2.5l1.7-2.5l0.8-1.7l1.7-2.5l0.8-1.7l0.8-2.5l1.7-1.7l0.8-2.5
						l1.7-1.7l0.8-2.5l0.8-1.7l1.7-2.5l0.8-1.7l1.7-2.5l0.8-1.7l0.8-2.5l1.7-1.7l0.8-2.5l1.7-1.7l0.8-2.5l1.7-1.7l0.8-1.7l0.8-2.5
						l1.7-1.7l0.8-1.7l1.7-2.5l0.8-1.7l0.8-2.5l1.7-1.7l0.8-1.7l1.7-2.5l0.8-1.7l0.8-1.7l1.7-1.7l0.8-2.5l1.7-1.7l0.8-1.7l0.8-2.5
						l1.7-1.7l0.8-1.7l1.7-1.7l0.8-2.5l0.8-1.7l1.7-1.7l0.8-1.7l1.7-1.7l0.8-2.5l1.7-1.7l0.8-1.7l0.8-1.7l1.7-1.7l0.8-1.7l1.7-2.5
						l0.8-1.7l0.8-1.7l1.7-1.7l0.8-1.7l1.7-1.7l0.8-1.7l0.8-1.7l1.7-1.7l0.8-1.7l1.7-1.7l0.8-2.5l0.8-1.7l1.7-1.7l0.8-1.7l1.7-1.7
						l0.8-1.7l0.8-1.7l1.7-1.7l0.8-1.7l1.7-1.7l0.8-1.7l1.7-1.7l0.8-1.7l0.8-1.7l1.7-0.8l0.8-1.7l1.7-1.7l0.8-1.7l0.8-1.7l1.7-1.7
						l0.8-1.7l1.7-1.7l0.8-1.7l0.8-1.7l1.7-0.8l0.8-1.7l1.7-1.7l0.8-1.7l0.8-1.7l1.7-1.7l0.8-1.7l1.7-0.8l0.8-1.7l0.8-1.7l1.7-1.7
						l0.8-1.7l1.7-0.8l0.8-1.7l1.7-1.7l0.8-1.7l0.8-0.8l1.7-1.7l0.8-1.7l1.7-1.7l0.8-0.8l0.8-1.7l1.7-1.7l0.8-0.8l1.7-1.7l0.8-1.7
						l0.8-1.7l1.7-0.8l0.8-1.7l1.7-1.7l0.8-0.8l0.8-1.7l1.7-0.8l0.8-1.7l1.7-1.7l0.8-0.8l0.8-1.7l1.7-1.7l0.8-0.8l1.7-1.7l0.8-0.8
						l1.7-1.7l0.8-1.7l0.8-0.8l1.7-1.7l0.8-0.8"/>
					<path id="path220" class="st3" d="M1414.2,3735l0.8-3.3l0.8-3.3l1.7-4.2l0.8-3.3l1.7-4.2l0.8-3.3l0.8-4.2l1.7-3.3l0.8-4.2
						l1.7-3.3l0.8-4.2l0.8-3.3l1.7-4.2l0.8-4.2l1.7-3.3l0.8-4.2l0.8-4.2l1.7-3.3l0.8-4.2l1.7-4.2l0.8-4.2l1.7-3.3l0.8-4.2l0.8-4.2
						l1.7-4.2l0.8-4.2l1.7-4.2l0.8-4.2l0.8-4.2l1.7-4.2l0.8-4.2l1.7-4.2l0.8-4.2l0.8-4.2l1.7-4.2l0.8-4.2l1.7-4.2l0.8-4.2l0.8-4.2
						l1.7-4.2l0.8-4.2l1.7-4.2l0.8-5l0.8-4.2l1.7-4.2l0.8-4.2l1.7-5l0.8-4.2l1.7-4.2l0.8-4.2l0.8-5l1.7-4.2l0.8-4.2l1.7-5l0.8-4.2
						l0.8-4.2l1.7-5l0.8-4.2l1.7-4.2l0.8-5l0.8-4.2l1.7-5l0.8-4.2l1.7-4.2l0.8-5l0.8-4.2l1.7-5l0.8-4.2l1.7-5l0.8-4.2l0.8-5l1.7-4.2
						l0.8-5l1.7-4.2l0.8-5l1.7-4.2l0.8-5l0.8-5l1.7-4.2l0.8-5l1.7-4.2l0.8-5l0.8-4.2l1.7-5l0.8-5l1.7-4.2l0.8-5l0.8-5l1.7-4.2l0.8-5
						l1.7-4.2l0.8-5l0.8-5l1.7-4.2l0.8-5l1.7-5l0.8-4.2l0.8-5l1.7-5l0.8-4.2l1.7-5l0.8-5l1.7-4.2l0.8-5l0.8-5l1.7-5l0.8-4.2l1.7-5
						l0.8-5l0.8-4.2l1.7-5l0.8-5l1.7-5l0.8-4.2l0.8-5l1.7-5l0.8-4.2l1.7-5l0.8-5l0.8-5l1.7-4.2l0.8-5l1.7-5l0.8-4.2l0.8-5l1.7-5
						l0.8-5l1.7-4.2l0.8-5l1.7-5l0.8-4.2l0.8-5l1.7-5l0.8-5l1.7-4.2l0.8-5l0.8-5l1.7-4.2l0.8-5l1.7-5l0.8-5l0.8-4.2l1.7-5l0.8-5
						l1.7-4.2l0.8-5l0.8-5l1.7-4.2l0.8-5l1.7-5l0.8-4.2l0.8-5l1.7-5l0.8-4.2l1.7-5l0.8-5l1.7-4.2l0.8-5l0.8-5l1.7-4.2l0.8-5l1.7-4.2
						l0.8-5l0.8-5l1.7-4.2l0.8-5l1.7-4.2l0.8-5l0.8-5l1.7-4.2l0.8-5l1.7-4.2l0.8-5l0.8-4.2l1.7-5l0.8-5l1.7-4.2l0.8-5l0.8-4.2l1.7-5
						l0.8-4.2l1.7-5l0.8-4.2l1.7-5l0.8-4.2l0.8-5l1.7-4.2l0.8-5l1.7-4.2l0.8-4.2l0.8-5l1.7-4.2l0.8-5l1.7-4.2l0.8-5l0.8-4.2l1.7-4.2
						l0.8-5l1.7-4.2l0.8-5l0.8-4.2l1.7-4.2l0.8-5l1.7-4.2l0.8-4.2l0.8-5l1.7-4.2l0.8-4.2l1.7-5l0.8-4.2l1.7-4.2l0.8-4.2l0.8-5
						l1.7-4.2l0.8-4.2l1.7-4.2l0.8-5l0.8-4.2l1.7-4.2l0.8-4.2l1.7-4.2l0.8-5l0.8-4.2l1.7-4.2l0.8-4.2l1.7-4.2l0.8-4.2l0.8-4.2l1.7-5
						l0.8-4.2l1.7-4.2l0.8-4.2l0.8-4.2l1.7-4.2l0.8-4.2l1.7-4.2l0.8-4.2l1.7-4.2l0.8-4.2l0.8-4.2l1.7-4.2l0.8-4.2l1.7-4.2l0.8-4.2
						l0.8-4.2l1.7-4.2l0.8-4.2l1.7-4.2l0.8-4.2l0.8-4.2l1.7-4.2l0.8-3.3l1.7-4.2l0.8-4.2l0.8-4.2l1.7-4.2l0.8-4.2l1.7-4.2l0.8-3.3
						l0.8-4.2l1.7-4.2l0.8-4.2l1.7-3.3l0.8-4.2l1.7-4.2l0.8-4.2l0.8-3.3l1.7-4.2l0.8-4.2l1.7-4.2l0.8-3.3l0.8-4.2l1.7-4.2l0.8-3.3
						l1.7-4.2l0.8-3.3l0.8-4.2l1.7-4.2l0.8-3.3l1.7-4.2l0.8-3.3l0.8-4.2l1.7-3.3l0.8-4.2l1.7-4.2l0.8-3.3l0.8-4.2l1.7-3.3l0.8-3.3
						l1.7-4.2l0.8-3.3l1.7-4.2l0.8-3.3l0.8-4.2l1.7-3.3l0.8-4.2l1.7-3.3l0.8-3.3l0.8-4.2"/>
					<path id="path222" class="st3" d="M1063.3,3082.5l0.8,8.3l1.7,8.3l0.8,8.3l0.8,8.3l1.7,8.3l0.8,8.3l1.7,8.3l0.8,8.3l0.8,8.3
						l1.7,7.5l0.8,8.3l1.7,8.3l0.8,8.3l0.8,7.5l1.7,8.3l0.8,8.3l1.7,7.5l0.8,8.3l1.7,7.5l0.8,8.3l0.8,7.5l1.7,8.3l0.8,7.5l1.7,7.5
						l0.8,8.3l0.8,7.5l1.7,7.5l0.8,7.5l1.7,7.5l0.8,8.3l0.8,7.5l1.7,7.5l0.8,7.5l1.7,7.5l0.8,7.5l0.8,6.7l1.7,7.5l0.8,7.5l1.7,7.5
						l0.8,6.7l0.8,7.5l1.7,7.5l0.8,6.7l1.7,7.5l0.8,6.7l1.7,7.5l0.8,6.7l0.8,6.7l1.7,7.5l0.8,6.7l1.7,6.7l0.8,6.7l0.8,6.7l1.7,6.7
						l0.8,6.7l1.7,6.7l0.8,6.7l0.8,6.7l1.7,6.7l0.8,5.8l1.7,6.7l0.8,6.7l0.8,5.8l1.7,6.7l0.8,5.8l1.7,6.7l0.8,5.8l0.8,5.8l1.7,5.8
						l0.8,6.7l1.7,5.8l0.8,5.8l1.7,5.8l0.8,5.8l0.8,5.8l1.7,5.8l0.8,5l1.7,5.8l0.8,5.8l0.8,5l1.7,5.8l0.8,5l1.7,5.8l0.8,5l0.8,5.8
						l1.7,5l0.8,5l1.7,5l0.8,5l0.8,5l1.7,5l0.8,5l1.7,5l0.8,5l0.8,5l1.7,4.2l0.8,5l1.7,5l0.8,4.2l1.7,4.2l0.8,5l0.8,4.2l1.7,4.2
						l0.8,5l1.7,4.2l0.8,4.2l0.8,4.2l1.7,4.2l0.8,4.2l1.7,3.3l0.8,4.2l0.8,4.2l1.7,4.2l0.8,3.3l1.7,4.2l0.8,3.3l0.8,4.2l1.7,3.3
						l0.8,3.3l1.7,3.3l0.8,3.3l0.8,4.2l1.7,3.3l0.8,3.3l1.7,2.5l0.8,3.3l1.7,3.3l0.8,3.3l0.8,2.5l1.7,3.3l0.8,3.3l1.7,2.5l0.8,2.5
						l0.8,3.3l1.7,2.5l0.8,2.5l1.7,2.5l0.8,3.3l0.8,2.5l1.7,2.5l0.8,2.5l1.7,1.7l0.8,2.5l0.8,2.5l1.7,2.5l0.8,1.7l1.7,2.5l0.8,1.7
						l0.8,2.5l1.7,1.7l0.8,1.7l1.7,2.5l0.8,1.7l1.7,1.7l0.8,1.7l0.8,1.7l1.7,1.7l0.8,1.7l1.7,1.7l0.8,0.8l0.8,1.7l1.7,1.7l0.8,0.8
						l1.7,1.7l0.8,0.8l0.8,1.7l1.7,0.8l0.8,1.7l1.7,0.8l0.8,0.8l0.8,0.8l1.7,0.8l0.8,0.8l1.7,0.8l0.8,0.8l0.8,0.8l1.7,0.8h0.8
						l1.7,0.8l0.8,0.8h1.7l0.8,0.8h0.8l1.7,0.8h3.3l0.8,0.8h7.5l0.8-0.8h3.3l1.7-0.8h0.8l1.7-0.8h0.8l0.8-0.8l1.7-0.8h0.8l1.7-0.8
						l0.8-0.8l0.8-0.8l1.7-0.8l0.8-0.8l1.7-0.8l0.8-0.8l1.7-0.8l0.8-0.8l0.8-0.8l1.7-0.8l0.8-1.7l1.7-0.8l0.8-1.7l0.8-0.8l1.7-0.8
						l0.8-1.7l1.7-1.7l0.8-0.8l0.8-1.7l1.7-1.7l0.8-0.8l1.7-1.7l0.8-1.7l0.8-1.7l1.7-1.7l0.8-1.7l1.7-1.7l0.8-1.7l0.8-1.7l1.7-1.7
						l0.8-1.7l1.7-2.5l0.8-1.7l1.7-1.7l0.8-2.5l0.8-1.7l1.7-1.7l0.8-2.5l1.7-2.5l0.8-1.7l0.8-2.5l1.7-1.7l0.8-2.5l1.7-2.5l0.8-2.5
						l0.8-1.7l1.7-2.5l0.8-2.5l1.7-2.5l0.8-2.5l0.8-2.5l1.7-2.5l0.8-2.5l1.7-2.5l0.8-2.5l0.8-2.5l1.7-3.3l0.8-2.5l1.7-2.5l0.8-3.3
						l1.7-2.5l0.8-2.5l0.8-3.3l1.7-2.5l0.8-3.3l1.7-2.5l0.8-3.3l0.8-2.5l1.7-3.3l0.8-3.3l1.7-2.5l0.8-3.3l0.8-3.3l1.7-2.5l0.8-3.3
						l1.7-3.3l0.8-3.3l0.8-3.3l1.7-3.3l0.8-3.3l1.7-3.3l0.8-3.3l0.8-3.3l1.7-3.3l0.8-3.3l1.7-3.3l0.8-3.3l1.7-3.3l0.8-4.2l0.8-3.3
						l1.7-3.3l0.8-3.3l1.7-4.2"/>
					<path id="path224" class="st3" d="M712.5,1727.5h30.8l0.8,0.8h9.2l1.7,0.8h4.2l1.7,0.8h3.3l0.8,0.8h2.5l1.7,0.8h1.7l1.7,0.8
						h0.8l1.7,0.8h0.8l0.8,0.8h1.7l0.8,0.8h1.7l0.8,0.8l0.8,0.8h1.7l0.8,0.8l1.7,0.8h0.8l0.8,0.8l1.7,0.8l0.8,0.8l1.7,0.8l0.8,0.8
						l0.8,0.8l1.7,0.8l0.8,0.8l1.7,0.8l0.8,0.8l1.7,0.8l0.8,0.8l0.8,0.8l1.7,1.7l0.8,0.8l1.7,0.8l0.8,1.7l0.8,0.8l1.7,1.7l0.8,0.8
						l1.7,1.7l0.8,1.7l0.8,0.8l1.7,1.7l0.8,1.7l1.7,1.7l0.8,0.8l0.8,1.7l1.7,1.7l0.8,1.7l1.7,2.5l0.8,1.7l0.8,1.7l1.7,1.7l0.8,2.5
						l1.7,1.7l0.8,1.7l1.7,2.5l0.8,1.7l0.8,2.5l1.7,2.5l0.8,1.7l1.7,2.5l0.8,2.5l0.8,2.5l1.7,2.5l0.8,2.5l1.7,2.5l0.8,2.5l0.8,3.3
						l1.7,2.5l0.8,2.5l1.7,3.3l0.8,2.5l0.8,3.3l1.7,2.5l0.8,3.3l1.7,3.3l0.8,3.3l0.8,2.5l1.7,3.3l0.8,3.3l1.7,4.2l0.8,3.3l1.7,3.3
						l0.8,3.3l0.8,4.2l1.7,3.3l0.8,3.3l1.7,4.2l0.8,4.2l0.8,3.3l1.7,4.2l0.8,4.2l1.7,4.2l0.8,4.2l0.8,4.2l1.7,4.2l0.8,4.2l1.7,5
						l0.8,4.2l0.8,4.2l1.7,5l0.8,4.2l1.7,5l0.8,5l0.8,4.2l1.7,5l0.8,5l1.7,5l0.8,5l1.7,5l0.8,5l0.8,5l1.7,5.8l0.8,5l1.7,5l0.8,5.8
						l0.8,5l1.7,5.8l0.8,5.8l1.7,5.8l0.8,5l0.8,5.8l1.7,5.8l0.8,5.8l1.7,5.8l0.8,5.8l0.8,6.7l1.7,5.8l0.8,5.8l1.7,6.7l0.8,5.8
						l0.8,6.7l1.7,5.8l0.8,6.7l1.7,5.8l0.8,6.7l1.7,6.7l0.8,6.7l0.8,6.7l1.7,6.7l0.8,6.7l1.7,6.7l0.8,6.7l0.8,6.7l1.7,7.5l0.8,6.7
						l1.7,6.7l0.8,7.5l0.8,6.7l1.7,7.5l0.8,6.7l1.7,7.5l0.8,7.5l0.8,6.7l1.7,7.5l0.8,7.5l1.7,7.5l0.8,7.5l0.8,7.5l1.7,7.5l0.8,7.5
						l1.7,7.5l0.8,7.5l1.7,7.5l0.8,8.3l0.8,7.5l1.7,7.5l0.8,8.3l1.7,7.5l0.8,7.5l0.8,8.3l1.7,7.5l0.8,8.3l1.7,8.3l0.8,7.5l0.8,8.3
						l1.7,8.3l0.8,7.5l1.7,8.3l0.8,8.3l0.8,8.3l1.7,8.3l0.8,7.5l1.7,8.3l0.8,8.3l0.8,8.3l1.7,8.3l0.8,8.3l1.7,8.3l0.8,8.3l1.7,9.2
						l0.8,8.3l0.8,8.3l1.7,8.3l0.8,8.3l1.7,8.3l0.8,9.2l0.8,8.3l1.7,8.3l0.8,8.3l1.7,9.2l0.8,8.3l0.8,8.3l1.7,9.2l0.8,8.3l1.7,8.3
						l0.8,9.2l0.8,8.3l1.7,8.3l0.8,9.2l1.7,8.3l0.8,9.2l0.8,8.3l1.7,8.3l0.8,9.2l1.7,8.3l0.8,9.2l1.7,8.3l0.8,9.2l0.8,8.3l1.7,8.3
						l0.8,9.2l1.7,8.3l0.8,9.2l0.8,8.3l1.7,9.2l0.8,8.3l1.7,8.3l0.8,9.2l0.8,8.3l1.7,9.2l0.8,8.3l1.7,8.3l0.8,9.2l0.8,8.3l1.7,8.3
						l0.8,9.2l1.7,8.3l0.8,8.3l0.8,9.2l1.7,8.3l0.8,8.3l1.7,9.2l0.8,8.3l1.7,8.3l0.8,8.3l0.8,8.3l1.7,9.2l0.8,8.3l1.7,8.3l0.8,8.3
						l0.8,8.3l1.7,8.3"/>
					<path id="path226" class="st3" d="M700.8,1727.5h11.7"/>
				</g>
			</g>
		</g>
	</g>
</g>
<text transform="matrix(6.123234e-17 -1 1 6.123234e-17 28.645 330.6016)" class="st4 st5">BOLD signal magnitude</text>
<text transform="matrix(1 0 0 1 246.5501 538.2028)" class="st4 st5">Time (seconds)</text>
<text transform="matrix(1 0 0 1 111.6746 56.2028)" class="st4 st6">Hemodynamic response function (HRF)</text>
<text transform="matrix(1 0 0 1 7.708 590.2028)" class="st4 st6">stimulus onset</text>
<g>
	<line class="st7" x1="73.2" y1="529.6" x2="73.2" y2="568.2"/>
	<g>
		<line class="st8" x1="73.2" y1="535.6" x2="73.2" y2="568.2"/>
		<g>
			<path d="M73.2,529.6c-1.1,2.8-2.9,6.4-4.8,8.5l4.8-1.7l4.8,1.7C76.1,536,74.3,532.4,73.2,529.6z"/>
		</g>
	</g>
</g>
</svg>
