<?xml version="1.0" encoding="utf-8"?>
<!-- Generator: Adobe Illustrator 15.1.0, SVG Export Plug-In . SVG Version: 6.00 Build 0)  -->
<svg version="1.2" baseProfile="tiny" id="Layer_1" xmlns="http://www.w3.org/2000/svg" xmlns:xlink="http://www.w3.org/1999/xlink"
	 x="0px" y="0px" width="180.749px" height="375.401px" viewBox="0 0 180.749 375.401" overflow="inherit" xml:space="preserve">
<rect y="98.396" width="180.749" height="180.749"/>
<text transform="matrix(1 0 0 1 27.8066 194.1177)" fill="#FFFFFF" font-family="'HelveticaNeue'" font-size="17.2824">O</text>
<text transform="matrix(1 0 0 1 42.6699 194.1177)" fill="#FFFFFF" font-family="'HelveticaNeue'" font-size="17.2824">b</text>
<text transform="matrix(1 0 0 1 54.6465 194.1177)" fill="#FFFFFF" font-family="'HelveticaNeue'" font-size="17.2824">s</text>
<text transform="matrix(1 0 0 1 65.0156 194.1177)" fill="#FFFFFF" font-family="'HelveticaNeue'" font-size="17.2824">e</text>
<text transform="matrix(1 0 0 1 76.0244 194.1177)" fill="#FFFFFF" font-family="'HelveticaNeue'" font-size="17.2824">r</text>
<text transform="matrix(1 0 0 1 83.5068 194.1177)" fill="#FFFFFF" font-family="'HelveticaNeue'" font-size="17.2824">v</text>
<text transform="matrix(1 0 0 1 93.877 194.1177)" fill="#FFFFFF" font-family="'HelveticaNeue'" font-size="17.2824">a</text>
<text transform="matrix(1 0 0 1 104.8857 194.1177)" fill="#FFFFFF" font-family="'HelveticaNeue'" font-size="17.2824">t</text>
<text transform="matrix(1 0 0 1 112.0576 194.1177)" fill="#FFFFFF" font-family="'HelveticaNeue'" font-size="17.2824">i</text>
<text transform="matrix(1 0 0 1 117.6221 194.1177)" fill="#FFFFFF" font-family="'HelveticaNeue'" font-size="17.2824">o</text>
<text transform="matrix(1 0 0 1 129.2695 194.1177)" fill="#FFFFFF" font-family="'HelveticaNeue'" font-size="17.2824">n</text>
<text transform="matrix(1 0 0 1 140.6074 194.1177)" fill="#FFFFFF" font-family="'HelveticaNeue'" font-size="17.2824">s</text>
</svg>
