<?xml version="1.0" encoding="utf-8"?>
<!-- Generator: Adobe Illustrator 15.1.0, SVG Export Plug-In . SVG Version: 6.00 Build 0)  -->
<svg version="1.2" baseProfile="tiny" id="Layer_1" xmlns="http://www.w3.org/2000/svg" xmlns:xlink="http://www.w3.org/1999/xlink"
	 x="0px" y="0px" width="79.145px" height="79.679px" viewBox="0 0 79.145 79.679" overflow="inherit" xml:space="preserve">
<line fill="none" stroke="#070707" stroke-miterlimit="10" x1="5.486" y1="10.695" x2="5.486" y2="70.054"/>
<line fill="none" stroke="#070707" stroke-miterlimit="10" x1="5.486" y1="70.054" x2="73.936" y2="70.054"/>
<circle fill="#070707" cx="15.241" cy="59.626" r="1.872"/>
<circle fill="#070707" cx="22.192" cy="39.839" r="1.872"/>
<circle fill="#070707" cx="33.957" cy="41.711" r="1.872"/>
<circle fill="#070707" cx="35.829" cy="27.273" r="1.872"/>
<circle fill="#070707" cx="24.064" cy="52.941" r="1.872"/>
<circle fill="#070707" cx="25.936" cy="27.273" r="1.872"/>
<circle fill="#070707" cx="49.198" cy="33.155" r="1.872"/>
<circle fill="#070707" cx="49.198" cy="51.07" r="1.872"/>
<circle fill="#070707" cx="55.08" cy="19.786" r="1.872"/>
<circle fill="#070707" cx="61.497" cy="25.401" r="1.872"/>
<circle fill="#070707" cx="47.326" cy="21.658" r="1.872"/>
<circle fill="#070707" cx="56.952" cy="37.968" r="1.872"/>
<g>
	<line fill="none" stroke="#ECBA25" stroke-miterlimit="10" x1="5.486" y1="70.054" x2="6.23" y2="69.386"/>
	
		<line fill="none" stroke="#ECBA25" stroke-miterlimit="10" stroke-dasharray="1.9623,1.9623" x1="7.691" y1="68.075" x2="65.371" y2="16.297"/>
	<line fill="none" stroke="#ECBA25" stroke-miterlimit="10" x1="66.101" y1="15.642" x2="66.845" y2="14.974"/>
</g>
</svg>
