<?xml version="1.0" encoding="utf-8"?>
<!-- Generator: Adobe Illustrator 15.1.0, SVG Export Plug-In . SVG Version: 6.00 Build 0)  -->
<svg version="1.2" baseProfile="tiny" id="Layer_1" xmlns="http://www.w3.org/2000/svg" xmlns:xlink="http://www.w3.org/1999/xlink"
	 x="0px" y="0px" width="725px" height="400px" viewBox="0 0 725 400" overflow="inherit" xml:space="preserve">
<path fill="#D6D6D6" stroke="#AAAAAA" stroke-width="5" stroke-miterlimit="10" d="M477,261.273c0,7.309-5.258,13.23-11.743,13.23
	H229.41c-6.485,0-11.743-5.923-11.743-13.23V137.231c0-7.307,5.258-13.231,11.743-13.231h235.847
	c6.485,0,11.743,5.924,11.743,13.231V261.273L477,261.273z"/>
<g>
	<path fill="none" stroke="#000000" stroke-width="2" stroke-miterlimit="10" d="M578.333,237.5c0,0-89.569,241.908-316.872,75.812"
		/>
	<g>
		<polygon points="270.079,311.57 262.1,313.761 262.221,322.188 253.6,307.588 		"/>
		<polygon fill="#A6A6A6" points="268.034,311.611 255.062,308.552 261.472,313.296 		"/>
		<polygon fill="#666666" points="261.778,320.064 255.064,308.55 261.473,313.294 		"/>
	</g>
</g>
<path fill="none" stroke="#000000" stroke-width="2" stroke-miterlimit="10" d="M241.667,280c0,0-189.064-80.416-23.974-198.906"/>
<path fill="none" stroke="#000000" stroke-width="2" stroke-miterlimit="10" d="M241.667,280c0,0-189.064-80.416-23.974-198.906"/>
<line fill="none" stroke="#000000" stroke-width="2" stroke-miterlimit="10" x1="241.667" y1="80" x2="241.667" y2="124"/>
<line fill="none" stroke="#000000" stroke-width="2" stroke-miterlimit="10" x1="241.667" y1="124" x2="241.667" y2="194"/>
<line fill="none" stroke="#000000" stroke-width="2" stroke-miterlimit="10" x1="241.667" y1="194" x2="241.667" y2="264"/>
<path fill="none" stroke="#000000" stroke-width="2" stroke-miterlimit="10" d="M241.667,280c0,0-189.064-80.416-23.974-198.906"/>
<circle fill="#FFFFFF" stroke="#333333" stroke-width="3" cx="241.667" cy="80" r="12"/>
<circle fill="#FFFFFF" stroke="#333333" stroke-width="3" cx="241.667" cy="150" r="12"/>
<circle fill="#FFFFFF" stroke="#333333" stroke-width="3" cx="241.667" cy="290" r="12"/>
<polygon fill="#8C8888" stroke="#000000" points="235.16,118.888 241.667,124 248.37,118.878 241.572,134.505 "/>
<polygon fill="#8C8888" stroke="#000000" points="235.16,188.888 241.667,194 248.37,188.878 241.572,204.505 "/>
<polygon fill="#8C8888" stroke="#000000" points="235.16,258.889 241.667,264 248.37,258.878 241.572,274.505 "/>
<polygon fill="#8C8888" stroke="#000000" points="216.835,90.472 217.19,82.205 209.667,79.744 225.667,76 "/>
<circle fill="#ADD8E6" stroke="#4682B4" stroke-width="3" cx="241.667" cy="220" r="12"/>
<g>
	<path fill="none" stroke="#000000" stroke-width="2" stroke-miterlimit="10" d="M578.333,129.196
		c0,0-38.732-125.995-148.507-17.993"/>
	<g>
		<polygon points="429.472,102.505 430.449,110.722 438.801,111.857 423.079,118.208 		"/>
		<polygon fill="#A6A6A6" points="429.208,104.533 424.251,116.905 429.896,111.274 		"/>
		<polygon fill="#666666" points="436.635,111.979 424.249,116.903 429.895,111.272 		"/>
	</g>
</g>
<path id="path4073" inkscape:connector-curvature="0" fill="#ADD8E6" stroke="#4682B4" stroke-width="3" d="M541.094,105.307
	c0,0,0.869-0.205,2.171-1.308 M566.521,92.933c-1.407,0.306-2.786,0.663-4.159,1.099c-1.207,3.367-1.452,6.087-1.387,7.875
	c0.067,1.787,0.419,2.642,0.419,2.642l1.936,4.369c-2.502,1.113-4.845,2.555-6.985,4.264l-2.981-3.741c0,0-0.589-0.714-2.146-1.596
	s-4.095-1.903-7.64-2.38c-1.019,1.019-1.982,2.082-2.903,3.191c0.805,3.485,2.065,5.91,3.087,7.377s1.805,1.962,1.805,1.962
	l3.977,2.643c-1.502,2.289-2.707,4.756-3.584,7.351l-4.525-1.517c0,0-0.883-0.283-2.669-0.184c-1.785,0.1-4.477,0.604-7.717,2.119
	c-0.306,1.408-0.532,2.809-0.707,4.238c2.561,2.497,4.914,3.87,6.566,4.552c1.653,0.682,2.59,0.707,2.59,0.707l4.762,0.026
	c-0.028,2.739,0.303,5.48,0.968,8.136l-4.631,1.177c0,0-3.876,1.169-7.69,7.221c0.503,1.35,1.074,2.679,1.7,3.976
	c3.504,0.716,6.246,0.582,8.005,0.262c1.76-0.32,2.538-0.811,2.538-0.811l4.055-2.538c1.457,2.319,3.21,4.457,5.206,6.331
	l-3.271,3.479c0,0-0.631,0.663-1.281,2.328c-0.651,1.666-1.313,4.324-1.282,7.901c1.153,0.863,2.356,1.68,3.584,2.433
	c3.336-1.292,5.548-2.887,6.854-4.107c1.308-1.221,1.7-2.067,1.7-2.067l2.041-4.316c2.48,1.163,5.103,2.014,7.796,2.511
	l-0.863,4.683c0,0-0.17,0.916,0.183,2.668c0.354,1.753,1.231,4.36,3.191,7.352c1.438,0.103,2.876,0.136,4.317,0.104
	c2.107-2.89,3.117-5.435,3.558-7.168c0.439-1.733,0.34-2.668,0.34-2.668l-0.628-4.709c2.715-0.363,5.366-1.082,7.9-2.119
	l1.806,4.421c0,0,1.61,3.375,7.534,6.226c-0.664,0.119-1.329,0.223-1.988,0.366c-1.45,3.392-1.926,6.163-2.015,8.005
	c-0.088,1.843,0.21,2.773,0.21,2.773l1.308,4.134c-2.641,0.841-5.182,1.944-7.587,3.322l-2.171-3.767c0,0-2.196-3.466-9.156-5.913
	c-1.233,0.869-2.429,1.777-3.584,2.747c0.292,3.677,1.157,6.359,1.936,8.031c0.778,1.673,1.465,2.354,1.465,2.354l3.087,3.035
	c-1.947,1.973-3.69,4.149-5.18,6.488l-3.662-2.329c0,0-0.812-0.503-2.616-0.89c-1.804-0.386-4.59-0.637-8.241-0.104
	c-0.688,1.343-1.337,2.711-1.909,4.107c3.936,6.243,7.848,7.613,7.848,7.613l4.134,1.255c-0.808,2.652-1.338,5.401-1.569,8.163
	l-4.316-0.367c0,0-4.131-0.178-10.099,4.16c0.015,1.509,0.094,3.023,0.235,4.525c3.193,1.85,5.899,2.647,7.718,2.956
	c1.818,0.312,2.747,0.131,2.747,0.131l4.264-0.811c0.517,2.724,1.329,5.399,2.407,7.953l-4.003,1.674c0,0-3.716,1.782-6.984,8.397
	c0.714,1.33,1.478,2.608,2.302,3.872c3.686,0.154,6.46-0.371,8.215-0.941c1.754-0.571,2.485-1.178,2.485-1.178l3.4-2.694
	c1.724,2.172,3.692,4.18,5.834,5.938l-2.773,3.349c0,0-0.602,0.742-1.203,2.485c-0.6,1.745-1.188,4.476-1.099,8.162
	c1.251,0.846,2.556,1.645,3.872,2.381c6.671-3.152,8.476-6.854,8.476-6.854l1.753-3.95c2.536,1.122,5.187,1.974,7.9,2.538
	l-0.863,4.237c0,0-0.199,0.924,0.079,2.747c0.277,1.823,1.031,4.547,2.825,7.771c1.499,0.168,3.019,0.274,4.525,0.313
	c4.441-5.892,4.343-10.02,4.343-10.02l-0.287-4.316c2.767-0.185,5.497-0.677,8.162-1.439l1.203,4.187c0,0,1.283,3.91,7.456,7.952
	c1.406-0.548,2.806-1.165,4.159-1.831c0.597-3.64,0.381-6.457,0.026-8.267c-0.354-1.811-0.837-2.616-0.837-2.616l-2.276-3.688
	c2.363-1.449,4.561-3.161,6.566-5.075l3.009,3.139c0,0,0.67,0.686,2.328,1.491c1.66,0.808,4.307,1.738,7.979,2.093
	c0.989-1.138,1.936-2.339,2.825-3.558c-2.327-7.001-5.781-9.234-5.781-9.234l-3.715-2.224c1.419-2.381,2.566-4.934,3.453-7.561
	l4.133,1.412c0,0,0.902,0.293,2.747,0.235c1.845-0.055,4.616-0.49,8.031-1.883c0.347-1.469,0.642-2.955,0.863-4.447
	c-5.313-5.118-9.418-5.494-9.418-5.494l-4.343-0.235c0.15-2.769,0.017-5.555-0.418-8.293l4.264-0.681c0,0,4.061-0.82,8.816-6.462
	c-0.374-1.461-0.811-2.916-1.308-4.342c-3.542-1.032-6.375-1.154-8.215-1.021c-1.839,0.135-2.694,0.523-2.694,0.523l-3.95,1.806
	c-1.153-2.52-2.58-4.92-4.238-7.142l3.479-2.59c0,0,3.198-2.605,4.787-9.811c-1.01-1.12-2.063-2.188-3.165-3.218
	c-7.232,1.466-9.889,4.604-9.889,4.604l-2.643,3.427c-2.192-1.696-4.59-3.146-7.09-4.343l1.884-3.924c0,0,0.41-0.857,0.575-2.695
	c0.167-1.837,0.082-4.655-0.89-8.214c-1.416-0.521-2.861-0.986-4.316-1.387c-5.721,4.659-6.592,8.686-6.592,8.686l-0.759,4.291
	c-2.729-0.482-5.523-0.678-8.293-0.576l-0.157-4.343c0,0-0.311-4.095-5.337-9.496c-0.218,0.028-0.437,0.073-0.654,0.104
	c0.878-0.511,1.748-1.055,2.59-1.622c0.211-3.57-0.321-6.23-0.89-7.927c-0.566-1.696-1.15-2.407-1.15-2.407l-3.087-3.636
	c2.088-1.772,3.948-3.826,5.52-6.069l3.898,2.747c0,0,0.77,0.509,2.511,0.916c1.742,0.407,4.444,0.698,7.979,0.157
	c0.691-1.265,1.341-2.574,1.91-3.898c-3.508-6.234-7.325-7.587-7.325-7.587l-4.553-1.413c0.799-2.619,1.251-5.321,1.361-8.058
	l4.761,0.183c0,0,0.932,0.024,2.616-0.575c1.686-0.6,4.12-1.846,6.802-4.212c-0.103-1.438-0.262-2.869-0.497-4.291
	c-3.16-1.674-5.834-2.296-7.613-2.485c-1.777-0.189-2.668,0.052-2.668,0.052l-4.604,1.308c-0.745-2.635-1.804-5.173-3.191-7.534
	l4.107-2.433c0,0,0.79-0.468,1.884-1.884c1.094-1.415,2.477-3.78,3.453-7.22c-0.863-1.153-1.781-2.254-2.747-3.322
	c-3.564,0.3-6.145,1.185-7.744,1.988c-1.597,0.803-2.224,1.491-2.224,1.491l-3.165,3.584c-2.052-1.814-4.331-3.368-6.775-4.604
	l2.145-4.264c0,0,0.421-0.809,0.576-2.59c0.155-1.782,0.044-4.531-0.994-7.953c-1.35-0.503-2.716-0.932-4.107-1.308
	c-5.672,4.359-6.488,8.319-6.488,8.319l-0.732,4.709c-2.706-0.417-5.464-0.491-8.188-0.209l-0.497-4.735
	c0,0-0.109-0.929-0.941-2.512C570.817,97.472,569.246,95.251,566.521,92.933z M542.035,163.489c-0.606,0.017-1.2,0.053-1.805,0.104
	c-2.109,2.682-3.037,5.156-3.375,6.828c-0.339,1.672-0.104,2.538-0.104,2.538l1.491,5.441c-2.404,0.658-4.665,1.822-6.593,3.401
	l-3.584-4.369c0,0-0.586-0.668-2.146-1.36c-1.559-0.692-4.101-1.371-7.508-1.204c-0.783,0.926-1.498,1.895-2.172,2.904
	c0.781,3.322,2.122,5.573,3.218,6.88c1.098,1.307,1.91,1.674,1.91,1.674l5.18,2.224c-0.984,2.289-1.472,4.781-1.438,7.273
	l-5.651,0.078c0,0-0.893,0.024-2.406,0.811c-1.513,0.788-3.632,2.359-5.625,5.127c0.235,1.19,0.548,2.376,0.916,3.532
	c3.083,1.459,5.698,1.795,7.403,1.752c1.705-0.041,2.512-0.444,2.512-0.444l4.944-2.669c1.175,2.197,2.818,4.148,4.787,5.678
	l-3.453,4.447c0,0-0.535,0.732-0.863,2.406c-0.327,1.674-0.425,4.302,0.497,7.587c1.077,0.558,2.189,1.06,3.322,1.491
	c3.064-1.499,4.961-3.322,5.991-4.683c1.03-1.359,1.203-2.25,1.203-2.25l1.021-5.546c2.451,0.451,5.008,0.403,7.43-0.184
	l1.334,5.468c0,0,0.204,0.871,1.308,2.171c1.105,1.301,3.11,3.016,6.253,4.343c1.108-0.493,2.199-1.058,3.244-1.674
	c0.737-3.331,0.498-5.96,0.078-7.612c-0.42-1.654-0.994-2.329-0.994-2.329l-3.715-4.265c1.881-1.635,3.422-3.652,4.474-5.912
	l5.102,2.355c0,0,0.832,0.394,2.537,0.34c1.706-0.053,4.276-0.568,7.273-2.197c0.304-1.175,0.538-2.357,0.706-3.559
	c-2.144-2.653-4.331-4.111-5.887-4.813c-1.555-0.703-2.459-0.68-2.459-0.68l-5.624,0.235c-0.106-2.49-0.747-4.937-1.857-7.168
	l5.049-2.512c0,0,0.81-0.413,1.831-1.779c1.022-1.366,2.23-3.704,2.825-7.063c-0.729-0.97-1.521-1.892-2.354-2.773
	c-3.412,0.022-5.91,0.844-7.43,1.622c-1.517,0.778-2.04,1.491-2.04,1.491l-3.322,4.552c-2.013-1.469-4.34-2.512-6.776-3.035
	l1.178-5.52c0,0,0.17-0.887-0.262-2.538c-0.43-1.65-1.484-4.059-3.741-6.619C543.26,163.472,542.642,163.472,542.035,163.489
	L542.035,163.489z M607.333,205.869c14.05,0,25.454,11.404,25.454,25.455c0,14.05-11.404,25.429-25.454,25.429
	s-25.429-11.379-25.429-25.429C581.904,217.273,593.283,205.869,607.333,205.869z"/>
<g>
	<g>
		<path fill="none" stroke="#7EC943" stroke-width="2" stroke-miterlimit="10" d="M61,322.188c0,0-0.643-109.797,148.661-214.667"/>
		<g>
			<polygon fill="#7EC943" points="208.594,116.271 209.05,108.009 201.02,105.448 217.603,101.908 			"/>
			<polygon fill="#D2ECBD" points="209.205,114.318 216.224,102.989 209.691,107.561 			"/>
			<polygon fill="#B2DF8E" points="203.175,105.703 216.225,102.991 209.692,107.562 			"/>
		</g>
	</g>
	<g>
		<line fill="none" stroke="#7EC943" stroke-width="2" stroke-miterlimit="10" x1="146" y1="338.5" x2="216.723" y2="308.344"/>
		<g>
			<polygon fill="#7EC943" points="213.848,316.625 215.997,308.635 208.667,304.475 225.623,304.427 			"/>
			<polygon fill="#D2ECBD" points="214.848,314.841 224.051,305.2 216.716,308.328 			"/>
			<polygon fill="#B2DF8E" points="210.723,305.167 224.052,305.202 216.717,308.33 			"/>
		</g>
	</g>
	<g>
		<path fill="none" stroke="#7EC943" stroke-width="2" stroke-miterlimit="10" d="M150.058,353.5c0,0,279.101-26.428,383.489-82.007
			"/>
		<g>
			<polygon fill="#7EC943" points="531.471,279.924 532.797,271.757 525.082,268.362 541.945,266.593 			"/>
			<polygon fill="#D2ECBD" points="532.284,278.048 540.46,267.522 533.481,271.379 			"/>
			<polygon fill="#B2DF8E" points="527.198,268.843 540.461,267.524 533.482,271.381 			"/>
		</g>
	</g>
</g>
</svg>
