<svg xmlns="http://www.w3.org/2000/svg" viewBox="0 0 48 48"><title>ONE-xicons</title><path d="M24,47A23,23,0,1,1,24,1a0.5,0.5,0,0,1,0,1A22,22,0,1,0,24,46,0.5,0.5,0,0,1,24,47Z"/><path d="M24,47a0.5,0.5,0,0,1-.5-0.5V1.53A0.5,0.5,0,0,1,24,1,23,23,0,1,1,24,47ZM24.5,2V46A22,22,0,0,0,24.5,2Z"/><path d="M46.5,24.5H24a0.5,0.5,0,0,1,0-1H46.5A0.5,0.5,0,0,1,46.5,24.5Z"/><path d="M45.5,20h-21a0.5,0.5,0,0,1,0-1h21A0.5,0.5,0,0,1,45.5,20Z"/><path d="M45.5,29h-21a0.5,0.5,0,0,1,0-1h21A0.5,0.5,0,0,1,45.5,29Z"/><path d="M44,33.49H24.5a0.5,0.5,0,0,1,0-1H44A0.5,0.5,0,0,1,44,33.49Z"/><path d="M41.5,38H24a0.5,0.5,0,0,1,0-1H41.5A0.5,0.5,0,0,1,41.5,38Z"/><path d="M37.25,42.47H24.38a0.5,0.5,0,0,1,0-1H37.25A0.5,0.5,0,0,1,37.25,42.47Z"/><path d="M44.62,15.51H24a0.5,0.5,0,0,1,0-1H44.62A0.5,0.5,0,0,1,44.62,15.51Z"/><path d="M41.5,11h-17a0.5,0.5,0,0,1,0-1h17A0.5,0.5,0,0,1,41.5,11Z"/><path d="M37.25,6.53H24.5a0.5,0.5,0,0,1,0-1H37.25A0.5,0.5,0,0,1,37.25,6.53Z"/><rect width="48" height="48" fill="none"/></svg>