<svg xmlns="http://www.w3.org/2000/svg" viewBox="0 0 48 48"><title>ONE-xicons</title><path d="M3,44.1a2.5,2.5,0,0,1-2.5-2.5V7.35a2.5,2.5,0,0,1,3.95-2L28.48,22.44a2.5,2.5,0,0,1,0,4.07l-0.29-.41,0.29,0.41L4.42,43.63A2.49,2.49,0,0,1,3,44.1ZM3,5.85A1.51,1.51,0,0,0,2.29,6a1.48,1.48,0,0,0-.81,1.33V41.6a1.5,1.5,0,0,0,2.37,1.22L27.9,25.7a1.5,1.5,0,0,0,0-2.44L3.84,6.13A1.49,1.49,0,0,0,3,5.85Z"/><path d="M45,45.47H38a2.5,2.5,0,0,1-2.5-2.5V6A2.5,2.5,0,0,1,38,3.47h7A2.5,2.5,0,0,1,47.53,6V43A2.5,2.5,0,0,1,45,45.47Zm-7-41A1.5,1.5,0,0,0,36.53,6V43a1.5,1.5,0,0,0,1.5,1.5h7a1.5,1.5,0,0,0,1.5-1.5V6A1.5,1.5,0,0,0,45,4.47H38Z"/><rect width="48" height="48" fill="none"/></svg>