<svg xmlns="http://www.w3.org/2000/svg" viewBox="0 0 48 48"><title>ONE-xicons</title><path d="M20.5,19h-7a0.5,0.5,0,0,1,0-1h7A0.5,0.5,0,0,1,20.5,19Z"/><path d="M24,46.5a0.5,0.5,0,0,1-.5-0.5V41a0.5,0.5,0,0,1,1,0v5A0.5,0.5,0,0,1,24,46.5Z"/><path d="M20.5,24h-7a0.5,0.5,0,0,1,0-1h7A0.5,0.5,0,0,1,20.5,24Z"/><path d="M20.5,14h-7a0.5,0.5,0,0,1,0-1h7A0.5,0.5,0,0,1,20.5,14Z"/><path d="M33.5,47h-19a0.5,0.5,0,0,1,0-1h19A0.5,0.5,0,0,1,33.5,47Z"/><path d="M24,41A15,15,0,0,1,9,26h1a14,14,0,0,0,28,0h1A15,15,0,0,1,24,41Z"/><path d="M24,36A11,11,0,0,1,13,25V12a11,11,0,0,1,22,0V25A11,11,0,0,1,24,36ZM24,2A10,10,0,0,0,14,12V25a10,10,0,0,0,20,0V12A10,10,0,0,0,24,2Z"/><path d="M34.5,19h-7a0.5,0.5,0,0,1,0-1h7A0.5,0.5,0,0,1,34.5,19Z"/><path d="M34.5,24h-7a0.5,0.5,0,0,1,0-1h7A0.5,0.5,0,0,1,34.5,24Z"/><path d="M34.5,14h-7a0.5,0.5,0,0,1,0-1h7A0.5,0.5,0,0,1,34.5,14Z"/><rect width="48" height="48" fill="none"/></svg>