<svg xmlns="http://www.w3.org/2000/svg" viewBox="0 0 48 48"><title>ONE-xicons</title><path d="M17.92,48C12.18,48,7.5,44.17,7.5,39.45s4.68-8.55,10.42-8.55a12,12,0,0,1,6.25,1.7L24,0.5a0.5,0.5,0,0,1,.5-0.5h0a0.5,0.5,0,0,1,.5.5l0.18,44.41a0.51,0.51,0,0,1,0,.14L25,45.57a0.5,0.5,0,0,1-.18.26A11.8,11.8,0,0,1,17.92,48Zm0-16.09c-5.2,0-9.42,3.39-9.42,7.55S12.73,47,17.92,47a10.84,10.84,0,0,0,6.21-1.88l0.08-.29,0-11A10.82,10.82,0,0,0,17.92,31.91Z"/><path d="M36.86,13.9a2.19,2.19,0,0,1-.48-0.05L24.7,11.11a0.5,0.5,0,1,1,.23-1L36.6,12.87A1.15,1.15,0,0,0,38,12l1.49-6.27a1.07,1.07,0,0,0-.14-0.82,1.14,1.14,0,0,0-.73-0.51l-14-3.38a0.5,0.5,0,0,1,.24-1l14,3.38a2.13,2.13,0,0,1,1.35,1A2.06,2.06,0,0,1,40.44,6L39,12.27A2.15,2.15,0,0,1,36.86,13.9Z"/><rect width="48" height="48" fill="none"/></svg>