<svg xmlns="http://www.w3.org/2000/svg" viewBox="0 0 48 48"><title>ONE-xicons</title><path d="M18.93,15.21a0.5,0.5,0,0,1-.12-1L43.69,8.09a0.5,0.5,0,0,1,.24,1L19.05,15.2H18.93Z"/><path d="M12.76,47.58c-5.07,0-9.2-3.39-9.2-7.55s4.13-7.55,9.2-7.55a10.59,10.59,0,0,1,5.41,1.44L18.06,7.63a2.52,2.52,0,0,1,2-2.45l21.22-4.7a2.5,2.5,0,0,1,3,2.43l0.15,36.31a0.52,0.52,0,0,1,0,.14l-0.13.46a0.5,0.5,0,0,1-.18.26A10.41,10.41,0,0,1,38,42c-5.07,0-9.2-3.39-9.2-7.55s4.12-7.55,9.2-7.55a10.59,10.59,0,0,1,5.41,1.44L43.29,2.92a1.5,1.5,0,0,0-1.82-1.46L20.24,6.16a1.51,1.51,0,0,0-1.18,1.47L19.22,44.8a0.52,0.52,0,0,1,0,.14l-0.13.46a0.5,0.5,0,0,1-.18.26A10.4,10.4,0,0,1,12.76,47.58Zm0-14.1c-4.52,0-8.2,2.94-8.2,6.55s3.68,6.55,8.2,6.55A9.44,9.44,0,0,0,18.15,45l0.06-.22,0-9.62A9.43,9.43,0,0,0,12.76,33.48ZM38,27.89c-4.52,0-8.2,2.94-8.2,6.55S33.46,41,38,41a9.45,9.45,0,0,0,5.39-1.62l0.06-.22,0-9.62A9.43,9.43,0,0,0,38,27.89Z"/><rect width="48" height="48" fill="none"/></svg>