<svg xmlns="http://www.w3.org/2000/svg" viewBox="0 0 48 48"><title>ONE-xicons</title><path d="M18.5,44H5.5A2.5,2.5,0,0,1,3,41.5V6.5A2.5,2.5,0,0,1,5.5,4h13A2.5,2.5,0,0,1,21,6.5v35A2.5,2.5,0,0,1,18.5,44ZM5.5,5A1.5,1.5,0,0,0,4,6.5v35A1.5,1.5,0,0,0,5.5,43h13A1.5,1.5,0,0,0,20,41.5V6.5A1.5,1.5,0,0,0,18.5,5H5.5Z"/><path d="M42.5,44h-13A2.5,2.5,0,0,1,27,41.5V6.5A2.5,2.5,0,0,1,29.5,4h13A2.5,2.5,0,0,1,45,6.5v35A2.5,2.5,0,0,1,42.5,44ZM29.5,5A1.5,1.5,0,0,0,28,6.5v35A1.5,1.5,0,0,0,29.5,43h13A1.5,1.5,0,0,0,44,41.5V6.5A1.5,1.5,0,0,0,42.5,5h-13Z"/><rect width="48" height="48" fill="none"/></svg>