<svg xmlns="http://www.w3.org/2000/svg" viewBox="0 0 48 48"><title>ONE-xicons</title><path d="M42.21,36.75l-36.42,0a0.79,0.79,0,0,1-.7-0.42,0.77,0.77,0,0,1,0-.8L13.29,25a0.78,0.78,0,0,1,.63-0.32,0.85,0.85,0,0,1,.65.33l5.19,5.82,9.39-12.79a0.83,0.83,0,0,1,1.31,0L42.86,35.53h0a0.77,0.77,0,0,1,0,.79A0.79,0.79,0,0,1,42.21,36.75Zm-36-1,35.56,0-12-16.85L20.41,31.66a0.78,0.78,0,0,1-.63.33,0.8,0.8,0,0,1-.66-0.33l-5.19-5.83ZM19.6,31.07v0Zm0.29,0h0Zm-6.11-5.36h0Zm0.31,0,0,0Zm15.53-7h0Zm0.34,0v0Z"/><path d="M19,21.25h0a5,5,0,0,1,0-10h0A5,5,0,0,1,19,21.25Zm0-9a4,4,0,0,0,0,8h0a4,4,0,0,0,0-8h0Z"/><path d="M43.5,45H4.5A4.5,4.5,0,0,1,0,40.5V7.5A4.5,4.5,0,0,1,4.5,3h39A4.5,4.5,0,0,1,48,7.5v33A4.5,4.5,0,0,1,43.5,45ZM4.5,4A3.5,3.5,0,0,0,1,7.5v33A3.5,3.5,0,0,0,4.5,44h39A3.5,3.5,0,0,0,47,40.5V7.5A3.5,3.5,0,0,0,43.5,4H4.5Z"/><rect width="48" height="48" fill="none"/></svg>