<svg xmlns="http://www.w3.org/2000/svg" viewBox="0 0 48 48"><title>ONE-xicons</title><path d="M8,45a0.5,0.5,0,0,1-.5-0.5v-25a0.5,0.5,0,0,1,1,0v25A0.5,0.5,0,0,1,8,45Z"/><path d="M8,9a0.5,0.5,0,0,1-.5-0.5v-5a0.5,0.5,0,0,1,1,0v5A0.5,0.5,0,0,1,8,9Z"/><path d="M8,20a6,6,0,1,1,6-6A6,6,0,0,1,8,20ZM8,9a5,5,0,1,0,5,5A5,5,0,0,0,8,9Z"/><path d="M40,45a0.5,0.5,0,0,1-.5-0.5v-25a0.5,0.5,0,0,1,1,0v25A0.5,0.5,0,0,1,40,45Z"/><path d="M40,9a0.5,0.5,0,0,1-.5-0.5v-5a0.5,0.5,0,0,1,1,0v5A0.5,0.5,0,0,1,40,9Z"/><path d="M40,20a6,6,0,1,1,6-6A6,6,0,0,1,40,20ZM40,9a5,5,0,1,0,5,5A5,5,0,0,0,40,9Z"/><path d="M24,29a0.5,0.5,0,0,1-.5-0.5V3.5a0.5,0.5,0,0,1,1,0v25A0.5,0.5,0,0,1,24,29Z"/><path d="M24,45a0.5,0.5,0,0,1-.5-0.5v-5a0.5,0.5,0,0,1,1,0v5A0.5,0.5,0,0,1,24,45Z"/><path d="M24,40a6,6,0,1,1,6-6A6,6,0,0,1,24,40Zm0-11a5,5,0,1,0,5,5A5,5,0,0,0,24,29Z"/><rect width="48" height="48" fill="none"/></svg>