<svg xmlns="http://www.w3.org/2000/svg" viewBox="0 0 48 48"><title>ONE-xicons</title><path d="M46.5,24.5h-13a0.5,0.5,0,0,1,0-1h13A0.5,0.5,0,0,1,46.5,24.5Z"/><path d="M24.48,47.39a2.45,2.45,0,0,1-1.82-.81L8.77,31.5H7.5A7.5,7.5,0,0,1,0,23.77,7.71,7.71,0,0,1,7.79,16.5h1L22.66,1.43A2.5,2.5,0,0,1,27,3.12V44.88a2.45,2.45,0,0,1-1.59,2.33A2.56,2.56,0,0,1,24.48,47.39ZM7.79,17.5A6.7,6.7,0,0,0,1,23.8a6.5,6.5,0,0,0,6.5,6.7H9a0.5,0.5,0,0,1,.37.16l14,15.23a1.5,1.5,0,0,0,2.6-1V3.12a1.5,1.5,0,0,0-2.6-1l-14,15.23A0.5,0.5,0,0,1,9,17.5H7.79Z"/><rect width="48" height="48" fill="none"/></svg>