<svg xmlns="http://www.w3.org/2000/svg" viewBox="0 0 48 48"><title>ONE-xicons</title><path d="M47.5,48a0.5,0.5,0,0,1-.35-0.15L33.25,34A0.5,0.5,0,0,1,34,33.25L47.85,47.15A0.5,0.5,0,0,1,47.5,48Z"/><path d="M19.89,39.79A19.89,19.89,0,1,1,39.79,19.89,19.92,19.92,0,0,1,19.89,39.79ZM19.89,1A18.89,18.89,0,1,0,38.79,19.89,18.92,18.92,0,0,0,19.89,1Z"/><path d="M19.89,26.89a0.5,0.5,0,0,1-.5-0.5v-13a0.5,0.5,0,0,1,1,0v13A0.5,0.5,0,0,1,19.89,26.89Z"/><path d="M26.39,20.39h-13a0.5,0.5,0,1,1,0-1h13A0.5,0.5,0,0,1,26.39,20.39Z"/><rect width="48" height="48" fill="none"/></svg>