<svg xmlns="http://www.w3.org/2000/svg" viewBox="0 0 48 48"><title>ONE-xicons</title><path d="M3,43.62a2.5,2.5,0,0,1-2.5-2.5V6.88a2.5,2.5,0,0,1,4-2L28.49,22a2.5,2.5,0,0,1,0,4.07L4.44,43.16A2.49,2.49,0,0,1,3,43.62ZM3,5.37a1.51,1.51,0,0,0-.69.17,1.48,1.48,0,0,0-.81,1.33V41.12a1.5,1.5,0,0,0,2.37,1.22L27.91,25.22a1.5,1.5,0,0,0,0-2.44L3.86,5.66A1.49,1.49,0,0,0,3,5.37Z"/><path d="M21,43.62a2.5,2.5,0,0,1-2.5-2.5V32.2a0.5,0.5,0,0,1,1,0v8.92a1.5,1.5,0,0,0,2.37,1.22L45.88,25.22a1.5,1.5,0,0,0,0-2.44L21.83,5.66a1.5,1.5,0,0,0-2.37,1.22V15.8a0.5,0.5,0,1,1-1,0V6.88a2.5,2.5,0,0,1,3.95-2L46.46,22a2.5,2.5,0,0,1,0,4.07L22.41,43.16A2.49,2.49,0,0,1,21,43.62Z"/><rect width="48" height="48" fill="none"/></svg>