<svg xmlns="http://www.w3.org/2000/svg" viewBox="0 0 48 48"><title>ONE-xicons</title><path d="M0.5,42.5A0.5,0.5,0,0,1,0,42V3A0.5,0.5,0,0,1,1,3V42A0.5,0.5,0,0,1,.5,42.5Z"/><path d="M18.5,42.5A0.5,0.5,0,0,1,18,42V3a0.5,0.5,0,0,1,1,0V42A0.5,0.5,0,0,1,18.5,42.5Z"/><rect y="22" width="18" height="1"/><path d="M30.26,42a6.85,6.85,0,0,1-2-.19A0.51,0.51,0,0,1,28,41.37V2.58a0.5,0.5,0,0,1,.44-0.5c0.31,0,7.8-.94,13.48,4,4,3.47,6,8.92,6.08,16.19,0.06,8.25-2.67,14.05-8.12,17.24A19.71,19.71,0,0,1,30.26,42ZM29,41c1.59,0.17,7.48.16,12-3.41,4-3.17,6-8.3,6-15.24S45,10.13,41.26,6.85C36.67,2.85,30.66,2.93,29,3V41Z"/><rect width="48" height="48" fill="none"/></svg>