<svg xmlns="http://www.w3.org/2000/svg" viewBox="0 0 48 48"><title>ONE-xicons</title><path d="M41.75,44.19A0.5,0.5,0,0,1,41.38,44L5.89,6.26a0.5,0.5,0,1,1,.73-0.68L42.11,43.35A0.5,0.5,0,0,1,41.75,44.19Z"/><path d="M33.89,29.51a0.5,0.5,0,0,1-.5-0.5V3.12a1.5,1.5,0,0,0-2.6-1L21,12.76a0.5,0.5,0,1,1-.73-0.68L30.05,1.43a2.5,2.5,0,0,1,4.34,1.69V29A0.5,0.5,0,0,1,33.89,29.51Z"/><path d="M31.87,47.39a2.45,2.45,0,0,1-1.82-.81L16.16,31.5H14.89a7.5,7.5,0,0,1-7.5-7.73,7.71,7.71,0,0,1,7.79-7.27h1.19a0.5,0.5,0,0,1,0,1H15.18a6.7,6.7,0,0,0-6.79,6.3,6.5,6.5,0,0,0,6.5,6.7h1.49a0.5,0.5,0,0,1,.37.16l14,15.23a1.5,1.5,0,0,0,2.6-1V35.33a0.5,0.5,0,0,1,1,0v9.55a2.45,2.45,0,0,1-1.59,2.33A2.56,2.56,0,0,1,31.87,47.39Z"/><rect width="48" height="48" fill="none"/></svg>