<svg xmlns="http://www.w3.org/2000/svg" viewBox="0 0 48 48"><title>ONE-xicons</title><path d="M42.15,41.24H5.85a2.58,2.58,0,0,1-2.1-1.05,2.52,2.52,0,0,1-.39-2.26L12,20.82a26.45,26.45,0,0,0,1.11-4.64C14.15,9,18,5.07,24,5.07S33.85,9,34.86,16.18A26.12,26.12,0,0,0,36,20.85l8.61,17a2.54,2.54,0,0,1-.35,2.34A2.58,2.58,0,0,1,42.15,41.24ZM24,6.07c-7.33,0-9.33,6.42-9.87,10.25a27.25,27.25,0,0,1-1.18,4.88L4.29,38.29a1.53,1.53,0,0,0,.27,1.3,1.59,1.59,0,0,0,1.29.65h36.3a1.59,1.59,0,0,0,1.29-.65,1.53,1.53,0,0,0,.24-1.37l-8.6-16.94,0-.07a27.21,27.21,0,0,1-1.18-4.88C33.33,12.49,31.33,6.07,24,6.07Z"/><path d="M24,48a7,7,0,0,1-7-7,0.5,0.5,0,0,1,1,0,6,6,0,0,0,12,0,0.5,0.5,0,0,1,1,0A7,7,0,0,1,24,48Z"/><path d="M19.74,6.94a0.5,0.5,0,0,1-.47-0.34,5,5,0,1,1,9.51-.12,0.5,0.5,0,0,1-1-.3,4,4,0,1,0-7.61.09,0.5,0.5,0,0,1-.31.63Z"/><rect width="48" height="48" fill="none"/></svg>