<svg xmlns="http://www.w3.org/2000/svg" viewBox="0 0 48 48"><title>ONE-xicons</title><path d="M23.5,43H4.5A4.5,4.5,0,0,1,0,38.5v-15A4.5,4.5,0,0,1,4.5,19h19A4.5,4.5,0,0,1,28,23.5v15A4.5,4.5,0,0,1,23.5,43ZM4.5,20A3.5,3.5,0,0,0,1,23.5v15A3.5,3.5,0,0,0,4.5,42h19A3.5,3.5,0,0,0,27,38.5v-15A3.5,3.5,0,0,0,23.5,20H4.5Z"/><path d="M24.34,38H3.67a0.66,0.66,0,0,1-.55-1l4.62-6.12a0.65,0.65,0,0,1,.53-0.27h0a0.66,0.66,0,0,1,.54.28L11.57,34l5.16-7.24a0.7,0.7,0,0,1,1.1,0l7.06,10.16h0A0.66,0.66,0,0,1,24.34,38Zm-20-1H23.7l-6.43-9.25-5.13,7.2a0.65,0.65,0,0,1-.53.29,0.67,0.67,0,0,1-.55-0.28L8.29,31.74Zm7-2.63,0,0Zm0.49-.05,0,0ZM8,31.44l0,0Zm0.52,0,0,0ZM17,27.33v0Zm0.56,0,0,0Z"/><path d="M11,29.72A2.75,2.75,0,1,1,13.75,27,2.75,2.75,0,0,1,11,29.72Zm0-4.5A1.75,1.75,0,1,0,12.75,27,1.75,1.75,0,0,0,11,25.22Z"/><path d="M43.5,43H43.36a0.5,0.5,0,0,1,0-1H43.5a3.51,3.51,0,0,0,2.29-.86,0.5,0.5,0,1,1,.65.76A4.51,4.51,0,0,1,43.5,43Zm-4.14,0h-3a0.5,0.5,0,0,1,0-1h3A0.5,0.5,0,0,1,39.36,43Zm-7,0h-3a0.5,0.5,0,1,1,0-1h3A0.5,0.5,0,0,1,32.36,43Zm-7,0H23.92a0.5,0.5,0,0,1,0-1h1.44A0.5,0.5,0,0,1,25.36,43ZM47.5,38.43a0.5,0.5,0,0,1-.5-0.5v-3a0.5,0.5,0,0,1,1,0v3A0.5,0.5,0,0,1,47.5,38.43Zm0-7a0.5,0.5,0,0,1-.5-0.5v-3a0.5,0.5,0,0,1,1,0v3A0.5,0.5,0,0,1,47.5,31.43Zm0-7a0.5,0.5,0,0,1-.5-0.5v-3a0.5,0.5,0,0,1,1,0v3A0.5,0.5,0,0,1,47.5,24.43ZM0.5,24A0.5,0.5,0,0,1,0,23.5v-3a0.5,0.5,0,0,1,1,0v3A0.5,0.5,0,0,1,.5,24Zm47-6.57a0.5,0.5,0,0,1-.5-0.5v-3a0.5,0.5,0,0,1,1,0v3A0.5,0.5,0,0,1,47.5,17.43ZM0.5,17A0.5,0.5,0,0,1,0,16.5v-3a0.5,0.5,0,0,1,1,0v3A0.5,0.5,0,0,1,.5,17Zm47-6.57a0.5,0.5,0,0,1-.5-0.5V9.5a3.46,3.46,0,0,0-.7-2.1,0.5,0.5,0,1,1,.8-0.6A4.45,4.45,0,0,1,48,9.5V9.93A0.5,0.5,0,0,1,47.5,10.43ZM0.5,10A0.5,0.5,0,0,1,0,9.5,4.49,4.49,0,0,1,1.21,6.43a0.5,0.5,0,0,1,.73.68A3.49,3.49,0,0,0,1,9.5,0.5,0.5,0,0,1,.5,10ZM43.21,6h-3a0.5,0.5,0,0,1,0-1h3A0.5,0.5,0,0,1,43.21,6Zm-7,0h-3a0.5,0.5,0,0,1,0-1h3A0.5,0.5,0,0,1,36.21,6Zm-7,0h-3a0.5,0.5,0,0,1,0-1h3A0.5,0.5,0,0,1,29.21,6Zm-7,0h-3a0.5,0.5,0,0,1,0-1h3A0.5,0.5,0,0,1,22.21,6Zm-7,0h-3a0.5,0.5,0,0,1,0-1h3A0.5,0.5,0,0,1,15.21,6Zm-7,0h-3a0.5,0.5,0,0,1,0-1h3A0.5,0.5,0,0,1,8.21,6Z"/><rect width="48" height="48" fill="none"/></svg>