<svg xmlns="http://www.w3.org/2000/svg" viewBox="0 0 48 48"><title>ONE-xicons</title><path d="M43.5,37h-33A4.5,4.5,0,0,1,6,32.5V7.5A4.5,4.5,0,0,1,10.5,3h33A4.5,4.5,0,0,1,48,7.5v25A4.5,4.5,0,0,1,43.5,37ZM10.5,4A3.5,3.5,0,0,0,7,7.5v25A3.5,3.5,0,0,0,10.5,36h33A3.5,3.5,0,0,0,47,32.5V7.5A3.5,3.5,0,0,0,43.5,4h-33Z"/><path d="M40.52,28.25H12a0.72,0.72,0,0,1-.65-0.39,0.71,0.71,0,0,1,0-.74L17.76,19a0.73,0.73,0,0,1,1.17,0l4,4.42,7.27-9.86a0.77,0.77,0,0,1,1.2,0l9.75,13.55h0a0.71,0.71,0,0,1,0,.73A0.72,0.72,0,0,1,40.52,28.25Zm-28-1H40L30.76,14.44l-7.25,9.82a0.72,0.72,0,0,1-.58.3,0.79,0.79,0,0,1-.6-0.3l-4-4.43Zm10.17-3.58,0,0Zm0.38,0,0,0Zm-4.94-4v0Zm0.41,0,0,0Zm12-5.43h0Zm0.44,0,0,0Z"/><path d="M23,16a3,3,0,1,1,3-3A3,3,0,0,1,23,16Zm0-5a2,2,0,1,0,2,2A2,2,0,0,0,23,11Z"/><path d="M42,44.5H5A4.5,4.5,0,0,1,.5,40V11a0.5,0.5,0,0,1,1,0V40A3.5,3.5,0,0,0,5,43.5H42A0.5,0.5,0,0,1,42,44.5Z"/><rect width="48" height="48" fill="none"/></svg>