<svg xmlns="http://www.w3.org/2000/svg" viewBox="0 0 48 48"><title>ONE-xicons</title><path d="M41.2,47H6.8a2.5,2.5,0,0,1-2.5-2.5V3.5A2.5,2.5,0,0,1,6.8,1h24a2.51,2.51,0,0,1,1.85.82L43,13.26a2.5,2.5,0,0,1,.65,1.68V44.5A2.5,2.5,0,0,1,41.2,47ZM6.8,2A1.5,1.5,0,0,0,5.3,3.5v41A1.5,1.5,0,0,0,6.8,46H41.2a1.5,1.5,0,0,0,1.5-1.5V14.95a1.49,1.49,0,0,0-.39-1L31.88,2.49A1.5,1.5,0,0,0,30.78,2H6.8Z"/><path d="M34,46.5H33v-15A3.5,3.5,0,0,0,29.5,28h-11A3.5,3.5,0,0,0,15,31.5v15H14v-15A4.5,4.5,0,0,1,18.5,27h11A4.5,4.5,0,0,1,34,31.5v15Z"/><path d="M11,9.5A0.5,0.5,0,0,1,10.5,9V2a0.5,0.5,0,0,1,1,0V9A0.5,0.5,0,0,1,11,9.5Z"/><path d="M17,9.5A0.5,0.5,0,0,1,16.5,9V2a0.5,0.5,0,0,1,1,0V9A0.5,0.5,0,0,1,17,9.5Z"/><path d="M23,9.5A0.5,0.5,0,0,1,22.5,9V2a0.5,0.5,0,0,1,1,0V9A0.5,0.5,0,0,1,23,9.5Z"/><path d="M29,9.5A0.5,0.5,0,0,1,28.5,9V2a0.5,0.5,0,0,1,1,0V9A0.5,0.5,0,0,1,29,9.5Z"/><rect width="48" height="48" fill="none"/></svg>