<svg xmlns="http://www.w3.org/2000/svg" viewBox="0 0 48 48"><title>ONE-xicons</title><path d="M1.8,42H1.75a0.5,0.5,0,0,1-.44-0.42A21.78,21.78,0,0,1,1,38C1,25.61,11.52,15.46,24.54,15.21V7.71a1.63,1.63,0,0,1,.88-1.46,1.69,1.69,0,0,1,1.74.09l19.12,14a1.64,1.64,0,0,1,0,2.73l-19.08,14a1.69,1.69,0,0,1-1.76.1,1.63,1.63,0,0,1-.88-1.46V28.79c-10.63.15-19.14,5-22.28,12.84A0.5,0.5,0,0,1,1.8,42ZM26.23,7a0.7,0.7,0,0,0-.33.08,0.64,0.64,0,0,0-.35.57v8a0.5,0.5,0,0,1-.5.5C12.34,16.2,2,26,2,38c0,0.52,0,1.05.08,1.61,3.82-7.37,12.43-11.87,23-11.87a0.5,0.5,0,0,1,.5.5V35.7a0.64,0.64,0,0,0,.35.57,0.69,0.69,0,0,0,.71,0l19.08-14A0.65,0.65,0,0,0,46,21.7a0.64,0.64,0,0,0-.29-0.54l-19.12-14A0.65,0.65,0,0,0,26.23,7Z"/><rect width="48" height="48" fill="none"/></svg>