<svg xmlns="http://www.w3.org/2000/svg" viewBox="0 0 48 48"><title>ONE-xicons</title><path d="M6.59,37.44H0.5a0.5,0.5,0,0,1,0-1H6.59a11.48,11.48,0,0,0,8.76-4.05L30.09,15a12.49,12.49,0,0,1,9.38-4.41l7.21-.08a0.52,0.52,0,0,1,.51.49,0.5,0.5,0,0,1-.49.51l-7.21.08a11.49,11.49,0,0,0-8.63,4.05L16.12,33A12.48,12.48,0,0,1,6.59,37.44Z"/><path d="M41.88,18.62a0.5,0.5,0,0,1-.39-0.81l5.62-7.06a0.5,0.5,0,0,1,.78.62l-5.62,7.06A0.5,0.5,0,0,1,41.88,18.62Z"/><path d="M47.5,11.56a0.5,0.5,0,0,1-.39-0.19L41.49,4.31a0.5,0.5,0,0,1,.78-0.62l5.62,7.06A0.5,0.5,0,0,1,47.5,11.56Z"/><path d="M41.71,44.5a0.5,0.5,0,0,1-.39-0.81l5.62-7.06a0.5,0.5,0,0,1,.78.62L42.1,44.31A0.5,0.5,0,0,1,41.71,44.5Z"/><path d="M47.32,37.44a0.5,0.5,0,0,1-.39-0.19l-5.62-7.06a0.5,0.5,0,0,1,.78-0.62l5.62,7.06A0.5,0.5,0,0,1,47.32,37.44Z"/><path d="M46.5,37.44h-7a12.46,12.46,0,0,1-9.66-4.57l-14-17.11a11.46,11.46,0,0,0-8.89-4.2H1a0.5,0.5,0,0,1,0-1h6a12.46,12.46,0,0,1,9.66,4.57l14,17.11a11.46,11.46,0,0,0,8.89,4.2h7A0.5,0.5,0,0,1,46.5,37.44Z"/><rect width="48" height="48" fill="none"/></svg>