<svg xmlns="http://www.w3.org/2000/svg" viewBox="0 0 48 48"><title>ONE-xicons</title><path d="M30.23,47.39a2.46,2.46,0,0,1-1.82-.81L14.52,31.5H13.25a7.5,7.5,0,0,1-7.5-7.73,7.71,7.71,0,0,1,7.79-7.27h1L28.41,1.43a2.5,2.5,0,0,1,4.34,1.69V44.88a2.45,2.45,0,0,1-1.59,2.33A2.55,2.55,0,0,1,30.23,47.39ZM13.54,17.5a6.7,6.7,0,0,0-6.79,6.3,6.5,6.5,0,0,0,6.5,6.7h1.49a0.5,0.5,0,0,1,.37.16l14,15.23a1.5,1.5,0,0,0,2.6-1V3.12a1.5,1.5,0,0,0-2.6-1l-14,15.23a0.5,0.5,0,0,1-.37.16H13.54Z"/><path d="M37.75,28.5a0.5,0.5,0,0,1,0-1,3.5,3.5,0,0,0,0-7,0.5,0.5,0,0,1,0-1A4.5,4.5,0,0,1,37.75,28.5Z"/><rect width="48" height="48" fill="none"/></svg>