<svg xmlns="http://www.w3.org/2000/svg" viewBox="0 0 48 48"><title>ONE-xicons</title><path d="M45,44.1a2.49,2.49,0,0,1-1.45-.46L19.52,26.51a2.5,2.5,0,0,1,0-4.07L43.58,5.32a2.5,2.5,0,0,1,3.95,2V41.6A2.5,2.5,0,0,1,45,44.1ZM45,5.85a1.49,1.49,0,0,0-.87.28L20.1,23.25a1.5,1.5,0,0,0,0,2.44L44.16,42.82a1.5,1.5,0,0,0,2.37-1.22V7.35A1.48,1.48,0,0,0,45.71,6,1.51,1.51,0,0,0,45,5.85Z"/><path d="M27,44.1a2.5,2.5,0,0,1-1.45-.46L1.55,26.51a2.5,2.5,0,0,1,0-4.07L25.6,5.32a2.5,2.5,0,0,1,4,2v8.92a0.5,0.5,0,0,1-1,0V7.35a1.5,1.5,0,0,0-2.37-1.22L2.13,23.25a1.5,1.5,0,0,0,0,2.44L26.18,42.82a1.5,1.5,0,0,0,2.37-1.22V32.68a0.5,0.5,0,0,1,1,0V41.6A2.5,2.5,0,0,1,27,44.1Z"/><rect width="48" height="48" fill="none"/></svg>