<svg xmlns="http://www.w3.org/2000/svg" viewBox="0 0 48 48"><title>ONE-xicons</title><path d="M24,38.5A12.5,12.5,0,1,1,36.5,26,12.51,12.51,0,0,1,24,38.5Zm0-24A11.5,11.5,0,1,0,35.5,26,11.51,11.51,0,0,0,24,14.5Z"/><path d="M24,34a8,8,0,1,1,8-8A8,8,0,0,1,24,34Zm0-15a7,7,0,1,0,7,7A7,7,0,0,0,24,19Z"/><path d="M43.5,44H4.5A4.5,4.5,0,0,1,0,39.5v-27A4.5,4.5,0,0,1,4.5,8h9.73l3.26-4.89A2.49,2.49,0,0,1,19.57,2h8.86a2.49,2.49,0,0,1,2.08,1.11L33.77,8H43.5A4.5,4.5,0,0,1,48,12.5v27A4.5,4.5,0,0,1,43.5,44ZM4.5,9A3.5,3.5,0,0,0,1,12.5v27A3.5,3.5,0,0,0,4.5,43h39A3.5,3.5,0,0,0,47,39.5v-27A3.5,3.5,0,0,0,43.5,9H33.23L29.68,3.67A1.5,1.5,0,0,0,28.43,3H19.57a1.5,1.5,0,0,0-1.25.67L14.77,9H4.5Z"/><path d="M41.5,16h-3a0.5,0.5,0,0,1,0-1h3A0.5,0.5,0,0,1,41.5,16Z"/><rect width="48" height="48" fill="none"/></svg>