<svg xmlns="http://www.w3.org/2000/svg" viewBox="0 0 48 48"><title>ONE-xicons</title><path d="M46.5,40a0.49,0.49,0,0,1-.18,0C41.51,38.1,33.58,37.07,24,37.07S6.49,38.1,1.68,40a0.49,0.49,0,0,1-.46-0.05A0.5,0.5,0,0,1,1,39.5V8.5a0.5,0.5,0,0,1,.22-0.41A0.49,0.49,0,0,1,1.68,8C6.49,9.9,14.42,10.93,24,10.93S41.51,9.9,46.32,8a0.49,0.49,0,0,1,.46.05A0.5,0.5,0,0,1,47,8.5v31a0.5,0.5,0,0,1-.22.41A0.49,0.49,0,0,1,46.5,40ZM24,36.07c9.27,0,17,1,22,2.71V9.22C41,11,33.27,11.93,24,11.93S7,11,2,9.22V38.78C7,37,14.73,36.07,24,36.07Z"/><path d="M38.54,33H9.46a0.73,0.73,0,0,1-.65-0.39,0.71,0.71,0,0,1,0-.74l6.5-8.2a0.71,0.71,0,0,1,.57-0.29,0.72,0.72,0,0,1,.6.3l4.06,4.46L28,18.17a0.77,0.77,0,0,1,1.2,0l9.92,13.64h0a0.71,0.71,0,0,1,0,.73A0.73,0.73,0,0,1,38.54,33ZM10,32H38L28.6,19l-7.39,9.9a0.72,0.72,0,0,1-.58.3A0.81,0.81,0,0,1,20,29L16,24.48Zm10.37-3.61,0,0Zm0.37,0v0Zm-5-4v0Zm0.4,0,0,0Zm12.22-5.46h0Zm0.43,0,0,0Z"/><path d="M21,21a3,3,0,1,1,3-3A3,3,0,0,1,21,21Zm0-5a2,2,0,1,0,2,2A2,2,0,0,0,21,16Z"/><rect width="48" height="48" fill="none"/></svg>