<svg xmlns="http://www.w3.org/2000/svg" viewBox="0 0 48 48"><title>ONE-xicons</title><path d="M24,45.73A23.34,23.34,0,0,1,7.81,39.35,21.47,21.47,0,0,1,1,23.77,22.21,22.21,0,0,1,16,3a0.5,0.5,0,0,1,.34.94A21.21,21.21,0,0,0,2,23.77,20.49,20.49,0,0,0,8.5,38.63,22.35,22.35,0,0,0,24,44.73h0.11c12.13-.05,22-9.55,21.91-21.16A21.18,21.18,0,0,0,31.25,3.77a0.5,0.5,0,1,1,.32-0.95A22.18,22.18,0,0,1,47,23.56c0.05,12.17-10.22,22.11-22.9,22.17H24Z"/><path d="M24,16.27a0.5,0.5,0,0,1-.5-0.5v-13a0.5,0.5,0,0,1,1,0v13A0.5,0.5,0,0,1,24,16.27Z"/><rect width="48" height="48" fill="none"/></svg>