<svg xmlns="http://www.w3.org/2000/svg" viewBox="0 0 48 48"><title>ONE-xicons</title><path d="M27.48,47.39a2.46,2.46,0,0,1-1.82-.81L11.77,31.5H10.5A7.5,7.5,0,0,1,3,23.77a7.71,7.71,0,0,1,7.79-7.27h1L25.66,1.43A2.5,2.5,0,0,1,30,3.12V44.88a2.45,2.45,0,0,1-1.59,2.33A2.55,2.55,0,0,1,27.48,47.39ZM10.79,17.5A6.7,6.7,0,0,0,4,23.8a6.5,6.5,0,0,0,6.5,6.7H12a0.5,0.5,0,0,1,.37.16l14,15.23a1.5,1.5,0,0,0,2.6-1V3.12a1.5,1.5,0,0,0-2.6-1l-14,15.23a0.5,0.5,0,0,1-.37.16H10.79Z"/><path d="M35,34a0.5,0.5,0,0,1,0-1,9,9,0,0,0,0-18,0.5,0.5,0,0,1,0-1A10,10,0,0,1,35,34Z"/><path d="M35,28.5a0.5,0.5,0,0,1,0-1,3.5,3.5,0,0,0,0-7,0.5,0.5,0,0,1,0-1A4.5,4.5,0,0,1,35,28.5Z"/><rect width="48" height="48" fill="none"/></svg>