<svg xmlns="http://www.w3.org/2000/svg" viewBox="0 0 48 48"><title>ONE-xicons</title><path d="M35,47.39a2.46,2.46,0,0,1-1.82-.81L19.27,31.5H18a7.5,7.5,0,0,1-7.5-7.73,7.71,7.71,0,0,1,7.79-7.27h1L33.16,1.43A2.5,2.5,0,0,1,37.5,3.12V44.88a2.45,2.45,0,0,1-1.59,2.33A2.55,2.55,0,0,1,35,47.39ZM18.29,17.5a6.7,6.7,0,0,0-6.79,6.3A6.5,6.5,0,0,0,18,30.5h1.49a0.5,0.5,0,0,1,.37.16l14,15.23a1.5,1.5,0,0,0,2.6-1V3.12a1.5,1.5,0,0,0-2.6-1l-14,15.23a0.5,0.5,0,0,1-.37.16H18.29Z"/><rect width="48" height="48" fill="none"/></svg>