<svg xmlns="http://www.w3.org/2000/svg" viewBox="0 0 48 48"><title>ONE-xicons</title><path d="M24,27.5A3.5,3.5,0,1,1,27.5,24,3.5,3.5,0,0,1,24,27.5Zm0-6A2.5,2.5,0,1,0,26.5,24,2.5,2.5,0,0,0,24,21.5Z"/><path d="M24,11a3.5,3.5,0,1,1,3.5-3.5A3.5,3.5,0,0,1,24,11Zm0-6a2.5,2.5,0,1,0,2.5,2.5A2.5,2.5,0,0,0,24,5Z"/><path d="M24,44a3.5,3.5,0,1,1,3.5-3.5A3.5,3.5,0,0,1,24,44Zm0-6a2.5,2.5,0,1,0,2.5,2.5A2.5,2.5,0,0,0,24,38Z"/><path d="M40.5,27.5A3.5,3.5,0,1,1,44,24,3.5,3.5,0,0,1,40.5,27.5Zm0-6A2.5,2.5,0,1,0,43,24,2.5,2.5,0,0,0,40.5,21.5Z"/><path d="M7.5,27.5A3.5,3.5,0,1,1,11,24,3.5,3.5,0,0,1,7.5,27.5Zm0-6A2.5,2.5,0,1,0,10,24,2.5,2.5,0,0,0,7.5,21.5Z"/><path d="M1.5,13A0.5,0.5,0,0,1,1,12.5v-9A2.5,2.5,0,0,1,3.5,1h9a0.5,0.5,0,0,1,0,1h-9A1.5,1.5,0,0,0,2,3.5v9A0.5,0.5,0,0,1,1.5,13Z"/><path d="M46.5,13a0.5,0.5,0,0,1-.5-0.5v-9A1.5,1.5,0,0,0,44.5,2h-9a0.5,0.5,0,0,1,0-1h9A2.5,2.5,0,0,1,47,3.5v9A0.5,0.5,0,0,1,46.5,13Z"/><path d="M12.5,47h-9A2.5,2.5,0,0,1,1,44.5v-9a0.5,0.5,0,0,1,1,0v9A1.5,1.5,0,0,0,3.5,46h9A0.5,0.5,0,0,1,12.5,47Z"/><path d="M44.5,47h-9a0.5,0.5,0,0,1,0-1h9A1.5,1.5,0,0,0,46,44.5v-9a0.5,0.5,0,0,1,1,0v9A2.5,2.5,0,0,1,44.5,47Z"/><rect width="48" height="48" fill="none"/></svg>