<svg xmlns="http://www.w3.org/2000/svg" viewBox="0 0 48 48"><title>ONE-xicons</title><path d="M34.78,38.5H13.22A1.24,1.24,0,0,1,12,37.24v-5C12,28,17.38,24.5,24,24.5S36,28,36,32.26v5A1.24,1.24,0,0,1,34.78,38.5ZM24,25.5c-6.07,0-11,3-11,6.76v5a0.25,0.25,0,0,0,.22.26H34.78A0.25,0.25,0,0,0,35,37.24v-5C35,28.53,30.07,25.5,24,25.5Z"/><path d="M24,22.5a6,6,0,1,1,6-6A6,6,0,0,1,24,22.5Zm0-11a5,5,0,1,0,5,5A5,5,0,0,0,24,11.5Z"/><path d="M43.5,45H4.5A4.5,4.5,0,0,1,0,40.5V7.5A4.5,4.5,0,0,1,4.5,3h39A4.5,4.5,0,0,1,48,7.5v33A4.5,4.5,0,0,1,43.5,45ZM4.5,4A3.5,3.5,0,0,0,1,7.5v33A3.5,3.5,0,0,0,4.5,44h39A3.5,3.5,0,0,0,47,40.5V7.5A3.5,3.5,0,0,0,43.5,4H4.5Z"/><rect width="48" height="48" fill="none"/></svg>