<?xml version="1.0" encoding="utf-8"?>
<!-- Generator: Adobe Illustrator 15.1.0, SVG Export Plug-In . SVG Version: 6.00 Build 0)  -->
<svg version="1.2" baseProfile="tiny" id="Layer_1" xmlns="http://www.w3.org/2000/svg" xmlns:xlink="http://www.w3.org/1999/xlink"
	 x="0px" y="0px" width="946px" height="447px" viewBox="0 0 946 447" overflow="inherit" xml:space="preserve">
<polyline fill="#F4E237" stroke="#E2AB25" stroke-width="3" stroke-linecap="square" stroke-miterlimit="3.25" points="
	83.025,345.875 855.924,345.875 855.912,345.875 855.902,345.875 855.9,345.875 855.887,345.875 855.875,345.875 855.867,345.875 
	855.857,345.875 855.828,345.875 855.812,345.875 855.807,345.875 855.795,345.875 855.732,345.875 855.703,345.875 
	855.693,345.875 855.678,345.875 855.674,345.875 855.553,345.875 855.484,345.875 855.455,345.875 855.443,345.875 
	855.438,345.875 855.424,345.875 853.365,345.875 852.334,345.875 851.814,345.875 851.561,345.875 851.297,345.875 
	850.271,345.875 849.756,345.875 849.492,345.875 849.236,345.875 848.205,345.875 847.688,345.875 847.432,345.875 
	847.172,345.875 845.111,345.875 844.078,345.875 843.564,345.875 843.307,345.875 843.045,345.875 842.018,345.875 841.5,345.875 
	841.246,345.875 840.986,345.875 839.959,345.875 839.441,345.875 839.18,345.875 838.924,345.875 837.018,345.875 836.066,345.875 
	835.592,345.875 835.354,345.875 835.111,345.875 833.209,345.867 832.258,345.867 831.783,345.867 831.547,345.867 
	831.309,345.867 829.406,345.867 828.451,345.867 827.979,345.867 827.736,345.867 827.506,345.867 825.598,345.867 
	824.648,345.867 824.17,345.867 823.932,345.867 823.691,345.867 821.652,345.867 820.639,345.867 820.125,345.867 819.873,345.867 
	819.617,345.867 817.574,345.867 816.553,345.867 816.043,345.867 815.789,345.867 815.533,345.867 813.496,345.861 
	812.475,345.861 811.967,345.861 811.711,345.861 811.453,345.861 809.418,345.861 808.398,345.861 807.887,345.861 
	807.635,345.861 807.375,345.861 805.5,345.854 804.559,345.854 804.09,345.854 803.852,345.854 803.615,345.854 801.734,345.854 
	800.803,345.854 800.326,345.854 800.092,345.854 799.85,345.854 797.975,345.85 797.039,345.85 796.564,345.85 796.332,345.85 
	796.098,345.85 794.219,345.842 793.277,345.842 792.809,345.842 792.57,345.842 792.334,345.842 790.42,345.836 789.461,345.836 
	788.979,345.836 788.744,345.836 788.5,345.836 786.586,345.83 785.627,345.83 785.145,345.824 784.904,345.824 784.664,345.824 
	782.746,345.816 781.789,345.816 781.311,345.816 781.066,345.816 780.83,345.812 778.912,345.807 777.947,345.807 777.477,345.807 
	777.232,345.801 776.996,345.801 774.943,345.795 773.912,345.787 773.396,345.787 773.143,345.781 772.887,345.781 
	770.826,345.777 769.805,345.77 769.289,345.764 769.035,345.764 768.779,345.764 766.723,345.752 765.697,345.744 765.182,345.74 
	764.926,345.74 764.668,345.74 762.615,345.729 761.59,345.715 761.074,345.715 760.816,345.709 760.562,345.709 758.668,345.697 
	757.719,345.686 757.244,345.68 757.008,345.68 756.77,345.68 754.875,345.66 753.932,345.648 753.451,345.643 753.221,345.635 
	752.982,345.635 751.09,345.611 750.141,345.6 749.666,345.6 749.428,345.594 749.199,345.594 747.299,345.562 746.355,345.551 
	745.879,345.545 745.643,345.539 745.404,345.539 741.346,345.467 739.309,345.432 738.303,345.41 737.789,345.398 737.533,345.387 
	737.279,345.387 735.25,345.338 734.234,345.312 733.725,345.303 733.471,345.295 733.221,345.289 731.191,345.232 730.174,345.205 
	729.664,345.191 729.406,345.182 729.154,345.176 725.02,345.039 722.949,344.963 721.918,344.92 721.4,344.9 721.137,344.887 
	720.885,344.883 718.816,344.789 717.777,344.738 717.262,344.717 717.004,344.705 716.746,344.693 714.68,344.586 713.645,344.531 
	713.123,344.506 712.867,344.488 712.607,344.469 708.787,344.24 706.883,344.111 705.926,344.047 705.451,344.006 705.209,343.988 
	704.973,343.969 703.064,343.824 702.109,343.748 701.635,343.703 701.393,343.686 701.156,343.666 699.248,343.496 
	698.293,343.404 697.814,343.363 697.574,343.34 697.34,343.314 693.25,342.887 691.201,342.652 690.182,342.531 689.662,342.463 
	689.408,342.436 689.154,342.396 687.109,342.131 686.09,341.99 685.578,341.916 685.326,341.881 685.07,341.844 683.021,341.535 
	682,341.369 681.484,341.291 681.229,341.248 680.973,341.207 677.203,340.551 675.318,340.184 674.373,340.002 673.904,339.906 
	673.668,339.857 673.432,339.809 669.664,338.982 667.779,338.537 666.83,338.307 666.361,338.186 666.125,338.123 665.889,338.064 
	662.041,337.025 660.121,336.461 659.162,336.168 658.674,336.016 658.438,335.941 658.199,335.869 654.352,334.586 
	652.428,333.902 651.467,333.541 650.984,333.359 650.744,333.268 650.5,333.176 646.387,331.508 644.324,330.607 643.301,330.145 
	642.783,329.908 642.521,329.787 642.266,329.664 638.145,327.641 636.086,326.553 635.057,325.994 634.541,325.709 
	634.285,325.568 634.025,325.422 630.225,323.193 628.324,322.008 627.375,321.398 626.902,321.09 626.666,320.932 626.428,320.779 
	622.625,318.178 620.727,316.799 619.773,316.094 619.305,315.736 619.062,315.551 618.824,315.375 614.754,312.15 612.717,310.447 
	611.697,309.572 611.19,309.133 610.937,308.908 610.682,308.686 606.609,304.984 604.572,303.039 603.553,302.043 603.042,301.537 
	602.788,301.281 602.532,301.027 598.781,297.174 596.903,295.17 595.967,294.143 595.499,293.625 595.263,293.371 595.026,293.107 
	591.276,288.838 589.397,286.631 588.461,285.506 587.989,284.943 587.757,284.654 587.526,284.369 572.205,264.205 
	555.803,239.926 540.67,216.449 524.448,192.127 516.189,180.848 512.063,175.633 509.996,173.148 508.963,171.938 508.448,171.342 
	508.19,171.045 507.932,170.748 504.121,166.578 502.219,164.615 501.258,163.666 500.783,163.205 500.547,162.973 500.311,162.748 
	496.498,159.285 494.59,157.705 493.636,156.951 493.162,156.58 492.926,156.404 492.689,156.223 490.646,154.752 489.619,154.059 
	489.115,153.725 488.859,153.566 488.604,153.402 486.562,152.18 485.542,151.613 485.031,151.348 484.776,151.213 484.521,151.08 
	482.479,150.113 481.457,149.682 480.947,149.475 480.691,149.385 480.438,149.279 479.416,148.916 478.904,148.748 
	478.649,148.662 478.395,148.582 477.373,148.283 476.608,148.084 476.352,148.018 475.41,147.805 474.937,147.713 474.705,147.664 
	474.468,147.623 474,147.537 473.763,147.5 473.527,147.463 473.058,147.398 472.82,147.367 472.585,147.336 472.115,147.281 
	471.879,147.264 471.648,147.238 471.411,147.223 471.174,147.203 470.938,147.191 470.706,147.172 470.469,147.16 470.232,147.148 
	470.002,147.141 469.764,147.137 469.527,147.129 469.293,147.125 469.061,147.125 468.822,147.125 468.585,147.125 
	468.352,147.129 468.117,147.137 467.881,147.141 467.643,147.154 467.412,147.166 467.175,147.178 466.941,147.197 
	466.705,147.215 466.471,147.234 466.232,147.25 465.996,147.275 465.766,147.299 465.527,147.324 465.291,147.354 465.061,147.379 
	464.59,147.445 464.353,147.482 464.115,147.52 463.645,147.598 463.41,147.641 463.178,147.689 462.709,147.781 462.473,147.83 
	462.235,147.883 461.764,147.992 461.53,148.047 461.293,148.109 460.334,148.369 459.852,148.51 459.615,148.582 459.371,148.654 
	458.41,148.971 457.932,149.148 457.694,149.232 457.455,149.324 456.492,149.701 456.012,149.9 455.773,150.004 455.535,150.107 
	454.571,150.553 454.094,150.777 453.853,150.891 453.614,151.014 451.697,152.033 450.733,152.582 450.256,152.873 450.012,153.02 
	449.776,153.164 447.855,154.404 446.895,155.066 446.416,155.408 446.176,155.584 445.936,155.76 441.82,159.012 439.768,160.811 
	438.739,161.752 438.223,162.238 437.967,162.482 437.713,162.725 433.598,166.875 431.54,169.1 430.514,170.248 429.996,170.824 
	429.742,171.123 429.484,171.416 425.691,175.93 423.795,178.301 422.848,179.504 422.373,180.117 422.137,180.422 421.899,180.732 
	418.106,185.775 416.211,188.383 415.262,189.707 414.781,190.371 414.549,190.705 414.311,191.039 398.045,215.326 381.484,241.02 
	366.193,263.639 358.004,274.822 353.91,280.109 351.863,282.67 350.842,283.926 350.326,284.547 350.07,284.863 349.814,285.172 
	342.266,293.887 338.49,297.934 336.6,299.879 335.658,300.832 335.188,301.307 334.95,301.537 334.712,301.773 326.615,309.299 
	322.568,312.697 320.546,314.312 319.533,315.096 319.026,315.486 318.773,315.674 318.521,315.869 314.396,318.859 312.337,320.27 
	311.305,320.951 310.79,321.291 310.531,321.453 310.273,321.619 306.151,324.166 304.089,325.357 303.059,325.928 302.543,326.213 
	302.283,326.352 302.028,326.494 298.223,328.467 296.322,329.391 295.368,329.834 294.894,330.053 294.656,330.164 
	294.418,330.271 290.613,331.932 288.714,332.703 287.762,333.074 287.285,333.256 287.049,333.348 286.809,333.439 
	282.732,334.902 280.695,335.584 279.674,335.906 279.166,336.07 278.91,336.143 278.656,336.223 274.582,337.406 272.539,337.953 
	271.521,338.217 271.012,338.344 270.756,338.404 270.502,338.465 266.746,339.346 264.865,339.746 263.926,339.934 
	263.457,340.031 263.223,340.08 262.986,340.131 259.231,340.828 257.352,341.15 256.41,341.311 255.942,341.383 255.705,341.42 
	255.473,341.455 251.639,342.027 249.722,342.285 248.762,342.41 248.285,342.469 248.044,342.5 247.807,342.531 245.887,342.76 
	244.93,342.871 244.449,342.92 244.211,342.951 243.973,342.975 242.057,343.176 241.1,343.273 240.621,343.322 240.381,343.346 
	240.141,343.369 236.034,343.732 233.979,343.896 232.957,343.977 232.443,344.014 232.186,344.031 231.93,344.049 229.875,344.195 
	228.848,344.264 228.336,344.293 228.079,344.312 227.822,344.33 225.768,344.451 224.744,344.512 224.23,344.537 223.973,344.557 
	223.718,344.566 219.932,344.756 218.035,344.84 217.09,344.883 216.618,344.9 216.381,344.906 216.145,344.92 214.252,344.992 
	213.303,345.029 212.83,345.047 212.594,345.053 212.357,345.061 210.466,345.125 209.52,345.158 209.044,345.168 208.808,345.176 
	208.571,345.186 204.513,345.295 202.485,345.344 201.466,345.369 200.959,345.381 200.707,345.387 200.451,345.387 
	198.424,345.434 197.408,345.453 196.901,345.459 196.647,345.467 196.396,345.473 194.363,345.508 193.348,345.527 
	192.841,345.531 192.589,345.539 192.333,345.539 190.268,345.57 189.234,345.588 188.718,345.594 188.46,345.594 188.198,345.6 
	186.132,345.625 185.099,345.635 184.582,345.643 184.325,345.643 184.065,345.648 181.998,345.672 180.964,345.68 180.448,345.686 
	180.19,345.686 179.931,345.689 177.864,345.703 176.829,345.715 176.313,345.715 176.054,345.723 175.796,345.723 173.888,345.732 
	172.937,345.74 172.456,345.744 172.222,345.744 171.981,345.744 170.074,345.758 169.121,345.764 168.643,345.764 168.406,345.77 
	168.165,345.77 166.259,345.777 165.302,345.781 164.828,345.781 164.59,345.787 164.351,345.787 162.444,345.795 161.489,345.801 
	161.013,345.801 160.772,345.801 160.535,345.807 158.492,345.812 157.467,345.812 156.958,345.816 156.702,345.816 
	156.447,345.816 154.403,345.824 153.382,345.824 152.869,345.824 152.614,345.824 152.358,345.83 150.315,345.83 149.294,345.836 
	148.783,345.836 148.528,345.836 148.27,345.836 146.229,345.842 145.206,345.842 144.695,345.842 144.439,345.842 144.185,345.842 
	142.299,345.85 141.356,345.85 140.886,345.85 140.65,345.85 140.416,345.85 138.531,345.85 137.588,345.854 137.118,345.854 
	136.882,345.854 136.646,345.854 134.763,345.854 133.82,345.854 133.349,345.854 133.112,345.854 132.878,345.854 130.995,345.861 
	130.051,345.861 129.582,345.861 129.344,345.861 129.109,345.861 127.188,345.861 126.227,345.861 125.745,345.861 
	125.505,345.861 125.266,345.861 123.344,345.861 122.382,345.867 121.901,345.867 121.663,345.867 121.419,345.867 
	119.499,345.867 118.539,345.867 118.059,345.867 117.816,345.867 117.578,345.867 115.654,345.867 114.696,345.867 
	114.213,345.867 113.974,345.867 113.733,345.867 111.676,345.867 110.645,345.867 110.13,345.867 109.873,345.867 109.618,345.867 
	108.587,345.867 108.073,345.867 107.815,345.867 107.558,345.867 106.526,345.867 106.013,345.867 105.755,345.867 105.5,345.867 
	103.442,345.875 102.412,345.875 101.897,345.875 101.639,345.875 101.384,345.875 100.354,345.875 99.84,345.875 99.582,345.875 
	99.324,345.875 98.293,345.875 97.781,345.875 97.521,345.875 97.267,345.875 95.366,345.875 94.417,345.875 93.944,345.875 
	93.708,345.875 93.468,345.875 91.57,345.875 90.62,345.875 90.146,345.875 89.908,345.875 89.672,345.875 87.774,345.875 
	86.824,345.875 86.348,345.875 86.111,345.875 85.876,345.875 83.973,345.875 83.025,345.875 82.553,345.875 82.313,345.875 
	82.076,345.875 "/>
<line fill="none" stroke="#000000" stroke-miterlimit="10" x1="82.076" y1="345.875" x2="855.484" y2="345.875"/>
<line fill="none" stroke="#000000" stroke-miterlimit="10" x1="82.076" y1="345.875" x2="82.076" y2="27"/>
<text transform="matrix(4.489659e-11 -1 1 4.489659e-11 27.3525 211)" font-family="'Helvetica-Bold'" font-size="24">P(score)</text>
<text transform="matrix(1 0 0 1 437 395)" font-family="'Helvetica-Bold'" font-size="24">score</text>
<text transform="matrix(1 0 0 1 40.3525 142.8008)" fill="#ABABAB" font-family="'Helvetica-Bold'" font-size="18">0.04</text>
<text transform="matrix(1 0 0 1 40.3525 198.4004)" fill="#ABABAB" font-family="'Helvetica-Bold'" font-size="18">0.03</text>
<text transform="matrix(1 0 0 1 40.3525 87.2002)" fill="#ABABAB" font-family="'Helvetica-Bold'" font-size="18">0.05</text>
<text transform="matrix(1 0 0 1 40.3525 31.6006)" fill="#ABABAB" font-family="'Helvetica-Bold'" font-size="18">0.06</text>
<text transform="matrix(1 0 0 1 40.3525 254.001)" fill="#ABABAB" font-family="'Helvetica-Bold'" font-size="18">0.02</text>
<text transform="matrix(1 0 0 1 40.3525 309.6006)" fill="#ABABAB" font-family="'Helvetica-Bold'" font-size="18">0.01</text>
<text transform="matrix(1 0 0 1 560.5 367.21)" fill="#ABABAB" font-family="'Helvetica-Bold'" font-size="18">10.0</text>
<text transform="matrix(1 0 0 1 343.9995 367.21)" fill="#ABABAB" font-family="'Helvetica-Bold'" font-size="18">-10.0</text>
<text transform="matrix(1 0 0 1 452.2495 367.21)" fill="#ABABAB" font-family="'Helvetica-Bold'" font-size="18">0.0</text>
<text transform="matrix(1 0 0 1 668.75 367.21)" fill="#ABABAB" font-family="'Helvetica-Bold'" font-size="18">20.0</text>
<text transform="matrix(1 0 0 1 235.7495 367.21)" fill="#ABABAB" font-family="'Helvetica-Bold'" font-size="18">-20.0</text>
<text transform="matrix(1 0 0 1 777 367.21)" fill="#ABABAB" font-family="'Helvetica-Bold'" font-size="18">30.0</text>
<text transform="matrix(1 0 0 1 127.4995 367.21)" fill="#ABABAB" font-family="'Helvetica-Bold'" font-size="18">-30.0</text>
</svg>
