<?xml version="1.0" encoding="utf-8"?>
<!-- Generator: Adobe Illustrator 15.1.0, SVG Export Plug-In . SVG Version: 6.00 Build 0)  -->
<svg version="1.2" baseProfile="tiny" id="Layer_1" xmlns="http://www.w3.org/2000/svg" xmlns:xlink="http://www.w3.org/1999/xlink"
	 x="0px" y="0px" width="425px" height="94.141px" viewBox="0 0 425 94.141" overflow="inherit" xml:space="preserve">
<rect x="16.797" y="28.516" fill="#77CEDD" stroke="#000000" stroke-width="2" stroke-miterlimit="10" width="34.375" height="34.375"/>
<rect x="78.516" y="28.516" fill="#6C8BC1" stroke="#000000" stroke-width="2" stroke-miterlimit="10" width="34.375" height="34.375"/>
<g>
	<line fill="none" stroke="#000000" stroke-width="2" stroke-miterlimit="10" x1="51.172" y1="45.703" x2="67.908" y2="45.703"/>
	<g>
		<polygon points="60.916,50.36 66.437,45.703 60.916,41.046 76.953,45.703 		"/>
		<polygon fill="#FFFFFF" points="63.188,49.01 75.188,45.703 67.282,45.703 		"/>
	</g>
</g>
<g>
	<line fill="none" stroke="#000000" stroke-width="2" stroke-miterlimit="10" x1="112.891" y1="45.703" x2="129.626" y2="45.703"/>
	<g>
		<polygon points="122.635,50.36 128.155,45.703 122.635,41.046 138.672,45.703 		"/>
		<polygon fill="#FFFFFF" points="124.906,49.01 136.907,45.703 129,45.703 		"/>
	</g>
</g>
<rect x="184.766" y="28.516" fill="#77CEDD" stroke="#000000" stroke-width="2" stroke-miterlimit="10" width="34.375" height="34.375"/>
<rect x="246.484" y="28.516" fill="#6C8BC1" stroke="#000000" stroke-width="2" stroke-miterlimit="10" width="34.375" height="34.375"/>
<g>
	<line fill="none" stroke="#000000" stroke-width="2" stroke-miterlimit="10" x1="219.141" y1="45.703" x2="235.877" y2="45.703"/>
	<g>
		<polygon points="228.885,50.36 234.405,45.703 228.885,41.046 244.922,45.703 		"/>
		<polygon fill="#FFFFFF" points="231.156,49.01 243.157,45.703 235.25,45.703 		"/>
	</g>
</g>
<g>
	<line fill="none" stroke="#000000" stroke-width="2" stroke-miterlimit="10" x1="280.859" y1="45.703" x2="297.596" y2="45.703"/>
	<g>
		<polygon points="290.604,50.36 296.124,45.703 290.604,41.046 306.641,45.703 		"/>
		<polygon fill="#FFFFFF" points="292.875,49.01 304.876,45.703 296.969,45.703 		"/>
	</g>
</g>
<rect x="306.641" y="28.516" fill="#EFD61C" stroke="#000000" stroke-width="2" stroke-miterlimit="10" width="34.375" height="34.375"/>
<g>
	<line fill="none" stroke="#000000" stroke-width="2" stroke-miterlimit="10" x1="341.016" y1="45.703" x2="357.752" y2="45.703"/>
	<g>
		<polygon points="350.76,50.36 356.28,45.703 350.76,41.046 366.797,45.703 		"/>
		<polygon fill="#FFFFFF" points="353.031,49.01 365.032,45.703 357.125,45.703 		"/>
	</g>
</g>
<text transform="matrix(1 0 0 1 28.9062 49.2188)" font-family="'HelveticaNeue-Bold'" font-size="12">A</text>
<text transform="matrix(1 0 0 1 90.625 49.2188)" font-family="'HelveticaNeue-Bold'" font-size="12">B</text>
<text transform="matrix(1 0 0 1 198.0469 49.2188)" font-family="'HelveticaNeue-Bold'" font-size="12">A</text>
<text transform="matrix(1 0 0 1 259.7656 49.2188)" font-family="'HelveticaNeue-Bold'" font-size="12">B</text>
<text transform="matrix(1 0 0 1 318.75 49.2188)" font-family="'HelveticaNeue-Bold'" font-size="12">C</text>
</svg>
