<?xml version="1.0" encoding="utf-8"?>
<!-- Generator: Adobe Illustrator 15.1.0, SVG Export Plug-In . SVG Version: 6.00 Build 0)  -->
<svg version="1.2" baseProfile="tiny" id="Layer_1" xmlns="http://www.w3.org/2000/svg" xmlns:xlink="http://www.w3.org/1999/xlink"
	 x="0px" y="0px" width="978px" height="447px" viewBox="0 0 978 447" overflow="inherit" xml:space="preserve">
<polyline id="controlGroup" fill="#F4E237" stroke="#E2AB25" stroke-width="3" stroke-linecap="square" stroke-miterlimit="3.25" points="
	83.025,345.875 855.924,345.875 855.912,345.875 855.902,345.875 855.9,345.875 855.887,345.875 855.875,345.875 855.867,345.875 
	855.857,345.875 855.828,345.875 855.812,345.875 855.807,345.875 855.795,345.875 855.732,345.875 855.703,345.875 
	855.693,345.875 855.678,345.875 855.674,345.875 855.553,345.875 855.484,345.875 855.455,345.875 855.443,345.875 
	855.438,345.875 855.424,345.875 853.365,345.875 852.334,345.875 851.814,345.875 851.561,345.875 851.297,345.875 
	850.271,345.875 849.756,345.875 849.492,345.875 849.236,345.875 848.205,345.875 847.688,345.875 847.432,345.875 
	847.172,345.875 845.111,345.875 844.078,345.875 843.564,345.875 843.307,345.875 843.045,345.875 842.018,345.875 841.5,345.875 
	841.246,345.875 840.986,345.875 839.959,345.875 839.441,345.875 839.18,345.875 838.924,345.875 837.018,345.875 836.066,345.875 
	835.592,345.875 835.354,345.875 835.111,345.875 833.209,345.867 832.258,345.867 831.783,345.867 831.547,345.867 
	831.309,345.867 829.406,345.867 828.451,345.867 827.979,345.867 827.736,345.867 827.506,345.867 825.598,345.867 
	824.648,345.867 824.17,345.867 823.932,345.867 823.691,345.867 821.652,345.867 820.639,345.867 820.125,345.867 819.873,345.867 
	819.617,345.867 817.574,345.867 816.553,345.867 816.043,345.867 815.789,345.867 815.533,345.867 813.496,345.861 
	812.475,345.861 811.967,345.861 811.711,345.861 811.453,345.861 809.418,345.861 808.398,345.861 807.887,345.861 
	807.635,345.861 807.375,345.861 805.5,345.854 804.559,345.854 804.09,345.854 803.852,345.854 803.615,345.854 801.734,345.854 
	800.803,345.854 800.326,345.854 800.092,345.854 799.85,345.854 797.975,345.85 797.039,345.85 796.564,345.85 796.332,345.85 
	796.098,345.85 794.219,345.842 793.277,345.842 792.809,345.842 792.57,345.842 792.334,345.842 790.42,345.836 789.461,345.836 
	788.979,345.836 788.744,345.836 788.5,345.836 786.586,345.83 785.627,345.83 785.145,345.824 784.904,345.824 784.664,345.824 
	782.746,345.816 781.789,345.816 781.311,345.816 781.066,345.816 780.83,345.812 778.912,345.807 777.947,345.807 777.477,345.807 
	777.232,345.801 776.996,345.801 774.943,345.795 773.912,345.787 773.396,345.787 773.143,345.781 772.887,345.781 
	770.826,345.777 769.805,345.77 769.289,345.764 769.035,345.764 768.779,345.764 766.723,345.752 765.697,345.744 765.182,345.74 
	764.926,345.74 764.668,345.74 762.615,345.729 761.59,345.715 761.074,345.715 760.816,345.709 760.562,345.709 758.668,345.697 
	757.719,345.686 757.244,345.68 757.008,345.68 756.77,345.68 754.875,345.66 753.932,345.648 753.451,345.643 753.221,345.635 
	752.982,345.635 751.09,345.611 750.141,345.6 749.666,345.6 749.428,345.594 749.199,345.594 747.299,345.562 746.355,345.551 
	745.879,345.545 745.643,345.539 745.404,345.539 741.346,345.467 739.309,345.432 738.303,345.41 737.789,345.398 737.533,345.387 
	737.279,345.387 735.25,345.338 734.234,345.312 733.725,345.303 733.471,345.295 733.221,345.289 731.191,345.232 730.174,345.205 
	729.664,345.191 729.406,345.182 729.154,345.176 725.02,345.039 722.949,344.963 721.918,344.92 721.4,344.9 721.137,344.887 
	720.885,344.883 718.816,344.789 717.777,344.738 717.262,344.717 717.004,344.705 716.746,344.693 714.68,344.586 713.645,344.531 
	713.123,344.506 712.867,344.488 712.607,344.469 708.787,344.24 706.883,344.111 705.926,344.047 705.451,344.006 705.209,343.988 
	704.973,343.969 703.064,343.824 702.109,343.748 701.635,343.703 701.393,343.686 701.156,343.666 699.248,343.496 
	698.293,343.404 697.814,343.363 697.574,343.34 697.34,343.314 693.25,342.887 691.201,342.652 690.182,342.531 689.662,342.463 
	689.408,342.436 689.154,342.396 687.109,342.131 686.09,341.99 685.578,341.916 685.326,341.881 685.07,341.844 683.021,341.535 
	682,341.369 681.484,341.291 681.229,341.248 680.973,341.207 677.203,340.551 675.318,340.184 674.373,340.002 673.904,339.906 
	673.668,339.857 673.432,339.809 669.664,338.982 667.779,338.537 666.83,338.307 666.361,338.186 666.125,338.123 665.889,338.064 
	662.041,337.025 660.121,336.461 659.162,336.168 658.674,336.016 658.438,335.941 658.199,335.869 654.352,334.586 
	652.428,333.902 651.467,333.541 650.984,333.359 650.744,333.268 650.5,333.176 646.387,331.508 644.324,330.607 643.301,330.145 
	642.783,329.908 642.521,329.787 642.266,329.664 638.145,327.641 636.086,326.553 635.057,325.994 634.541,325.709 
	634.285,325.568 634.025,325.422 630.225,323.193 628.324,322.008 627.375,321.398 626.902,321.09 626.666,320.932 626.428,320.779 
	622.625,318.178 620.727,316.799 619.773,316.094 619.305,315.736 619.062,315.551 618.824,315.375 614.754,312.15 612.717,310.447 
	611.697,309.572 611.19,309.133 610.937,308.908 610.682,308.686 606.609,304.984 604.572,303.039 603.553,302.043 603.042,301.537 
	602.788,301.281 602.532,301.027 598.781,297.174 596.903,295.17 595.967,294.143 595.499,293.625 595.263,293.371 595.026,293.107 
	591.276,288.838 589.397,286.631 588.461,285.506 587.989,284.943 587.757,284.654 587.526,284.369 572.205,264.205 
	555.803,239.926 540.67,216.449 524.448,192.127 516.189,180.848 512.063,175.633 509.996,173.148 508.963,171.938 508.448,171.342 
	508.19,171.045 507.932,170.748 504.121,166.578 502.219,164.615 501.258,163.666 500.783,163.205 500.547,162.973 500.311,162.748 
	496.498,159.285 494.59,157.705 493.636,156.951 493.162,156.58 492.926,156.404 492.689,156.223 490.646,154.752 489.619,154.059 
	489.115,153.725 488.859,153.566 488.604,153.402 486.562,152.18 485.542,151.613 485.031,151.348 484.776,151.213 484.521,151.08 
	482.479,150.113 481.457,149.682 480.947,149.475 480.691,149.385 480.438,149.279 479.416,148.916 478.904,148.748 
	478.649,148.662 478.395,148.582 477.373,148.283 476.608,148.084 476.352,148.018 475.41,147.805 474.937,147.713 474.705,147.664 
	474.468,147.623 474,147.537 473.763,147.5 473.527,147.463 473.058,147.398 472.82,147.367 472.585,147.336 472.115,147.281 
	471.879,147.264 471.648,147.238 471.411,147.223 471.174,147.203 470.938,147.191 470.706,147.172 470.469,147.16 470.232,147.148 
	470.002,147.141 469.764,147.137 469.527,147.129 469.293,147.125 469.061,147.125 468.822,147.125 468.585,147.125 
	468.352,147.129 468.117,147.137 467.881,147.141 467.643,147.154 467.412,147.166 467.175,147.178 466.941,147.197 
	466.705,147.215 466.471,147.234 466.232,147.25 465.996,147.275 465.766,147.299 465.527,147.324 465.291,147.354 465.061,147.379 
	464.59,147.445 464.353,147.482 464.115,147.52 463.645,147.598 463.41,147.641 463.178,147.689 462.709,147.781 462.473,147.83 
	462.235,147.883 461.764,147.992 461.53,148.047 461.293,148.109 460.334,148.369 459.852,148.51 459.615,148.582 459.371,148.654 
	458.41,148.971 457.932,149.148 457.694,149.232 457.455,149.324 456.492,149.701 456.012,149.9 455.773,150.004 455.535,150.107 
	454.571,150.553 454.094,150.777 453.853,150.891 453.614,151.014 451.697,152.033 450.733,152.582 450.256,152.873 450.012,153.02 
	449.776,153.164 447.855,154.404 446.895,155.066 446.416,155.408 446.176,155.584 445.936,155.76 441.82,159.012 439.768,160.811 
	438.739,161.752 438.223,162.238 437.967,162.482 437.713,162.725 433.598,166.875 431.54,169.1 430.514,170.248 429.996,170.824 
	429.742,171.123 429.484,171.416 425.691,175.93 423.795,178.301 422.848,179.504 422.373,180.117 422.137,180.422 421.899,180.732 
	418.106,185.775 416.211,188.383 415.262,189.707 414.781,190.371 414.549,190.705 414.311,191.039 398.045,215.326 381.484,241.02 
	366.193,263.639 358.004,274.822 353.91,280.109 351.863,282.67 350.842,283.926 350.326,284.547 350.07,284.863 349.814,285.172 
	342.266,293.887 338.49,297.934 336.6,299.879 335.658,300.832 335.188,301.307 334.95,301.537 334.712,301.773 326.615,309.299 
	322.568,312.697 320.546,314.312 319.533,315.096 319.026,315.486 318.773,315.674 318.521,315.869 314.396,318.859 312.337,320.27 
	311.305,320.951 310.79,321.291 310.531,321.453 310.273,321.619 306.151,324.166 304.089,325.357 303.059,325.928 302.543,326.213 
	302.283,326.352 302.028,326.494 298.223,328.467 296.322,329.391 295.368,329.834 294.894,330.053 294.656,330.164 
	294.418,330.271 290.613,331.932 288.714,332.703 287.762,333.074 287.285,333.256 287.049,333.348 286.809,333.439 
	282.732,334.902 280.695,335.584 279.674,335.906 279.166,336.07 278.91,336.143 278.656,336.223 274.582,337.406 272.539,337.953 
	271.521,338.217 271.012,338.344 270.756,338.404 270.502,338.465 266.746,339.346 264.865,339.746 263.926,339.934 
	263.457,340.031 263.223,340.08 262.986,340.131 259.231,340.828 257.352,341.15 256.41,341.311 255.942,341.383 255.705,341.42 
	255.473,341.455 251.639,342.027 249.722,342.285 248.762,342.41 248.285,342.469 248.044,342.5 247.807,342.531 245.887,342.76 
	244.93,342.871 244.449,342.92 244.211,342.951 243.973,342.975 242.057,343.176 241.1,343.273 240.621,343.322 240.381,343.346 
	240.141,343.369 236.034,343.732 233.979,343.896 232.957,343.977 232.443,344.014 232.186,344.031 231.93,344.049 229.875,344.195 
	228.848,344.264 228.336,344.293 228.079,344.312 227.822,344.33 225.768,344.451 224.744,344.512 224.23,344.537 223.973,344.557 
	223.718,344.566 219.932,344.756 218.035,344.84 217.09,344.883 216.618,344.9 216.381,344.906 216.145,344.92 214.252,344.992 
	213.303,345.029 212.83,345.047 212.594,345.053 212.357,345.061 210.466,345.125 209.52,345.158 209.044,345.168 208.808,345.176 
	208.571,345.186 204.513,345.295 202.485,345.344 201.466,345.369 200.959,345.381 200.707,345.387 200.451,345.387 
	198.424,345.434 197.408,345.453 196.901,345.459 196.647,345.467 196.396,345.473 194.363,345.508 193.348,345.527 
	192.841,345.531 192.589,345.539 192.333,345.539 190.268,345.57 189.234,345.588 188.718,345.594 188.46,345.594 188.198,345.6 
	186.132,345.625 185.099,345.635 184.582,345.643 184.325,345.643 184.065,345.648 181.998,345.672 180.964,345.68 180.448,345.686 
	180.19,345.686 179.931,345.689 177.864,345.703 176.829,345.715 176.313,345.715 176.054,345.723 175.796,345.723 173.888,345.732 
	172.937,345.74 172.456,345.744 172.222,345.744 171.981,345.744 170.074,345.758 169.121,345.764 168.643,345.764 168.406,345.77 
	168.165,345.77 166.259,345.777 165.302,345.781 164.828,345.781 164.59,345.787 164.351,345.787 162.444,345.795 161.489,345.801 
	161.013,345.801 160.772,345.801 160.535,345.807 158.492,345.812 157.467,345.812 156.958,345.816 156.702,345.816 
	156.447,345.816 154.403,345.824 153.382,345.824 152.869,345.824 152.614,345.824 152.358,345.83 150.315,345.83 149.294,345.836 
	148.783,345.836 148.528,345.836 148.27,345.836 146.229,345.842 145.206,345.842 144.695,345.842 144.439,345.842 144.185,345.842 
	142.299,345.85 141.356,345.85 140.886,345.85 140.65,345.85 140.416,345.85 138.531,345.85 137.588,345.854 137.118,345.854 
	136.882,345.854 136.646,345.854 134.763,345.854 133.82,345.854 133.349,345.854 133.112,345.854 132.878,345.854 130.995,345.861 
	130.051,345.861 129.582,345.861 129.344,345.861 129.109,345.861 127.188,345.861 126.227,345.861 125.745,345.861 
	125.505,345.861 125.266,345.861 123.344,345.861 122.382,345.867 121.901,345.867 121.663,345.867 121.419,345.867 
	119.499,345.867 118.539,345.867 118.059,345.867 117.816,345.867 117.578,345.867 115.654,345.867 114.696,345.867 
	114.213,345.867 113.974,345.867 113.733,345.867 111.676,345.867 110.645,345.867 110.13,345.867 109.873,345.867 109.618,345.867 
	108.587,345.867 108.073,345.867 107.815,345.867 107.558,345.867 106.526,345.867 106.013,345.867 105.755,345.867 105.5,345.867 
	103.442,345.875 102.412,345.875 101.897,345.875 101.639,345.875 101.384,345.875 100.354,345.875 99.84,345.875 99.582,345.875 
	99.324,345.875 98.293,345.875 97.781,345.875 97.521,345.875 97.267,345.875 95.366,345.875 94.417,345.875 93.944,345.875 
	93.708,345.875 93.468,345.875 91.57,345.875 90.62,345.875 90.146,345.875 89.908,345.875 89.672,345.875 87.774,345.875 
	86.824,345.875 86.348,345.875 86.111,345.875 85.876,345.875 83.973,345.875 83.025,345.875 82.553,345.875 82.313,345.875 
	82.076,345.875 "/>
<polyline id="expGroup" fill="#4AADE2" stroke="#17479D" stroke-width="3" stroke-linecap="square" stroke-miterlimit="3.25" points="
	189.527,345.875 962.426,345.875 962.414,345.875 962.404,345.875 962.402,345.875 962.389,345.875 962.377,345.875 
	962.369,345.875 962.359,345.875 962.33,345.875 962.314,345.875 962.309,345.875 962.297,345.875 962.234,345.875 962.205,345.875 
	962.195,345.875 962.18,345.875 962.176,345.875 962.055,345.875 961.986,345.875 961.957,345.875 961.945,345.875 961.939,345.875 
	961.926,345.875 959.867,345.875 958.836,345.875 958.316,345.875 958.062,345.875 957.799,345.875 956.773,345.875 
	956.258,345.875 955.994,345.875 955.738,345.875 954.707,345.875 954.189,345.875 953.934,345.875 953.674,345.875 
	951.613,345.875 950.58,345.875 950.066,345.875 949.809,345.875 949.547,345.875 948.52,345.875 948.002,345.875 947.748,345.875 
	947.488,345.875 946.461,345.875 945.943,345.875 945.682,345.875 945.426,345.875 943.52,345.875 942.568,345.875 942.094,345.875 
	941.855,345.875 941.613,345.875 939.711,345.867 938.76,345.867 938.285,345.867 938.049,345.867 937.811,345.867 935.908,345.867 
	934.953,345.867 934.48,345.867 934.238,345.867 934.008,345.867 932.1,345.867 931.15,345.867 930.672,345.867 930.434,345.867 
	930.193,345.867 928.154,345.867 927.141,345.867 926.627,345.867 926.375,345.867 926.119,345.867 924.076,345.867 
	923.055,345.867 922.545,345.867 922.291,345.867 922.035,345.867 919.998,345.861 918.977,345.861 918.469,345.861 
	918.213,345.861 917.955,345.861 915.92,345.861 914.9,345.861 914.389,345.861 914.137,345.861 913.877,345.861 912.002,345.854 
	911.061,345.854 910.592,345.854 910.354,345.854 910.117,345.854 908.236,345.854 907.305,345.854 906.828,345.854 
	906.594,345.854 906.352,345.854 904.477,345.85 903.541,345.85 903.066,345.85 902.834,345.85 902.6,345.85 900.721,345.842 
	899.779,345.842 899.311,345.842 899.072,345.842 898.836,345.842 896.922,345.836 895.963,345.836 895.48,345.836 895.246,345.836 
	895.002,345.836 893.088,345.83 892.129,345.83 891.646,345.824 891.406,345.824 891.166,345.824 889.248,345.816 888.291,345.816 
	887.812,345.816 887.568,345.816 887.332,345.812 885.414,345.807 884.449,345.807 883.979,345.807 883.734,345.801 
	883.498,345.801 881.445,345.795 880.414,345.787 879.898,345.787 879.645,345.781 879.389,345.781 877.328,345.777 876.307,345.77 
	875.791,345.764 875.537,345.764 875.281,345.764 873.225,345.752 872.199,345.744 871.684,345.74 871.428,345.74 871.17,345.74 
	869.117,345.729 868.092,345.715 867.576,345.715 867.318,345.709 867.064,345.709 865.17,345.697 864.221,345.686 863.746,345.68 
	863.51,345.68 863.271,345.68 861.377,345.66 860.434,345.648 859.953,345.643 859.723,345.635 859.484,345.635 857.592,345.611 
	856.643,345.6 856.168,345.6 855.93,345.594 855.701,345.594 853.801,345.562 852.857,345.551 852.381,345.545 852.145,345.539 
	851.906,345.539 847.848,345.467 845.811,345.432 844.805,345.41 844.291,345.398 844.035,345.387 843.781,345.387 841.752,345.338 
	840.736,345.312 840.227,345.303 839.973,345.295 839.723,345.289 837.693,345.232 836.676,345.205 836.166,345.191 
	835.908,345.182 835.656,345.176 831.521,345.039 829.451,344.963 828.42,344.92 827.902,344.9 827.639,344.887 827.387,344.883 
	825.318,344.789 824.279,344.738 823.764,344.717 823.506,344.705 823.248,344.693 821.182,344.586 820.146,344.531 
	819.625,344.506 819.369,344.488 819.109,344.469 815.289,344.24 813.385,344.111 812.428,344.047 811.953,344.006 811.711,343.988 
	811.475,343.969 809.566,343.824 808.611,343.748 808.137,343.703 807.895,343.686 807.658,343.666 805.75,343.496 804.795,343.404 
	804.316,343.363 804.076,343.34 803.842,343.314 799.752,342.887 797.703,342.652 796.684,342.531 796.164,342.463 795.91,342.436 
	795.656,342.396 793.611,342.131 792.592,341.99 792.08,341.916 791.828,341.881 791.572,341.844 789.523,341.535 788.502,341.369 
	787.986,341.291 787.73,341.248 787.475,341.207 783.705,340.551 781.82,340.184 780.875,340.002 780.406,339.906 780.17,339.857 
	779.934,339.809 776.166,338.982 774.281,338.537 773.332,338.307 772.863,338.186 772.627,338.123 772.391,338.064 
	768.543,337.025 766.623,336.461 765.664,336.168 765.176,336.016 764.939,335.941 764.701,335.869 760.854,334.586 758.93,333.902 
	757.969,333.541 757.486,333.359 757.246,333.268 757.002,333.176 752.889,331.508 750.826,330.607 749.803,330.145 
	749.285,329.908 749.023,329.787 748.768,329.664 744.646,327.641 742.588,326.553 741.559,325.994 741.043,325.709 
	740.787,325.568 740.527,325.422 736.727,323.193 734.826,322.008 733.877,321.398 733.404,321.09 733.168,320.932 732.93,320.779 
	729.127,318.178 727.229,316.799 726.275,316.094 725.807,315.736 725.564,315.551 725.326,315.375 721.256,312.15 719.219,310.447 
	718.199,309.572 717.692,309.133 717.438,308.908 717.184,308.686 713.111,304.984 711.074,303.039 710.055,302.043 
	709.544,301.537 709.29,301.281 709.034,301.027 705.283,297.174 703.405,295.17 702.469,294.143 702.001,293.625 701.765,293.371 
	701.528,293.107 697.778,288.838 695.899,286.631 694.963,285.506 694.491,284.943 694.259,284.654 694.028,284.369 
	678.707,264.205 662.305,239.926 647.172,216.449 630.95,192.127 622.691,180.848 618.565,175.633 616.498,173.148 615.465,171.938 
	614.95,171.342 614.692,171.045 614.434,170.748 610.623,166.578 608.721,164.615 607.76,163.666 607.285,163.205 607.049,162.973 
	606.812,162.748 603,159.285 601.092,157.705 600.138,156.951 599.664,156.58 599.428,156.404 599.191,156.223 597.148,154.752 
	596.121,154.059 595.617,153.725 595.361,153.566 595.106,153.402 593.064,152.18 592.044,151.613 591.533,151.348 591.278,151.213 
	591.022,151.08 588.98,150.113 587.959,149.682 587.449,149.475 587.193,149.385 586.939,149.279 585.918,148.916 585.406,148.748 
	585.151,148.662 584.896,148.582 583.875,148.283 583.11,148.084 582.854,148.018 581.912,147.805 581.438,147.713 581.207,147.664 
	580.97,147.623 580.502,147.537 580.265,147.5 580.029,147.463 579.56,147.398 579.322,147.367 579.087,147.336 578.617,147.281 
	578.381,147.264 578.15,147.238 577.913,147.223 577.676,147.203 577.439,147.191 577.208,147.172 576.971,147.16 576.734,147.148 
	576.504,147.141 576.266,147.137 576.029,147.129 575.795,147.125 575.562,147.125 575.324,147.125 575.087,147.125 
	574.854,147.129 574.619,147.137 574.383,147.141 574.145,147.154 573.914,147.166 573.677,147.178 573.443,147.197 
	573.207,147.215 572.973,147.234 572.734,147.25 572.498,147.275 572.268,147.299 572.029,147.324 571.793,147.354 571.562,147.379 
	571.092,147.445 570.854,147.482 570.617,147.52 570.146,147.598 569.912,147.641 569.68,147.689 569.211,147.781 568.975,147.83 
	568.737,147.883 568.266,147.992 568.032,148.047 567.795,148.109 566.836,148.369 566.354,148.51 566.117,148.582 565.873,148.654 
	564.912,148.971 564.434,149.148 564.196,149.232 563.957,149.324 562.994,149.701 562.514,149.9 562.275,150.004 562.037,150.107 
	561.073,150.553 560.596,150.777 560.354,150.891 560.116,151.014 558.199,152.033 557.235,152.582 556.758,152.873 556.514,153.02 
	556.278,153.164 554.357,154.404 553.396,155.066 552.918,155.408 552.678,155.584 552.438,155.76 548.322,159.012 546.27,160.811 
	545.241,161.752 544.725,162.238 544.469,162.482 544.215,162.725 540.1,166.875 538.042,169.1 537.016,170.248 536.498,170.824 
	536.244,171.123 535.986,171.416 532.193,175.93 530.297,178.301 529.35,179.504 528.875,180.117 528.639,180.422 528.401,180.732 
	524.608,185.775 522.713,188.383 521.764,189.707 521.283,190.371 521.051,190.705 520.812,191.039 504.547,215.326 487.986,241.02 
	472.695,263.639 464.506,274.822 460.412,280.109 458.365,282.67 457.344,283.926 456.828,284.547 456.572,284.863 456.316,285.172 
	448.768,293.887 444.992,297.934 443.102,299.879 442.16,300.832 441.689,301.307 441.452,301.537 441.214,301.773 433.117,309.299 
	429.07,312.697 427.048,314.312 426.035,315.096 425.528,315.486 425.275,315.674 425.022,315.869 420.898,318.859 418.839,320.27 
	417.807,320.951 417.292,321.291 417.033,321.453 416.775,321.619 412.653,324.166 410.591,325.357 409.561,325.928 
	409.045,326.213 408.785,326.352 408.53,326.494 404.725,328.467 402.824,329.391 401.87,329.834 401.396,330.053 401.158,330.164 
	400.92,330.271 397.115,331.932 395.216,332.703 394.264,333.074 393.787,333.256 393.551,333.348 393.311,333.439 389.234,334.902 
	387.197,335.584 386.176,335.906 385.668,336.07 385.412,336.143 385.158,336.223 381.084,337.406 379.041,337.953 378.023,338.217 
	377.514,338.344 377.258,338.404 377.004,338.465 373.248,339.346 371.367,339.746 370.428,339.934 369.959,340.031 369.725,340.08 
	369.488,340.131 365.733,340.828 363.854,341.15 362.912,341.311 362.444,341.383 362.207,341.42 361.975,341.455 358.141,342.027 
	356.224,342.285 355.264,342.41 354.787,342.469 354.546,342.5 354.309,342.531 352.389,342.76 351.432,342.871 350.951,342.92 
	350.713,342.951 350.475,342.975 348.559,343.176 347.602,343.273 347.123,343.322 346.883,343.346 346.643,343.369 
	342.536,343.732 340.481,343.896 339.459,343.977 338.945,344.014 338.688,344.031 338.432,344.049 336.377,344.195 335.35,344.264 
	334.838,344.293 334.581,344.312 334.324,344.33 332.27,344.451 331.246,344.512 330.732,344.537 330.475,344.557 330.22,344.566 
	326.434,344.756 324.537,344.84 323.592,344.883 323.12,344.9 322.883,344.906 322.646,344.92 320.754,344.992 319.805,345.029 
	319.332,345.047 319.096,345.053 318.859,345.061 316.968,345.125 316.021,345.158 315.546,345.168 315.31,345.176 315.073,345.186 
	311.015,345.295 308.987,345.344 307.968,345.369 307.461,345.381 307.209,345.387 306.953,345.387 304.926,345.434 303.91,345.453 
	303.403,345.459 303.149,345.467 302.897,345.473 300.865,345.508 299.85,345.527 299.343,345.531 299.091,345.539 298.835,345.539 
	296.77,345.57 295.736,345.588 295.22,345.594 294.962,345.594 294.7,345.6 292.634,345.625 291.601,345.635 291.084,345.643 
	290.827,345.643 290.567,345.648 288.5,345.672 287.466,345.68 286.95,345.686 286.692,345.686 286.433,345.689 284.366,345.703 
	283.331,345.715 282.815,345.715 282.556,345.723 282.298,345.723 280.39,345.732 279.438,345.74 278.958,345.744 278.724,345.744 
	278.483,345.744 276.576,345.758 275.623,345.764 275.145,345.764 274.908,345.77 274.667,345.77 272.761,345.777 271.804,345.781 
	271.33,345.781 271.092,345.787 270.853,345.787 268.946,345.795 267.991,345.801 267.515,345.801 267.274,345.801 267.037,345.807 
	264.994,345.812 263.969,345.812 263.459,345.816 263.204,345.816 262.949,345.816 260.905,345.824 259.884,345.824 
	259.371,345.824 259.116,345.824 258.86,345.83 256.817,345.83 255.796,345.836 255.285,345.836 255.03,345.836 254.772,345.836 
	252.731,345.842 251.708,345.842 251.197,345.842 250.941,345.842 250.687,345.842 248.801,345.85 247.858,345.85 247.388,345.85 
	247.152,345.85 246.917,345.85 245.033,345.85 244.09,345.854 243.62,345.854 243.384,345.854 243.147,345.854 241.265,345.854 
	240.322,345.854 239.851,345.854 239.614,345.854 239.38,345.854 237.497,345.861 236.553,345.861 236.083,345.861 235.846,345.861 
	235.611,345.861 233.69,345.861 232.729,345.861 232.247,345.861 232.007,345.861 231.768,345.861 229.846,345.861 228.884,345.867 
	228.403,345.867 228.165,345.867 227.921,345.867 226,345.867 225.041,345.867 224.561,345.867 224.318,345.867 224.08,345.867 
	222.156,345.867 221.198,345.867 220.715,345.867 220.476,345.867 220.235,345.867 218.178,345.867 217.146,345.867 
	216.632,345.867 216.375,345.867 216.12,345.867 215.089,345.867 214.575,345.867 214.317,345.867 214.06,345.867 213.028,345.867 
	212.515,345.867 212.257,345.867 212.002,345.867 209.944,345.875 208.914,345.875 208.399,345.875 208.141,345.875 
	207.886,345.875 206.856,345.875 206.342,345.875 206.084,345.875 205.826,345.875 204.795,345.875 204.283,345.875 
	204.023,345.875 203.769,345.875 201.868,345.875 200.919,345.875 200.446,345.875 200.21,345.875 199.97,345.875 198.072,345.875 
	197.122,345.875 196.647,345.875 196.41,345.875 196.174,345.875 194.276,345.875 193.326,345.875 192.85,345.875 192.613,345.875 
	192.378,345.875 190.475,345.875 189.527,345.875 189.055,345.875 188.815,345.875 188.578,345.875 "/>
<line fill="none" stroke="#000000" stroke-miterlimit="10" x1="82.076" y1="345.875" x2="855.484" y2="345.875"/>
<line fill="none" stroke="#000000" stroke-miterlimit="10" x1="82.076" y1="345.875" x2="82.076" y2="27"/>
<text transform="matrix(0 -1 1 0 27.3525 211)" font-family="'Helvetica-Bold'" font-size="24">P(score)</text>
<text transform="matrix(1 0 0 1 437 395)" font-family="'Helvetica-Bold'" font-size="24">score</text>
<text transform="matrix(1 0 0 1 674.5 57.25)" font-family="'Helvetica-Bold'" font-size="24">Control Group</text>
<text transform="matrix(1 0 0 1 674.5 111.25)" font-family="'Helvetica-Bold'" font-size="24">Experimental Group</text>
<text transform="matrix(1 0 0 1 40.353 142.8008)" fill="#ABABAB" font-family="'Helvetica-Bold'" font-size="18">0.04</text>
<text transform="matrix(1 0 0 1 40.353 198.4004)" fill="#ABABAB" font-family="'Helvetica-Bold'" font-size="18">0.03</text>
<text transform="matrix(1 0 0 1 40.353 87.2002)" fill="#ABABAB" font-family="'Helvetica-Bold'" font-size="18">0.05</text>
<text transform="matrix(1 0 0 1 40.353 31.6006)" fill="#ABABAB" font-family="'Helvetica-Bold'" font-size="18">0.06</text>
<text transform="matrix(1 0 0 1 40.353 254.001)" fill="#ABABAB" font-family="'Helvetica-Bold'" font-size="18">0.02</text>
<text transform="matrix(1 0 0 1 40.353 309.6006)" fill="#ABABAB" font-family="'Helvetica-Bold'" font-size="18">0.01</text>
<text transform="matrix(1 0 0 1 560.5 367.21)" fill="#ABABAB" font-family="'Helvetica-Bold'" font-size="18">10.0</text>
<text transform="matrix(1 0 0 1 343.9995 367.21)" fill="#ABABAB" font-family="'Helvetica-Bold'" font-size="18">-10.0</text>
<text transform="matrix(1 0 0 1 452.2495 367.21)" fill="#ABABAB" font-family="'Helvetica-Bold'" font-size="18">0.0</text>
<text transform="matrix(1 0 0 1 668.75 367.21)" fill="#ABABAB" font-family="'Helvetica-Bold'" font-size="18">20.0</text>
<text transform="matrix(1 0 0 1 235.7495 367.21)" fill="#ABABAB" font-family="'Helvetica-Bold'" font-size="18">-20.0</text>
<text transform="matrix(1 0 0 1 777 367.21)" fill="#ABABAB" font-family="'Helvetica-Bold'" font-size="18">30.0</text>
<text transform="matrix(1 0 0 1 127.4995 367.21)" fill="#ABABAB" font-family="'Helvetica-Bold'" font-size="18">-30.0</text>
<rect x="638" y="91.25" fill="#4AADE2" stroke="#17479D" stroke-width="3" stroke-linecap="square" stroke-miterlimit="3.25" width="24.5" height="24.5"/>
<rect x="638" y="37.25" fill="#F4E237" stroke="#E2AB25" stroke-width="3" stroke-linecap="square" stroke-miterlimit="3.25" width="24.5" height="24.5"/>
</svg>
