<svg xmlns="http://www.w3.org/2000/svg" viewBox="0 0 48 48"><title>ONE-xicons</title><path d="M45,44.1a2.49,2.49,0,0,1-1.45-.46L19.52,26.51a2.5,2.5,0,0,1,0-4.07L43.58,5.32a2.5,2.5,0,0,1,3.95,2V41.6A2.5,2.5,0,0,1,45,44.1ZM45,5.85a1.49,1.49,0,0,0-.87.28L20.1,23.25a1.5,1.5,0,0,0,0,2.44L44.16,42.82a1.5,1.5,0,0,0,2.37-1.22V7.35A1.48,1.48,0,0,0,45.71,6,1.51,1.51,0,0,0,45,5.85Z"/><path d="M10,45.47H3A2.5,2.5,0,0,1,.47,43V6A2.5,2.5,0,0,1,3,3.47h7A2.5,2.5,0,0,1,12.47,6V43A2.5,2.5,0,0,1,10,45.47Zm-7-41A1.5,1.5,0,0,0,1.47,6V43A1.5,1.5,0,0,0,3,44.47h7a1.5,1.5,0,0,0,1.5-1.5V6A1.5,1.5,0,0,0,10,4.47H3Z"/><rect width="48" height="48" fill="none"/></svg>