<svg xmlns="http://www.w3.org/2000/svg" viewBox="0 0 48 48"><title>ONE-xicons</title><path d="M41.12,29.53H6.88a2.5,2.5,0,0,1-2-4L22,1.52a2.5,2.5,0,0,1,4.07,0L43.16,25.58A2.5,2.5,0,0,1,41.12,29.53ZM24,1.47a1.48,1.48,0,0,0-1.22.63h0L5.66,26.16a1.5,1.5,0,0,0,1.22,2.37H41.12a1.5,1.5,0,0,0,1.22-2.37L25.22,2.1A1.48,1.48,0,0,0,24,1.47Zm-1.63.34h0Z"/><path d="M42.5,47.53H5.5A2.5,2.5,0,0,1,3,45V38a2.5,2.5,0,0,1,2.5-2.5h37A2.5,2.5,0,0,1,45,38v7A2.5,2.5,0,0,1,42.5,47.53Zm-37-11A1.5,1.5,0,0,0,4,38v7a1.5,1.5,0,0,0,1.5,1.5h37A1.5,1.5,0,0,0,44,45V38a1.5,1.5,0,0,0-1.5-1.5H5.5Z"/><rect width="48" height="48" fill="none"/></svg>