<svg xmlns="http://www.w3.org/2000/svg" viewBox="0 0 48 48"><title>ONE-xicons</title><path d="M29,41.55c-3.07,0-5.58-2-5.58-4.56S26,32.43,29,32.43a6.52,6.52,0,0,1,3,.7V16.45A0.5,0.5,0,0,1,32.4,16l15-3a0.51,0.51,0,0,1,.42.1,0.5,0.5,0,0,1,.18.39v23a0.48,0.48,0,0,1,0,.12l-0.08.33a0.5,0.5,0,0,1-.19.29A6.34,6.34,0,0,1,44,38.33c-3.07,0-5.58-2-5.58-4.56s2.5-4.56,5.58-4.56a6.53,6.53,0,0,1,3,.7V14.06l-14,2.8V39.45l-0.08.61a0.5,0.5,0,0,1-.2.34A6.34,6.34,0,0,1,29,41.55Zm0-8.12c-2.52,0-4.58,1.6-4.58,3.56s2.05,3.56,4.58,3.56A5.39,5.39,0,0,0,32,39.71l0-.33v-5.1A5.38,5.38,0,0,0,29,33.43Zm15-3.22c-2.52,0-4.58,1.6-4.58,3.56S41.5,37.33,44,37.33a5.38,5.38,0,0,0,3-.85l0-.09V31.07A5.37,5.37,0,0,0,44,30.21Z"/><path d="M37.5,7.45H0.5a0.5,0.5,0,0,1,0-1h37A0.5,0.5,0,0,1,37.5,7.45Z"/><path d="M25.5,17.45H0.5a0.5,0.5,0,0,1,0-1h25A0.5,0.5,0,0,1,25.5,17.45Z"/><path d="M13.5,27.45H0.5a0.5,0.5,0,0,1,0-1h13A0.5,0.5,0,0,1,13.5,27.45Z"/><rect width="48" height="48" fill="none"/></svg>