<svg xmlns="http://www.w3.org/2000/svg" viewBox="0 0 48 48"><title>ONE-xicons</title><path d="M24,39a0.5,0.5,0,0,1-.5-0.5V28a0.5,0.5,0,0,1,1,0V38.5A0.5,0.5,0,0,1,24,39Z"/><path d="M24,28.89a0.5,0.5,0,0,1-.38-0.17c-0.18-.21-0.45-0.47-0.77-0.77-1.52-1.45-4.33-4.15-4.33-8,0-3.6,2.86-6.49,4.4-8,0.29-.29.53-0.54,0.7-0.73a0.52,0.52,0,0,1,.76,0c0.17,0.2.41,0.44,0.7,0.73,1.54,1.55,4.4,4.43,4.4,8,0,3.84-2.82,6.54-4.33,8-0.32.31-.59,0.56-0.77,0.77A0.5,0.5,0,0,1,24,28.89Zm0-16.65-0.37.38c-1.44,1.45-4.11,4.14-4.11,7.33,0,3.42,2.52,5.83,4,7.27L24,27.66l0.46-.44c1.51-1.44,4-3.86,4-7.27,0-3.19-2.68-5.89-4.11-7.33Z"/><path d="M21.89,28.88c-2.19,0-5.41-.26-7.74-2.6-2.55-2.55-2.56-6.62-2.57-8.8,0-.41,0-0.76,0-1a0.5,0.5,0,0,1,.54-0.54c0.26,0,.6,0,1,0A16.16,16.16,0,0,1,19.7,17a0.5,0.5,0,0,1-.42.91,15.09,15.09,0,0,0-6.18-1H12.57c0,0.16,0,.34,0,0.53,0,2,0,5.84,2.28,8.09,2.41,2.41,5.91,2.34,8,2.3,0.48,0,.88,0,1.19,0a0.5,0.5,0,0,1-.07,1c-0.28,0-.65,0-1.09,0h-1Z"/><path d="M26.11,28.88h-1c-0.44,0-.81,0-1.09,0a0.5,0.5,0,0,1-.07-1c0.3,0,.7,0,1.19,0,2.08,0,5.58.12,8-2.3,2.26-2.26,2.27-6.05,2.28-8.09,0-.19,0-0.37,0-0.53H34.9a15.1,15.1,0,0,0-6.18,1A0.5,0.5,0,1,1,28.31,17,16.18,16.18,0,0,1,34.9,16c0.41,0,.76,0,1,0a0.51,0.51,0,0,1,.39.15,0.5,0.5,0,0,1,.15.39c0,0.26,0,.6,0,1,0,2.18,0,6.25-2.57,8.8C31.52,28.62,28.3,28.88,26.11,28.88Z"/><path d="M43.5,45H4.5A4.5,4.5,0,0,1,0,40.5V7.5A4.5,4.5,0,0,1,4.5,3h39A4.5,4.5,0,0,1,48,7.5v33A4.5,4.5,0,0,1,43.5,45ZM4.5,4A3.5,3.5,0,0,0,1,7.5v33A3.5,3.5,0,0,0,4.5,44h39A3.5,3.5,0,0,0,47,40.5V7.5A3.5,3.5,0,0,0,43.5,4H4.5Z"/><rect width="48" height="48" fill="none"/></svg>