<svg xmlns="http://www.w3.org/2000/svg" viewBox="0 0 48 48"><title>ONE-xicons</title><path d="M3.77,17.62a0.5,0.5,0,0,1-.47-0.34L0.05,7.64A0.5,0.5,0,0,1,1,7.32L4.25,17a0.5,0.5,0,0,1-.31.63Z"/><path d="M3.77,17.62a0.5,0.5,0,0,1-.1-1l9.88-2.12a0.5,0.5,0,1,1,.21,1L3.88,17.61H3.77Z"/><path d="M24.71,47.5A22.74,22.74,0,0,1,2,26.55C2,25.88,1.92,25.19,1.92,24.5a0.5,0.5,0,0,1,1,0c0,0.66,0,1.32.09,2a21.78,21.78,0,0,0,43.49-2,21.92,21.92,0,0,0-21.79-22A21.68,21.68,0,0,0,4.43,16.44a0.5,0.5,0,0,1-.93-0.36A22.67,22.67,0,0,1,24.71,1.5,23,23,0,0,1,24.71,47.5Z"/><rect width="48" height="48" fill="none"/></svg>