<svg xmlns="http://www.w3.org/2000/svg" viewBox="0 0 48 48"><title>ONE-xicons</title><path d="M28.66,19.69a0.5,0.5,0,0,1-.37-0.83l4-4.54-4-4.54A0.5,0.5,0,0,1,29,9.11L33.36,14a0.5,0.5,0,0,1,0,.66L29,19.53A0.5,0.5,0,0,1,28.66,19.69Z"/><path d="M37.25,34.18H16.16a0.5,0.5,0,1,1,0-1h21.1A0.5,0.5,0,0,1,37.25,34.18Z"/><path d="M19.22,39.06a0.5,0.5,0,0,1-.37-0.17L14.52,34a0.5,0.5,0,0,1,0-.66l4.33-4.87a0.5,0.5,0,0,1,.75.66l-4,4.54,4,4.54A0.5,0.5,0,0,1,19.22,39.06Z"/><path d="M8.14,34L8,33.94a10.25,10.25,0,0,1,2.75-20.13h21a0.5,0.5,0,0,1,0,1h-21A9.25,9.25,0,0,0,8.27,33,0.5,0.5,0,0,1,8.14,34Z"/><path d="M37.25,34.18a0.5,0.5,0,0,1,0-1,9.25,9.25,0,0,0,2-18.28,0.5,0.5,0,1,1,.21-1A10.25,10.25,0,0,1,37.25,34.18Z"/><rect width="48" height="48" fill="none"/></svg>