<svg xmlns="http://www.w3.org/2000/svg" viewBox="0 0 48 48"><title>ONE-xicons</title><path d="M13,30a6,6,0,1,1,6-6A6,6,0,0,1,13,30Zm0-11a5,5,0,1,0,5,5A5,5,0,0,0,13,19Z"/><path d="M17.42,20.55a0.5,0.5,0,0,1-.32-0.88L29.93,8.84a0.5,0.5,0,1,1,.64.76L17.74,20.43A0.5,0.5,0,0,1,17.42,20.55Z"/><path d="M35,12a6,6,0,1,1,6-6A6,6,0,0,1,35,12ZM35,1a5,5,0,1,0,5,5A5,5,0,0,0,35,1Z"/><path d="M35,48a6,6,0,1,1,6-6A6,6,0,0,1,35,48Zm0-11a5,5,0,1,0,5,5A5,5,0,0,0,35,37Z"/><path d="M30.25,39.55a0.5,0.5,0,0,1-.32-0.12L17.1,28.6a0.5,0.5,0,1,1,.64-0.76L30.58,38.67A0.5,0.5,0,0,1,30.25,39.55Z"/><rect width="48" height="48" fill="none"/></svg>