<svg xmlns="http://www.w3.org/2000/svg" viewBox="0 0 48 48"><title>ONE-xicons</title><path d="M26.93,47.39a2.46,2.46,0,0,1-1.82-.81L11.22,31.5H10a7.5,7.5,0,0,1-7.5-7.73,7.71,7.71,0,0,1,7.79-7.27h1L25.11,1.43a2.5,2.5,0,0,1,4.34,1.69V44.88a2.45,2.45,0,0,1-1.59,2.33A2.56,2.56,0,0,1,26.93,47.39ZM10.25,17.5a6.7,6.7,0,0,0-6.79,6.3A6.5,6.5,0,0,0,10,30.5h1.49a0.5,0.5,0,0,1,.37.16l14,15.23a1.5,1.5,0,0,0,2.6-1V3.12a1.5,1.5,0,0,0-2.6-1l-14,15.23a0.5,0.5,0,0,1-.37.16H10.25Z"/><path d="M35.86,29.1a0.5,0.5,0,0,1-.35-0.85l9.19-9.19a0.5,0.5,0,0,1,.71.71l-9.19,9.19A0.5,0.5,0,0,1,35.86,29.1Z"/><path d="M45,29.1a0.5,0.5,0,0,1-.35-0.15L35.5,19.76a0.5,0.5,0,0,1,.71-0.71l9.19,9.19A0.5,0.5,0,0,1,45,29.1Z"/><rect width="48" height="48" fill="none"/></svg>