<?xml version="1.0" encoding="utf-8"?>
<!-- Generator: Adobe Illustrator 15.1.0, SVG Export Plug-In . SVG Version: 6.00 Build 0)  -->
<svg version="1.2" baseProfile="tiny" id="Layer_1" xmlns="http://www.w3.org/2000/svg" xmlns:xlink="http://www.w3.org/1999/xlink"
	 x="0px" y="0px" width="946px" height="291px" viewBox="0 0 946 291" overflow="inherit" xml:space="preserve">
<polyline fill="#F4E237" stroke="#E2AB25" stroke-width="3" stroke-linecap="square" stroke-miterlimit="3.25" points="
	459.862,209.002 939.569,209.002 939.562,209.002 939.557,209.002 939.556,209.002 939.547,209.002 939.539,209.002 
	939.535,209.002 939.527,209.002 939.51,209.002 939.5,209.002 939.496,209.002 939.489,209.002 939.451,209.002 939.433,209.002 
	939.428,209.002 939.417,209.002 939.414,209.002 939.338,209.002 939.296,209.002 939.278,209.002 939.271,209.002 
	939.268,209.002 939.259,209.002 937.98,209.002 937.342,209.002 937.02,209.002 936.861,209.002 936.698,209.002 936.062,209.002 
	935.741,209.002 935.577,209.002 935.419,209.002 934.779,209.002 934.457,209.002 934.297,209.002 934.137,209.002 
	932.858,209.002 932.217,209.002 931.898,209.002 931.739,209.002 931.576,209.002 930.938,209.002 930.617,209.002 930.46,209.002 
	930.298,209.002 929.66,209.002 929.339,209.002 929.178,209.002 929.018,209.002 927.835,209.002 927.244,209.002 926.95,209.002 
	926.803,209.002 926.652,209.002 925.472,208.998 924.881,208.998 924.586,208.998 924.44,208.998 924.292,208.998 923.109,208.998 
	922.519,208.998 922.225,208.998 922.074,208.998 921.931,208.998 920.748,208.998 920.157,208.998 919.86,208.998 919.713,208.998 
	919.564,208.998 918.299,208.998 917.669,208.998 917.352,208.998 917.193,208.998 917.035,208.998 915.768,208.998 
	915.133,208.998 914.816,208.998 914.659,208.998 914.5,208.998 913.236,208.995 912.602,208.995 912.287,208.995 912.128,208.995 
	911.969,208.995 910.706,208.995 910.073,208.995 909.755,208.995 909.599,208.995 909.438,208.995 908.273,208.989 
	907.688,208.989 907.398,208.989 907.251,208.989 907.104,208.989 905.936,208.989 905.357,208.989 905.062,208.989 
	904.916,208.989 904.766,208.989 903.603,208.987 903.022,208.987 902.728,208.987 902.583,208.987 902.438,208.987 
	901.271,208.981 900.688,208.981 900.396,208.981 900.249,208.981 900.101,208.981 898.913,208.979 898.317,208.979 
	898.019,208.979 897.874,208.979 897.723,208.979 896.535,208.976 895.939,208.976 895.64,208.971 895.49,208.971 895.342,208.971 
	894.151,208.967 893.557,208.967 893.261,208.967 893.108,208.967 892.961,208.965 891.771,208.96 891.173,208.96 890.88,208.96 
	890.728,208.957 890.582,208.957 889.308,208.953 888.667,208.948 888.349,208.948 888.19,208.945 888.032,208.945 886.753,208.942 
	886.118,208.937 885.799,208.935 885.641,208.935 885.481,208.935 884.206,208.926 883.569,208.922 883.249,208.92 883.09,208.92 
	882.931,208.92 881.655,208.911 881.021,208.903 880.698,208.903 880.539,208.9 880.384,208.9 879.206,208.893 878.617,208.885 
	878.322,208.883 878.176,208.883 878.028,208.883 876.853,208.869 876.267,208.862 875.969,208.859 875.825,208.854 
	875.678,208.854 874.504,208.84 873.914,208.831 873.619,208.831 873.472,208.828 873.33,208.828 872.15,208.808 871.564,208.802 
	871.269,208.798 871.122,208.796 870.975,208.796 868.455,208.75 867.191,208.729 866.567,208.715 866.248,208.708 866.089,208.7 
	865.932,208.7 864.672,208.669 864.041,208.654 863.725,208.647 863.567,208.644 863.413,208.639 862.153,208.604 861.521,208.587 
	861.204,208.579 861.045,208.571 860.889,208.568 858.322,208.484 857.037,208.438 856.397,208.41 856.076,208.398 855.912,208.389 
	855.757,208.388 854.472,208.329 853.827,208.297 853.508,208.284 853.347,208.276 853.188,208.27 851.904,208.203 851.262,208.168 
	850.938,208.152 850.779,208.142 850.619,208.131 848.248,207.988 847.065,207.907 846.471,207.868 846.178,207.843 
	846.027,207.832 845.88,207.819 844.695,207.73 844.103,207.684 843.808,207.654 843.658,207.645 843.511,207.631 842.326,207.526 
	841.734,207.47 841.437,207.443 841.288,207.43 841.144,207.413 838.604,207.148 837.333,207.004 836.699,206.928 836.378,206.886 
	836.22,206.867 836.062,206.844 834.793,206.681 834.161,206.593 833.844,206.545 833.687,206.523 833.527,206.501 832.256,206.309 
	831.621,206.206 831.302,206.157 831.144,206.132 830.984,206.106 828.646,205.698 827.475,205.471 826.888,205.358 
	826.597,205.298 826.45,205.269 826.304,205.237 823.965,204.725 822.796,204.448 822.206,204.305 821.914,204.23 821.77,204.191 
	821.623,204.155 819.234,203.511 818.042,203.159 817.447,202.978 817.145,202.884 816.997,202.838 816.849,202.794 
	814.462,201.996 813.269,201.57 812.671,201.348 812.372,201.235 812.223,201.179 812.07,201.12 809.519,200.086 808.237,199.527 
	807.603,199.239 807.28,199.092 807.119,199.018 806.959,198.94 804.402,197.685 803.125,197.011 802.486,196.663 802.167,196.486 
	802.007,196.399 801.847,196.309 799.486,194.925 798.307,194.189 797.718,193.811 797.425,193.62 797.278,193.521 797.13,193.427 
	794.771,191.812 793.592,190.956 792.999,190.52 792.71,190.297 792.56,190.182 792.411,190.072 789.885,188.071 788.62,187.014 
	787.988,186.471 787.673,186.198 787.515,186.059 787.356,185.921 784.83,183.623 783.565,182.416 782.933,181.798 782.617,181.484 
	782.458,181.325 782.3,181.168 779.971,178.775 778.806,177.532 778.224,176.896 777.935,176.574 777.786,176.415 777.642,176.253 
	775.313,173.603 774.146,172.231 773.566,171.534 773.273,171.185 773.129,171.005 772.986,170.83 763.477,158.313 753.296,143.244 
	743.903,128.674 733.835,113.578 728.71,106.577 726.149,103.34 724.865,101.799 724.225,101.047 723.905,100.677 723.746,100.493 
	723.585,100.309 721.219,97.721 720.039,96.502 719.442,95.912 719.148,95.627 719.001,95.482 718.854,95.344 716.488,93.193 
	715.305,92.214 714.712,91.744 714.416,91.515 714.271,91.405 714.125,91.293 712.856,90.38 712.218,89.949 711.905,89.742 
	711.746,89.645 711.588,89.542 710.322,88.784 709.688,88.432 709.37,88.267 709.212,88.184 709.054,88.103 707.787,87.502 
	707.152,87.233 706.836,87.104 706.677,87.049 706.52,86.984 705.886,86.759 705.569,86.653 705.41,86.6 705.252,86.551 
	704.617,86.365 704.144,86.243 703.984,86.201 703.399,86.068 703.105,86.012 702.962,85.98 702.813,85.955 702.524,85.902 
	702.378,85.88 702.23,85.855 701.939,85.816 701.792,85.797 701.646,85.777 701.354,85.742 701.209,85.732 701.065,85.717 
	700.918,85.707 700.77,85.695 700.622,85.688 700.479,85.676 700.333,85.669 700.187,85.66 700.042,85.655 699.895,85.654 
	699.749,85.649 699.603,85.647 699.459,85.647 699.311,85.647 699.162,85.647 699.019,85.649 698.873,85.654 698.727,85.655 
	698.579,85.666 698.436,85.673 698.29,85.679 698.143,85.691 697.997,85.701 697.851,85.715 697.704,85.725 697.558,85.74 
	697.414,85.755 697.266,85.771 697.119,85.788 696.978,85.805 696.684,85.846 696.537,85.869 696.389,85.891 696.098,85.939 
	695.952,85.967 695.808,85.997 695.516,86.054 695.369,86.085 695.223,86.116 694.93,86.186 694.785,86.218 694.638,86.257 
	694.042,86.418 693.742,86.506 693.597,86.551 693.445,86.596 692.849,86.792 692.552,86.902 692.404,86.954 692.255,87.012 
	691.658,87.246 691.36,87.369 691.213,87.433 691.063,87.497 690.465,87.773 690.17,87.913 690.02,87.984 689.871,88.061 
	688.682,88.692 688.084,89.033 687.787,89.215 687.636,89.306 687.489,89.395 686.297,90.164 685.701,90.575 685.404,90.786 
	685.256,90.897 685.105,91.006 682.551,93.024 681.277,94.141 680.639,94.726 680.317,95.027 680.159,95.179 680.003,95.328 
	677.448,97.905 676.172,99.285 675.533,99.998 675.213,100.354 675.055,100.541 674.895,100.724 672.541,103.524 671.363,104.996 
	670.777,105.744 670.481,106.124 670.335,106.312 670.188,106.506 667.833,109.636 666.657,111.254 666.068,112.075 665.77,112.488 
	665.625,112.694 665.478,112.903 655.383,127.978 645.103,143.924 635.613,157.962 630.529,164.903 627.989,168.185 
	626.718,169.774 626.085,170.554 625.764,170.938 625.605,171.135 625.447,171.327 620.762,176.736 618.418,179.248 
	617.246,180.455 616.661,181.046 616.369,181.342 616.223,181.484 616.073,181.631 611.049,186.302 608.537,188.41 607.283,189.414 
	606.653,189.899 606.339,190.142 606.181,190.259 606.025,190.379 603.464,192.235 602.187,193.11 601.547,193.533 601.226,193.744 
	601.065,193.846 600.906,193.947 598.348,195.528 597.068,196.268 596.428,196.622 596.107,196.8 595.947,196.886 595.788,196.975 
	593.427,198.198 592.247,198.771 591.655,199.047 591.36,199.184 591.213,199.252 591.063,199.318 588.704,200.349 587.524,200.828 
	586.934,201.058 586.639,201.171 586.492,201.227 586.343,201.284 583.812,202.192 582.548,202.615 581.914,202.816 
	581.598,202.917 581.44,202.963 581.282,203.013 578.753,203.746 577.486,204.085 576.854,204.25 576.537,204.33 576.379,204.365 
	576.22,204.403 573.89,204.951 572.722,205.198 572.139,205.315 571.849,205.376 571.703,205.406 571.557,205.437 569.226,205.871 
	568.06,206.07 567.475,206.17 567.185,206.215 567.037,206.237 566.893,206.26 564.513,206.615 563.324,206.774 562.728,206.853 
	562.432,206.888 562.283,206.907 562.135,206.928 560.943,207.069 560.349,207.139 560.051,207.169 559.904,207.188 
	559.755,207.203 558.567,207.327 557.972,207.389 557.675,207.419 557.526,207.433 557.377,207.448 554.828,207.673 
	553.554,207.774 552.918,207.824 552.599,207.848 552.44,207.859 552.281,207.869 551.004,207.961 550.368,208.003 550.05,208.021 
	549.891,208.033 549.731,208.045 548.456,208.12 547.82,208.157 547.502,208.173 547.342,208.185 547.185,208.19 544.833,208.309 
	543.656,208.36 543.07,208.388 542.778,208.398 542.631,208.401 542.483,208.41 541.31,208.455 540.72,208.479 540.426,208.488 
	540.279,208.493 540.132,208.498 538.959,208.538 538.372,208.559 538.077,208.564 537.93,208.568 537.783,208.575 535.264,208.644 
	534.006,208.673 533.374,208.688 533.06,208.696 532.902,208.7 532.743,208.7 531.485,208.729 530.855,208.741 530.541,208.744 
	530.382,208.75 530.226,208.754 528.965,208.775 528.335,208.786 528.021,208.788 527.864,208.796 527.705,208.796 526.422,208.814 
	525.781,208.824 525.461,208.828 525.3,208.828 525.139,208.831 523.856,208.848 523.215,208.854 522.894,208.859 522.734,208.859 
	522.573,208.862 521.29,208.878 520.648,208.883 520.328,208.885 520.168,208.885 520.007,208.888 518.724,208.896 518.082,208.903 
	517.762,208.903 517.601,208.908 517.441,208.908 516.257,208.915 515.667,208.92 515.368,208.922 515.223,208.922 515.073,208.922 
	513.89,208.93 513.298,208.935 513.001,208.935 512.854,208.937 512.705,208.937 511.521,208.942 510.928,208.945 510.633,208.945 
	510.485,208.948 510.337,208.948 509.153,208.953 508.561,208.957 508.265,208.957 508.116,208.957 507.969,208.96 506.701,208.965 
	506.065,208.965 505.749,208.967 505.59,208.967 505.432,208.967 504.164,208.971 503.529,208.971 503.21,208.971 503.053,208.971 
	502.894,208.976 501.625,208.976 500.992,208.979 500.675,208.979 500.517,208.979 500.357,208.979 499.09,208.981 498.455,208.981 
	498.138,208.981 497.979,208.981 497.821,208.981 496.651,208.987 496.066,208.987 495.773,208.987 495.628,208.987 
	495.482,208.987 494.312,208.987 493.727,208.989 493.435,208.989 493.289,208.989 493.142,208.989 491.973,208.989 
	491.388,208.989 491.096,208.989 490.949,208.989 490.803,208.989 489.635,208.995 489.049,208.995 488.758,208.995 488.61,208.995 
	488.464,208.995 487.272,208.995 486.676,208.995 486.376,208.995 486.228,208.995 486.079,208.995 484.886,208.995 484.29,208.998 
	483.991,208.998 483.842,208.998 483.691,208.998 482.5,208.998 481.903,208.998 481.605,208.998 481.455,208.998 481.307,208.998 
	480.113,208.998 479.518,208.998 479.219,208.998 479.071,208.998 478.921,208.998 477.644,208.998 477.004,208.998 
	476.685,208.998 476.525,208.998 476.367,208.998 475.727,208.998 475.408,208.998 475.248,208.998 475.088,208.998 
	474.448,208.998 474.129,208.998 473.97,208.998 473.811,208.998 472.533,209.002 471.894,209.002 471.575,209.002 471.415,209.002 
	471.256,209.002 470.617,209.002 470.298,209.002 470.138,209.002 469.978,209.002 469.338,209.002 469.02,209.002 468.859,209.002 
	468.701,209.002 467.521,209.002 466.933,209.002 466.638,209.002 466.492,209.002 466.343,209.002 465.166,209.002 
	464.576,209.002 464.282,209.002 464.134,209.002 463.987,209.002 462.809,209.002 462.22,209.002 461.924,209.002 461.777,209.002 
	461.631,209.002 460.45,209.002 459.862,209.002 459.569,209.002 459.419,209.002 459.272,209.002 "/>
<line fill="none" stroke="#000000" stroke-miterlimit="10" x1="459.272" y1="209.002" x2="939.296" y2="209.002"/>
<line fill="none" stroke="#000000" stroke-miterlimit="10" x1="459.272" y1="209.002" x2="459.272" y2="11.09"/>
<text transform="matrix(4.489659e-11 -1 1 4.489659e-11 425.3086 125.29)" font-family="'Helvetica-Bold'" font-size="14.8958">P(IQ)</text>
<text transform="matrix(1 0 0 1 670.251 283.0332)" font-family="'Helvetica-Bold'" font-size="14.8958">IQ score</text>
<text transform="matrix(1 0 0 1 433.3779 82.9619)" fill="#ABABAB" font-family="'Helvetica-Bold'" font-size="11.1719">0.04</text>
<text transform="matrix(1 0 0 1 433.3779 117.4707)" fill="#ABABAB" font-family="'Helvetica-Bold'" font-size="11.1719">0.03</text>
<text transform="matrix(1 0 0 1 433.3779 48.4541)" fill="#ABABAB" font-family="'Helvetica-Bold'" font-size="11.1719">0.05</text>
<text transform="matrix(1 0 0 1 433.3779 13.9443)" fill="#ABABAB" font-family="'Helvetica-Bold'" font-size="11.1719">0.06</text>
<text transform="matrix(1 0 0 1 433.3779 151.9805)" fill="#ABABAB" font-family="'Helvetica-Bold'" font-size="11.1719">0.02</text>
<text transform="matrix(1 0 0 1 433.3779 186.4873)" fill="#ABABAB" font-family="'Helvetica-Bold'" font-size="11.1719">0.01</text>
<text transform="matrix(1 0 0 1 739.1797 222.2441)" fill="#ABABAB" font-family="'Helvetica-Bold'" font-size="11.1719">1</text>
<text transform="matrix(1 0 0 1 744.7822 222.2441)" fill="#ABABAB" font-family="'Helvetica-Bold'" font-size="11.1719">1</text>
<text transform="matrix(1 0 0 1 750.9951 222.2441)" fill="#ABABAB" font-family="'Helvetica-Bold'" font-size="11.1719">5</text>
<text transform="matrix(1 0 0 1 638.8711 222.2441)" fill="#ABABAB" font-family="'Helvetica-Bold'" font-size="11.1719">85</text>
<text transform="matrix(1 0 0 1 686.6748 222.2441)" fill="#ABABAB" font-family="'Helvetica-Bold'" font-size="11.1719">100</text>
<text transform="matrix(1 0 0 1 784.0479 222.2441)" fill="#ABABAB" font-family="'Helvetica-Bold'" font-size="11.1719">130</text>
<text transform="matrix(1 0 0 1 590.4785 222.2441)" fill="#ABABAB" font-family="'Helvetica-Bold'" font-size="11.1719">70</text>
<text transform="matrix(1 0 0 1 829.5029 222.2441)" fill="#ABABAB" font-family="'Helvetica-Bold'" font-size="11.1719">145</text>
<text transform="matrix(1 0 0 1 545.6104 222.2441)" fill="#ABABAB" font-family="'Helvetica-Bold'" font-size="11.1719">55</text>
<line fill="none" stroke="#000000" stroke-miterlimit="10" x1="53.386" y1="209.402" x2="53.386" y2="13.944"/>
<text transform="matrix(4.489659e-11 -1 1 4.489659e-11 16.936 134.0635)" font-family="'Helvetica-Bold'" font-size="15.9863">P(face)</text>
<text transform="matrix(1 0 0 1 25.5947 77.0176)" fill="#ABABAB" font-family="'Helvetica-Bold'" font-size="11.9897">0.16</text>
<text transform="matrix(1 0 0 1 25.5947 148.207)" fill="#ABABAB" font-family="'Helvetica-Bold'" font-size="11.9897">0.08</text>
<path fill="#FFFFFF" stroke="#000000" stroke-width="2" stroke-miterlimit="10" d="M105.254,249.114
	c0,8.195-6.644,14.841-14.84,14.841H75.574c-8.196,0-14.84-6.646-14.84-14.841v-14.84c0-8.194,6.644-14.839,14.84-14.839h14.841
	c8.196,0,14.84,6.645,14.84,14.839V249.114z"/>
<path fill="#FFFFFF" stroke="#000000" stroke-width="2" stroke-miterlimit="10" d="M162.955,249.114
	c0,8.195-6.644,14.841-14.839,14.841h-14.84c-8.197,0-14.841-6.646-14.841-14.841v-14.84c0-8.194,6.644-14.839,14.841-14.839h14.84
	c8.196,0,14.839,6.645,14.839,14.839V249.114z"/>
<path fill="#FFFFFF" stroke="#000000" stroke-width="2" stroke-miterlimit="10" d="M217.976,249.114
	c0,8.195-6.644,14.841-14.84,14.841h-14.841c-8.196,0-14.84-6.646-14.84-14.841v-14.84c0-8.194,6.645-14.839,14.84-14.839h14.841
	c8.196,0,14.84,6.645,14.84,14.839V249.114z"/>
<path fill="#FFFFFF" stroke="#000000" stroke-width="2" stroke-miterlimit="10" d="M272.252,249.114
	c0,8.195-6.645,14.841-14.84,14.841h-14.84c-8.197,0-14.84-6.646-14.84-14.841v-14.84c0-8.194,6.644-14.839,14.84-14.839h14.84
	c8.196,0,14.84,6.645,14.84,14.839V249.114z"/>
<path fill="#FFFFFF" stroke="#000000" stroke-width="2" stroke-miterlimit="10" d="M327.273,249.114
	c0,8.195-6.644,14.841-14.841,14.841h-14.84c-8.196,0-14.84-6.646-14.84-14.841v-14.84c0-8.194,6.644-14.839,14.84-14.839h14.84
	c8.197,0,14.841,6.645,14.841,14.839V249.114z"/>
<path fill="#FFFFFF" stroke="#000000" stroke-width="2" stroke-miterlimit="10" d="M380.541,249.114
	c0,8.195-6.644,14.841-14.84,14.841h-14.84c-8.197,0-14.841-6.646-14.841-14.841v-14.84c0-8.194,6.644-14.839,14.841-14.839h14.84
	c8.196,0,14.84,6.645,14.84,14.839V249.114z"/>
<circle cx="83.01" cy="241.694" r="3.766"/>
<circle cx="132.107" cy="251.747" r="3.766"/>
<circle cx="150.386" cy="232.272" r="3.766"/>
<circle cx="240.852" cy="251.747" r="3.765"/>
<circle cx="240.852" cy="232.272" r="3.765"/>
<circle cx="259.131" cy="232.272" r="3.766"/>
<circle cx="259.131" cy="251.747" r="3.766"/>
<circle cx="349.141" cy="251.747" r="3.766"/>
<circle cx="349.141" cy="241.694" r="3.766"/>
<circle cx="349.141" cy="232.272" r="3.766"/>
<circle cx="367.42" cy="232.272" r="3.766"/>
<circle cx="367.42" cy="251.747" r="3.766"/>
<circle cx="367.42" cy="242.384" r="3.766"/>
<circle cx="295.873" cy="251.747" r="3.766"/>
<circle cx="305.254" cy="242.366" r="3.766"/>
<circle cx="295.873" cy="232.272" r="3.766"/>
<circle cx="314.152" cy="232.272" r="3.766"/>
<circle cx="314.152" cy="251.747" r="3.766"/>
<circle cx="186.576" cy="251.747" r="3.766"/>
<circle cx="204.855" cy="232.272" r="3.766"/>
<circle cx="195.574" cy="241.554" r="3.766"/>
<rect x="63.786" y="74.137" fill="#38C1D2" stroke="#346AB4" stroke-width="2" stroke-miterlimit="10" width="42.503" height="135.266"/>
<rect x="118.434" y="74.137" fill="#38C1D2" stroke="#346AB4" stroke-width="2" stroke-miterlimit="10" width="42.503" height="135.266"/>
<rect x="173.083" y="74.137" fill="#38C1D2" stroke="#346AB4" stroke-width="2" stroke-miterlimit="10" width="42.502" height="135.266"/>
<rect x="227.731" y="74.137" fill="#38C1D2" stroke="#346AB4" stroke-width="2" stroke-miterlimit="10" width="42.503" height="135.266"/>
<rect x="282.38" y="74.137" fill="#38C1D2" stroke="#346AB4" stroke-width="2" stroke-miterlimit="10" width="42.502" height="135.266"/>
<rect x="337.029" y="74.137" fill="#38C1D2" stroke="#346AB4" stroke-width="2" stroke-miterlimit="10" width="42.502" height="135.266"/>
<line fill="none" stroke="#000000" stroke-miterlimit="10" x1="53.386" y1="209.402" x2="406.317" y2="209.402"/>
<line fill="#FFFFFF" stroke="#000000" stroke-miterlimit="10" x1="643.203" y1="237.122" x2="751.271" y2="237.122"/>
<line fill="#FFFFFF" stroke="#000000" stroke-miterlimit="10" x1="596.219" y1="250.364" x2="794.771" y2="250.364"/>
<line fill="none" stroke="#000000" stroke-miterlimit="10" x1="643.203" y1="233.702" x2="643.203" y2="240.545"/>
<line fill="none" stroke="#000000" stroke-miterlimit="10" x1="596.219" y1="246.943" x2="596.219" y2="253.786"/>
<line fill="none" stroke="#000000" stroke-miterlimit="10" x1="794.771" y1="246.943" x2="794.771" y2="253.786"/>
<line fill="none" stroke="#000000" stroke-miterlimit="10" x1="751.271" y1="233.702" x2="751.271" y2="240.545"/>
<rect x="689.603" y="233.376" fill="#FFFFFF" width="19.968" height="7.169"/>
<text transform="matrix(1 0 0 1 690.7773 240.0254)" fill="#ABABAB" font-family="'Helvetica-Bold'" font-size="9.2366">68%</text>
<rect x="689.603" y="246.78" fill="#FFFFFF" width="19.968" height="7.169"/>
<text transform="matrix(1 0 0 1 690.7773 253.4287)" fill="#ABABAB" font-family="'Helvetica-Bold'" font-size="9.2366">95%</text>
</svg>
